G04*
G04 #@! TF.GenerationSoftware,Altium Limited,Altium Designer,21.6.4 (81)*
G04*
G04 Layer_Color=8421504*
%FSLAX25Y25*%
%MOIN*%
G70*
G04*
G04 #@! TF.SameCoordinates,D17E0072-19AB-4E61-9357-99CEFC96D61D*
G04*
G04*
G04 #@! TF.FilePolarity,Positive*
G04*
G01*
G75*
%ADD18C,0.02559*%
%ADD19R,0.05118X0.05906*%
%ADD20R,0.05709X0.02362*%
%ADD21R,0.05709X0.01181*%
%ADD22R,0.03937X0.02362*%
%ADD23R,0.01200X0.04700*%
%ADD24R,0.04700X0.01200*%
%ADD25R,0.02362X0.02362*%
%ADD26R,0.29610X0.41600*%
%ADD27R,0.12137X0.04016*%
%ADD28R,0.05906X0.05118*%
%ADD29O,0.06817X0.01350*%
%ADD30O,0.02480X0.07343*%
%ADD31R,0.05512X0.01575*%
%ADD32C,0.04000*%
%ADD33O,0.02315X0.08051*%
%ADD34R,0.08661X0.13780*%
%ADD35R,0.08661X0.04331*%
%ADD36R,0.07874X0.07874*%
%ADD37R,0.05906X0.02362*%
%ADD38R,0.09449X0.11024*%
%ADD39R,0.05906X0.07480*%
%ADD40R,0.07874X0.07874*%
G36*
X304744Y83847D02*
Y82272D01*
X309469D01*
X310256Y82272D01*
Y83847D01*
X309323D01*
X304744D01*
D02*
G37*
G36*
Y81288D02*
Y79713D01*
X309469D01*
X310256Y79713D01*
Y81288D01*
X309323D01*
X304744D01*
D02*
G37*
G36*
X317707Y68886D02*
X317370D01*
X316719Y69061D01*
X316136Y69398D01*
X315659Y69874D01*
X315322Y70458D01*
X315148Y71109D01*
Y71782D01*
X315322Y72433D01*
X315659Y73017D01*
X316136Y73493D01*
X316719Y73830D01*
X317370Y74005D01*
X317707D01*
D01*
X321250D01*
X321587D01*
X322238Y73830D01*
X322822Y73493D01*
X323298Y73017D01*
X323635Y72433D01*
X323810Y71782D01*
Y71109D01*
X323635Y70458D01*
X323298Y69874D01*
X322822Y69398D01*
X322238Y69061D01*
X321587Y68886D01*
X321250D01*
D01*
D01*
X317707D01*
D01*
D02*
G37*
G36*
X322238Y102176D02*
X322822Y101839D01*
X323298Y101363D01*
X323635Y100779D01*
X323810Y100128D01*
Y99455D01*
X323635Y98804D01*
X323298Y98220D01*
X322822Y97744D01*
X322238Y97407D01*
X321587Y97232D01*
X317370D01*
X316719Y97407D01*
X316136Y97744D01*
X315659Y98220D01*
X315322Y98804D01*
X315148Y99455D01*
Y100128D01*
X315322Y100779D01*
X315659Y101363D01*
X316136Y101839D01*
X316719Y102176D01*
X317370Y102351D01*
X321587D01*
X322238Y102176D01*
D02*
G37*
G36*
X310256Y89949D02*
X309469Y89949D01*
X304744D01*
Y91524D01*
X310256D01*
Y89949D01*
D02*
G37*
G36*
X310256Y87390D02*
X309469Y87390D01*
X304745D01*
Y88965D01*
X310256D01*
Y87390D01*
D02*
G37*
G36*
X310256Y84831D02*
X309469Y84831D01*
X304744D01*
Y86406D01*
X310256D01*
Y84831D01*
D02*
G37*
D18*
X310247Y76071D02*
G03*
X310247Y76071I-1280J0D01*
G01*
Y95165D02*
G03*
X310247Y95165I-1280J0D01*
G01*
D19*
X113240Y222500D02*
D03*
X105760D02*
D03*
X162020Y196500D02*
D03*
X169500D02*
D03*
X77760Y177500D02*
D03*
X85240D02*
D03*
X237980Y48500D02*
D03*
X230500D02*
D03*
X221500D02*
D03*
X214020D02*
D03*
X247020D02*
D03*
X254500D02*
D03*
X263500D02*
D03*
X270980D02*
D03*
X279760D02*
D03*
X287240D02*
D03*
X85240Y222500D02*
D03*
X77760D02*
D03*
X85240Y206500D02*
D03*
X77760D02*
D03*
X85240Y192500D02*
D03*
X77760D02*
D03*
X49240Y45500D02*
D03*
X41760D02*
D03*
X107760Y115500D02*
D03*
X115240D02*
D03*
X108280Y104500D02*
D03*
X115760D02*
D03*
Y94500D02*
D03*
X108280D02*
D03*
X114500Y125500D02*
D03*
X107020D02*
D03*
X162020Y187500D02*
D03*
X169500D02*
D03*
X114240Y135500D02*
D03*
X106760D02*
D03*
X18500Y24500D02*
D03*
X11020D02*
D03*
X18240Y15500D02*
D03*
X10760D02*
D03*
X235500Y121500D02*
D03*
X228020D02*
D03*
X235500Y112500D02*
D03*
X228020D02*
D03*
X48020Y207500D02*
D03*
X55500D02*
D03*
X113500Y206500D02*
D03*
X106020D02*
D03*
X55240Y154500D02*
D03*
X47760D02*
D03*
X47900Y163400D02*
D03*
X55380D02*
D03*
X55500Y198500D02*
D03*
X48020D02*
D03*
X105760Y145500D02*
D03*
X113240D02*
D03*
X55240Y172500D02*
D03*
X47760D02*
D03*
X55240Y181500D02*
D03*
X47760D02*
D03*
X105760Y172500D02*
D03*
X113240D02*
D03*
X105760Y154500D02*
D03*
X113240D02*
D03*
X113240Y181500D02*
D03*
X105760D02*
D03*
X113240Y163500D02*
D03*
X105760D02*
D03*
D20*
X31629Y203023D02*
D03*
Y206054D02*
D03*
Y225346D02*
D03*
Y228397D02*
D03*
D21*
Y208810D02*
D03*
Y210779D02*
D03*
Y212747D02*
D03*
Y214716D02*
D03*
Y216685D02*
D03*
Y218653D02*
D03*
X31628Y220621D02*
D03*
X31629Y222590D02*
D03*
D22*
X139619Y34980D02*
D03*
X139618Y27500D02*
D03*
X129382Y27500D02*
D03*
X129382Y31240D02*
D03*
X129382Y34980D02*
D03*
D23*
X188173Y152268D02*
D03*
X190142D02*
D03*
X192110D02*
D03*
X194079D02*
D03*
X196047D02*
D03*
X198016D02*
D03*
X199984D02*
D03*
X201953D02*
D03*
X203921D02*
D03*
X205890D02*
D03*
X207858D02*
D03*
X209827D02*
D03*
Y185732D02*
D03*
X207858D02*
D03*
X205890D02*
D03*
X203921D02*
D03*
X201953D02*
D03*
X199984D02*
D03*
X198016D02*
D03*
X196047D02*
D03*
X194079D02*
D03*
X192110D02*
D03*
X190142D02*
D03*
X188173D02*
D03*
D24*
X215732Y158173D02*
D03*
Y160142D02*
D03*
Y162110D02*
D03*
Y164079D02*
D03*
Y166047D02*
D03*
Y168016D02*
D03*
Y169984D02*
D03*
Y171953D02*
D03*
Y173921D02*
D03*
Y175890D02*
D03*
Y177858D02*
D03*
Y179827D02*
D03*
X182268D02*
D03*
Y177858D02*
D03*
Y175890D02*
D03*
Y173921D02*
D03*
Y171953D02*
D03*
Y169984D02*
D03*
Y168016D02*
D03*
Y166047D02*
D03*
Y164079D02*
D03*
Y162110D02*
D03*
Y160142D02*
D03*
Y158173D02*
D03*
D25*
X66500Y221547D02*
D03*
Y227453D02*
D03*
Y216453D02*
D03*
Y210547D02*
D03*
D26*
X67500Y253500D02*
D03*
D27*
X109310Y266886D02*
D03*
Y260193D02*
D03*
Y253500D02*
D03*
Y246807D02*
D03*
Y240114D02*
D03*
D28*
X188800Y118120D02*
D03*
Y125600D02*
D03*
X179700Y118020D02*
D03*
Y125500D02*
D03*
X170600Y117760D02*
D03*
Y125240D02*
D03*
X63500Y53760D02*
D03*
Y61240D02*
D03*
X160500Y45980D02*
D03*
Y38500D02*
D03*
Y20240D02*
D03*
Y12760D02*
D03*
X150500Y45980D02*
D03*
Y38500D02*
D03*
X220500Y203500D02*
D03*
Y196020D02*
D03*
X223500Y92020D02*
D03*
Y99500D02*
D03*
X214500Y92020D02*
D03*
Y99500D02*
D03*
X205500Y92020D02*
D03*
Y99500D02*
D03*
X196500Y92020D02*
D03*
Y99500D02*
D03*
X132000Y271740D02*
D03*
Y264260D02*
D03*
X142500Y264760D02*
D03*
Y272240D02*
D03*
X84500Y61240D02*
D03*
Y53760D02*
D03*
X154000Y271740D02*
D03*
Y264260D02*
D03*
X94500Y140240D02*
D03*
Y132760D02*
D03*
X63774Y76980D02*
D03*
Y69500D02*
D03*
X84500Y85760D02*
D03*
Y93240D02*
D03*
Y69760D02*
D03*
Y77240D02*
D03*
X93500Y85760D02*
D03*
Y93240D02*
D03*
Y61240D02*
D03*
Y53760D02*
D03*
Y76980D02*
D03*
Y69500D02*
D03*
X123500Y229760D02*
D03*
Y237240D02*
D03*
X229900Y203200D02*
D03*
Y195720D02*
D03*
X289480Y160638D02*
D03*
Y168118D02*
D03*
X286500Y116500D02*
D03*
Y123980D02*
D03*
X271500Y98240D02*
D03*
Y90760D02*
D03*
X281500Y98240D02*
D03*
Y90760D02*
D03*
X164500Y211500D02*
D03*
Y218980D02*
D03*
X155500Y218930D02*
D03*
Y211450D02*
D03*
X146500Y211500D02*
D03*
Y218980D02*
D03*
D29*
X70500Y167177D02*
D03*
Y164618D02*
D03*
Y162059D02*
D03*
Y159500D02*
D03*
Y156941D02*
D03*
Y154382D02*
D03*
Y151823D02*
D03*
Y149264D02*
D03*
X93065Y167177D02*
D03*
Y164618D02*
D03*
Y162059D02*
D03*
Y159500D02*
D03*
Y156941D02*
D03*
Y154382D02*
D03*
Y151823D02*
D03*
Y149264D02*
D03*
D30*
X19000Y81939D02*
D03*
X24000D02*
D03*
X29000D02*
D03*
X34000D02*
D03*
X19000Y103061D02*
D03*
X24000D02*
D03*
X29000D02*
D03*
X34000D02*
D03*
Y67061D02*
D03*
X29000D02*
D03*
X24000D02*
D03*
X19000D02*
D03*
X34000Y45939D02*
D03*
X29000D02*
D03*
X24000D02*
D03*
X19000D02*
D03*
X33000Y138061D02*
D03*
X28000D02*
D03*
X23000D02*
D03*
X18000D02*
D03*
X33000Y116939D02*
D03*
X28000D02*
D03*
X23000D02*
D03*
X18000D02*
D03*
D31*
X307500Y90736D02*
D03*
Y88177D02*
D03*
Y85618D02*
D03*
Y83059D02*
D03*
Y80500D02*
D03*
D32*
X101500Y11500D02*
D03*
X148500Y10500D02*
D03*
D33*
X46000Y31415D02*
D03*
X41000D02*
D03*
X36000D02*
D03*
X31000D02*
D03*
X46000Y9585D02*
D03*
X41000D02*
D03*
X36000D02*
D03*
X31000D02*
D03*
D34*
X56300Y126500D02*
D03*
D35*
X80700Y135555D02*
D03*
Y126500D02*
D03*
Y117445D02*
D03*
D36*
X155055Y248000D02*
D03*
X136945D02*
D03*
D37*
X320326Y145626D02*
D03*
Y149563D02*
D03*
Y153500D02*
D03*
Y157437D02*
D03*
Y161374D02*
D03*
X298673D02*
D03*
Y157437D02*
D03*
Y153500D02*
D03*
Y149563D02*
D03*
Y145626D02*
D03*
D38*
X309500Y153500D02*
D03*
D39*
X272500Y147248D02*
D03*
Y115752D02*
D03*
D40*
X28000Y155890D02*
D03*
Y174000D02*
D03*
M02*
