G04*
G04 #@! TF.GenerationSoftware,Altium Limited,Altium Designer,21.6.4 (81)*
G04*
G04 Layer_Color=16711935*
%FSLAX25Y25*%
%MOIN*%
G70*
G04*
G04 #@! TF.SameCoordinates,D17E0072-19AB-4E61-9357-99CEFC96D61D*
G04*
G04*
G04 #@! TF.FilePolarity,Negative*
G04*
G01*
G75*
%ADD61C,0.03556*%
%ADD62O,0.07099X0.04737*%
%ADD63O,0.09068X0.04737*%
%ADD64R,0.07887X0.07887*%
%ADD65C,0.07887*%
%ADD66O,0.09461X0.05918*%
%ADD67C,0.05918*%
%ADD68R,0.07099X0.07099*%
%ADD69C,0.07099*%
%ADD70C,0.03162*%
D61*
X25940Y203967D02*
D03*
Y227432D02*
D03*
D62*
X11570Y198692D02*
D03*
Y232708D02*
D03*
D63*
X28027Y198692D02*
D03*
Y232708D02*
D03*
D64*
X281500Y29500D02*
D03*
D65*
Y19500D02*
D03*
X271500Y29500D02*
D03*
Y19500D02*
D03*
X261500Y29500D02*
D03*
Y19500D02*
D03*
X251500Y29500D02*
D03*
Y19500D02*
D03*
X241500Y29500D02*
D03*
Y19500D02*
D03*
X231500Y29500D02*
D03*
Y19500D02*
D03*
X221500Y29500D02*
D03*
Y19500D02*
D03*
X211500Y29500D02*
D03*
Y19500D02*
D03*
X201500Y29500D02*
D03*
Y19500D02*
D03*
X191500Y29500D02*
D03*
Y19500D02*
D03*
D66*
X319479Y99791D02*
D03*
Y71445D02*
D03*
D67*
X308967Y76071D02*
D03*
Y95165D02*
D03*
D68*
X312500Y269500D02*
D03*
D69*
Y259500D02*
D03*
X302500Y269500D02*
D03*
Y259500D02*
D03*
X292500Y269500D02*
D03*
Y259500D02*
D03*
X282500Y269500D02*
D03*
Y259500D02*
D03*
X272500Y269500D02*
D03*
Y259500D02*
D03*
X262500Y269500D02*
D03*
Y259500D02*
D03*
X252500Y269500D02*
D03*
Y259500D02*
D03*
X242500Y269500D02*
D03*
Y259500D02*
D03*
X232500Y269500D02*
D03*
Y259500D02*
D03*
X222500Y269500D02*
D03*
Y259500D02*
D03*
X212500Y269500D02*
D03*
Y259500D02*
D03*
X202500Y269500D02*
D03*
Y259500D02*
D03*
D70*
X41300Y231700D02*
D03*
X38400Y200100D02*
D03*
X37400Y207200D02*
D03*
X113240Y222500D02*
D03*
X40800Y224300D02*
D03*
X123500Y237240D02*
D03*
X162020Y196500D02*
D03*
X234100Y216500D02*
D03*
X227500Y175500D02*
D03*
X301200Y93900D02*
D03*
X187793Y167793D02*
D03*
X195600Y169500D02*
D03*
X66500Y221547D02*
D03*
X71200Y212100D02*
D03*
X115800Y231700D02*
D03*
X47900Y163400D02*
D03*
X47760Y154500D02*
D03*
X94500Y140240D02*
D03*
X113240Y145500D02*
D03*
X10760Y15500D02*
D03*
X36000Y9585D02*
D03*
Y31415D02*
D03*
X46000D02*
D03*
X49240Y45500D02*
D03*
X93500Y61240D02*
D03*
X84500Y85760D02*
D03*
X93500Y93240D02*
D03*
X80700Y117445D02*
D03*
X115240Y115500D02*
D03*
X196500Y92020D02*
D03*
X205500D02*
D03*
X214500D02*
D03*
X270980Y48500D02*
D03*
X214020D02*
D03*
X254500D02*
D03*
X230500D02*
D03*
X150500Y45980D02*
D03*
X160500D02*
D03*
Y12760D02*
D03*
X220500Y203500D02*
D03*
X320326Y153500D02*
D03*
X272500Y147248D02*
D03*
X286500Y116500D02*
D03*
X281500Y90760D02*
D03*
X223500Y92020D02*
D03*
X235500Y112500D02*
D03*
Y121500D02*
D03*
X170600Y117760D02*
D03*
X179700Y118020D02*
D03*
X206200Y135800D02*
D03*
X162020Y187500D02*
D03*
X146500Y218980D02*
D03*
X113500Y206500D02*
D03*
X85240Y192500D02*
D03*
X76000Y244000D02*
D03*
X74000Y264000D02*
D03*
X60000Y242000D02*
D03*
X62000Y266000D02*
D03*
X68000Y254000D02*
D03*
X109310Y266886D02*
D03*
Y253500D02*
D03*
X154000Y271740D02*
D03*
X142500Y272240D02*
D03*
X155265Y248557D02*
D03*
X34000Y81939D02*
D03*
X19000Y103061D02*
D03*
Y67061D02*
D03*
X33000Y116939D02*
D03*
X287240Y48500D02*
D03*
X271500Y90760D02*
D03*
X289480Y168118D02*
D03*
Y160638D02*
D03*
X220500Y196020D02*
D03*
X189300Y118100D02*
D03*
X179700Y125500D02*
D03*
X179200Y132000D02*
D03*
X216760Y123760D02*
D03*
X170000Y188000D02*
D03*
X123500Y229760D02*
D03*
X164500Y218980D02*
D03*
X155500Y218930D02*
D03*
X109310Y240114D02*
D03*
X48020Y207500D02*
D03*
X28043Y155965D02*
D03*
X160500Y38500D02*
D03*
X148500Y10500D02*
D03*
X150500Y38500D02*
D03*
X128999Y35240D02*
D03*
X129382Y27500D02*
D03*
X101500Y11500D02*
D03*
X41760Y45500D02*
D03*
X46000Y9585D02*
D03*
X18240Y15500D02*
D03*
X18000Y138061D02*
D03*
X80700Y126500D02*
D03*
X92500Y120500D02*
D03*
X138500Y68500D02*
D03*
X151500Y170500D02*
D03*
X167500Y173500D02*
D03*
X144500Y160500D02*
D03*
X151500Y161500D02*
D03*
X155500Y156500D02*
D03*
X132500Y202500D02*
D03*
X234500Y128500D02*
D03*
X239500Y131500D02*
D03*
X244500Y134500D02*
D03*
X229500Y135500D02*
D03*
X183500Y196500D02*
D03*
X204500Y39500D02*
D03*
X250417Y86013D02*
D03*
X209500Y161500D02*
D03*
X247500Y158500D02*
D03*
X222230Y151364D02*
D03*
X307500Y209500D02*
D03*
X252500Y146500D02*
D03*
X259500Y158500D02*
D03*
X229500Y168500D02*
D03*
X235500Y167500D02*
D03*
X200500Y224500D02*
D03*
X193500Y268500D02*
D03*
X180500Y261500D02*
D03*
X193500Y200500D02*
D03*
X210205Y172937D02*
D03*
X167500Y153500D02*
D03*
X164500Y147500D02*
D03*
X167500Y142500D02*
D03*
X172500Y139500D02*
D03*
X136500Y145086D02*
D03*
X170500Y203500D02*
D03*
X41500Y125500D02*
D03*
X74500Y72500D02*
D03*
X43359Y215922D02*
D03*
X117500Y215500D02*
D03*
X47500Y190500D02*
D03*
X37000Y185945D02*
D03*
X63500Y202500D02*
D03*
X60640Y161400D02*
D03*
X64142Y150635D02*
D03*
X72078Y189129D02*
D03*
X80500Y163500D02*
D03*
X76500Y145500D02*
D03*
X92500Y199500D02*
D03*
X22036Y218340D02*
D03*
X92500Y215500D02*
D03*
X121500Y150500D02*
D03*
X120838Y260871D02*
D03*
X110935Y45238D02*
D03*
X49500Y64500D02*
D03*
X28500Y145308D02*
D03*
X90500Y43500D02*
D03*
X11500Y38500D02*
D03*
X19500Y93500D02*
D03*
X41500Y92500D02*
D03*
M02*
