G04*
G04 #@! TF.GenerationSoftware,Altium Limited,Altium Designer,21.6.4 (81)*
G04*
G04 Layer_Physical_Order=4*
G04 Layer_Color=16711680*
%FSLAX25Y25*%
%MOIN*%
G70*
G04*
G04 #@! TF.SameCoordinates,D17E0072-19AB-4E61-9357-99CEFC96D61D*
G04*
G04*
G04 #@! TF.FilePolarity,Positive*
G04*
G01*
G75*
%ADD10C,0.01000*%
%ADD71C,0.02000*%
%ADD72C,0.02756*%
%ADD73O,0.06299X0.03937*%
%ADD74O,0.08268X0.03937*%
%ADD75R,0.07087X0.07087*%
%ADD76C,0.07087*%
%ADD77O,0.08661X0.05118*%
%ADD78C,0.05118*%
%ADD79R,0.06299X0.06299*%
%ADD80C,0.06299*%
%ADD81C,0.02362*%
G36*
X1000Y289500D02*
X330000D01*
Y0D01*
X0D01*
Y289500D01*
X500Y290000D01*
X1000Y289500D01*
D02*
G37*
%LPC*%
G36*
X142874Y274121D02*
X142126D01*
X141434Y273835D01*
X140905Y273306D01*
X140619Y272614D01*
Y271866D01*
X140905Y271175D01*
X141434Y270645D01*
X142126Y270359D01*
X142874D01*
X143566Y270645D01*
X144095Y271175D01*
X144381Y271866D01*
Y272614D01*
X144095Y273306D01*
X143566Y273835D01*
X142874Y274121D01*
D02*
G37*
G36*
X154374Y273621D02*
X153626D01*
X152934Y273335D01*
X152405Y272806D01*
X152119Y272114D01*
Y271366D01*
X152405Y270675D01*
X152934Y270145D01*
X153626Y269859D01*
X154374D01*
X155066Y270145D01*
X155595Y270675D01*
X155881Y271366D01*
Y272114D01*
X155595Y272806D01*
X155066Y273335D01*
X154374Y273621D01*
D02*
G37*
G36*
X303007Y273350D02*
X301993D01*
X301014Y273087D01*
X300136Y272581D01*
X299420Y271864D01*
X298913Y270986D01*
X298650Y270007D01*
Y268993D01*
X298913Y268014D01*
X299420Y267136D01*
X300136Y266420D01*
X301014Y265913D01*
X301993Y265650D01*
X303007D01*
X303986Y265913D01*
X304864Y266420D01*
X305580Y267136D01*
X306087Y268014D01*
X306350Y268993D01*
Y270007D01*
X306087Y270986D01*
X305580Y271864D01*
X304864Y272581D01*
X303986Y273087D01*
X303007Y273350D01*
D02*
G37*
G36*
X293007D02*
X291993D01*
X291014Y273087D01*
X290136Y272581D01*
X289420Y271864D01*
X288913Y270986D01*
X288650Y270007D01*
Y268993D01*
X288913Y268014D01*
X289420Y267136D01*
X290136Y266420D01*
X291014Y265913D01*
X291993Y265650D01*
X293007D01*
X293986Y265913D01*
X294864Y266420D01*
X295581Y267136D01*
X296087Y268014D01*
X296350Y268993D01*
Y270007D01*
X296087Y270986D01*
X295581Y271864D01*
X294864Y272581D01*
X293986Y273087D01*
X293007Y273350D01*
D02*
G37*
G36*
X283007D02*
X281993D01*
X281014Y273087D01*
X280136Y272581D01*
X279420Y271864D01*
X278913Y270986D01*
X278650Y270007D01*
Y268993D01*
X278913Y268014D01*
X279420Y267136D01*
X280136Y266420D01*
X281014Y265913D01*
X281993Y265650D01*
X283007D01*
X283986Y265913D01*
X284864Y266420D01*
X285580Y267136D01*
X286087Y268014D01*
X286350Y268993D01*
Y270007D01*
X286087Y270986D01*
X285580Y271864D01*
X284864Y272581D01*
X283986Y273087D01*
X283007Y273350D01*
D02*
G37*
G36*
X273007D02*
X271993D01*
X271014Y273087D01*
X270136Y272581D01*
X269420Y271864D01*
X268913Y270986D01*
X268650Y270007D01*
Y268993D01*
X268913Y268014D01*
X269420Y267136D01*
X270136Y266420D01*
X271014Y265913D01*
X271993Y265650D01*
X273007D01*
X273986Y265913D01*
X274864Y266420D01*
X275581Y267136D01*
X276087Y268014D01*
X276350Y268993D01*
Y270007D01*
X276087Y270986D01*
X275581Y271864D01*
X274864Y272581D01*
X273986Y273087D01*
X273007Y273350D01*
D02*
G37*
G36*
X254500Y278724D02*
X198086D01*
X197618Y278630D01*
X197221Y278365D01*
X196635Y277779D01*
X196370Y277382D01*
X196276Y276914D01*
Y236300D01*
X196370Y235832D01*
X196635Y235435D01*
X203276Y228793D01*
Y212007D01*
X193651Y202381D01*
X193126D01*
X192724Y202215D01*
X192224Y202537D01*
Y205493D01*
X197580Y210850D01*
X197846Y211247D01*
X197939Y211715D01*
Y220208D01*
X200349Y222619D01*
X200874D01*
X201566Y222905D01*
X202095Y223434D01*
X202381Y224126D01*
Y224874D01*
X202095Y225566D01*
X201566Y226095D01*
X200874Y226381D01*
X200126D01*
X199434Y226095D01*
X198905Y225566D01*
X198619Y224874D01*
Y224349D01*
X195850Y221580D01*
X195585Y221183D01*
X195492Y220715D01*
Y212222D01*
X190135Y206865D01*
X189870Y206468D01*
X189777Y206000D01*
Y169127D01*
X189277Y168970D01*
X188858Y169388D01*
X188167Y169674D01*
X187419D01*
X186727Y169388D01*
X186198Y168859D01*
X185912Y168167D01*
Y167419D01*
X186198Y166727D01*
X186727Y166198D01*
X187419Y165912D01*
X188167D01*
X188858Y166198D01*
X189388Y166727D01*
X189570Y167167D01*
X190134Y167222D01*
X190135Y167221D01*
X190721Y166635D01*
X191118Y166370D01*
X191586Y166277D01*
X193600D01*
X194068Y166370D01*
X194465Y166635D01*
X195449Y167619D01*
X195974D01*
X196666Y167905D01*
X197195Y168434D01*
X197481Y169126D01*
Y169874D01*
X197195Y170566D01*
X196666Y171095D01*
X195974Y171381D01*
X195226D01*
X194534Y171095D01*
X194005Y170566D01*
X193719Y169874D01*
Y169349D01*
X193093Y168723D01*
X192224D01*
Y198463D01*
X192724Y198785D01*
X193126Y198619D01*
X193874D01*
X194566Y198905D01*
X195095Y199434D01*
X195381Y200126D01*
Y200651D01*
X205365Y210635D01*
X205630Y211032D01*
X205724Y211500D01*
Y229300D01*
X205630Y229768D01*
X205365Y230165D01*
X198723Y236807D01*
Y257342D01*
X199223Y257476D01*
X199420Y257136D01*
X200136Y256419D01*
X201014Y255913D01*
X201993Y255650D01*
X203007D01*
X203986Y255913D01*
X204864Y256419D01*
X205580Y257136D01*
X205777Y257476D01*
X206276Y257342D01*
Y176007D01*
X184993Y154724D01*
X168937D01*
X168566Y155095D01*
X167874Y155381D01*
X167126D01*
X166434Y155095D01*
X165905Y154566D01*
X165619Y153874D01*
Y153126D01*
X165905Y152434D01*
X166434Y151905D01*
X167126Y151619D01*
X167874D01*
X168566Y151905D01*
X168937Y152277D01*
X185500D01*
X185968Y152370D01*
X186365Y152635D01*
X208365Y174635D01*
X208630Y175032D01*
X208723Y175500D01*
Y257342D01*
X209224Y257476D01*
X209420Y257136D01*
X210136Y256419D01*
X211014Y255913D01*
X211993Y255650D01*
X213007D01*
X213986Y255913D01*
X214864Y256419D01*
X215581Y257136D01*
X215776Y257476D01*
X216277Y257342D01*
Y179007D01*
X212196Y174926D01*
X210971D01*
X210503Y174833D01*
X210481Y174818D01*
X209831D01*
X209140Y174532D01*
X208611Y174003D01*
X208324Y173311D01*
Y172563D01*
X208611Y171871D01*
X209140Y171342D01*
X209831Y171056D01*
X210580D01*
X211271Y171342D01*
X211800Y171871D01*
X212052Y172479D01*
X212702D01*
X213171Y172572D01*
X213567Y172837D01*
X218365Y177635D01*
X218630Y178032D01*
X218724Y178500D01*
Y194429D01*
X219223Y194636D01*
X219434Y194425D01*
X220126Y194139D01*
X220874D01*
X221566Y194425D01*
X222095Y194954D01*
X222381Y195645D01*
Y196394D01*
X222095Y197085D01*
X221566Y197614D01*
X220874Y197901D01*
X220126D01*
X219434Y197614D01*
X219223Y197404D01*
X218724Y197611D01*
Y201909D01*
X219223Y202116D01*
X219434Y201905D01*
X220126Y201619D01*
X220874D01*
X221566Y201905D01*
X222095Y202434D01*
X222381Y203126D01*
Y203874D01*
X222095Y204566D01*
X221566Y205095D01*
X220874Y205381D01*
X220126D01*
X219434Y205095D01*
X219223Y204884D01*
X218724Y205091D01*
Y257342D01*
X219223Y257476D01*
X219420Y257136D01*
X220136Y256419D01*
X221014Y255913D01*
X221993Y255650D01*
X223007D01*
X223986Y255913D01*
X224864Y256419D01*
X225581Y257136D01*
X225777Y257476D01*
X226276Y257342D01*
Y176937D01*
X225905Y176566D01*
X225619Y175874D01*
Y175126D01*
X225905Y174434D01*
X226434Y173905D01*
X227126Y173619D01*
X227874D01*
X228566Y173905D01*
X229095Y174434D01*
X229381Y175126D01*
Y175874D01*
X229095Y176566D01*
X228724Y176937D01*
Y257342D01*
X229223Y257476D01*
X229420Y257136D01*
X230136Y256419D01*
X231014Y255913D01*
X231993Y255650D01*
X233007D01*
X233986Y255913D01*
X234864Y256419D01*
X235580Y257136D01*
X235776Y257476D01*
X236277Y257342D01*
Y217468D01*
X235776Y217368D01*
X235695Y217566D01*
X235166Y218095D01*
X234474Y218381D01*
X233726D01*
X233034Y218095D01*
X232505Y217566D01*
X232219Y216874D01*
Y216126D01*
X232505Y215434D01*
X233034Y214905D01*
X233726Y214619D01*
X234474D01*
X235166Y214905D01*
X235695Y215434D01*
X235776Y215632D01*
X236277Y215532D01*
Y177007D01*
X229651Y170381D01*
X229126D01*
X228434Y170095D01*
X227905Y169566D01*
X227619Y168874D01*
Y168126D01*
X227905Y167434D01*
X228434Y166905D01*
X229126Y166619D01*
X229874D01*
X230566Y166905D01*
X231095Y167434D01*
X231381Y168126D01*
Y168651D01*
X238365Y175635D01*
X238630Y176032D01*
X238723Y176500D01*
Y257342D01*
X239224Y257476D01*
X239420Y257136D01*
X240136Y256419D01*
X241014Y255913D01*
X241993Y255650D01*
X243007D01*
X243986Y255913D01*
X244864Y256419D01*
X245581Y257136D01*
X245777Y257476D01*
X246276Y257342D01*
Y180007D01*
X235651Y169381D01*
X235126D01*
X234435Y169095D01*
X233905Y168566D01*
X233619Y167874D01*
Y167126D01*
X233905Y166434D01*
X234435Y165905D01*
X235126Y165619D01*
X235874D01*
X236566Y165905D01*
X237095Y166434D01*
X237381Y167126D01*
Y167651D01*
X248365Y178635D01*
X248630Y179032D01*
X248724Y179500D01*
Y257342D01*
X249223Y257476D01*
X249420Y257136D01*
X250136Y256419D01*
X251014Y255913D01*
X251993Y255650D01*
X253007D01*
X253986Y255913D01*
X254864Y256419D01*
X255580Y257136D01*
X256087Y258014D01*
X256350Y258993D01*
Y260007D01*
X256087Y260986D01*
X255580Y261864D01*
X254864Y262580D01*
X253986Y263087D01*
X253007Y263350D01*
X251993D01*
X251014Y263087D01*
X250136Y262580D01*
X249420Y261864D01*
X249223Y261524D01*
X248724Y261658D01*
Y265934D01*
X248630Y266402D01*
X248365Y266799D01*
X246312Y268852D01*
X246350Y268993D01*
Y270007D01*
X246087Y270986D01*
X245581Y271864D01*
X244864Y272581D01*
X243986Y273087D01*
X243007Y273350D01*
X241993D01*
X241014Y273087D01*
X240136Y272581D01*
X239420Y271864D01*
X238913Y270986D01*
X238650Y270007D01*
Y268993D01*
X238913Y268014D01*
X239420Y267136D01*
X240136Y266420D01*
X241014Y265913D01*
X241993Y265650D01*
X243007D01*
X243986Y265913D01*
X244864Y266420D01*
X245074Y266630D01*
X246276Y265427D01*
Y261658D01*
X245777Y261524D01*
X245581Y261864D01*
X244864Y262580D01*
X243986Y263087D01*
X243007Y263350D01*
X241993D01*
X241014Y263087D01*
X240136Y262580D01*
X239420Y261864D01*
X239224Y261524D01*
X238723Y261658D01*
Y265500D01*
X238630Y265968D01*
X238365Y266365D01*
X236220Y268510D01*
X236350Y268993D01*
Y270007D01*
X236087Y270986D01*
X235580Y271864D01*
X234864Y272581D01*
X233986Y273087D01*
X233007Y273350D01*
X231993D01*
X231014Y273087D01*
X230136Y272581D01*
X229420Y271864D01*
X228913Y270986D01*
X228650Y270007D01*
Y268993D01*
X228913Y268014D01*
X229420Y267136D01*
X230136Y266420D01*
X231014Y265913D01*
X231993Y265650D01*
X233007D01*
X233986Y265913D01*
X234855Y266415D01*
X236277Y264993D01*
Y261658D01*
X235776Y261524D01*
X235580Y261864D01*
X234864Y262580D01*
X233986Y263087D01*
X233007Y263350D01*
X231993D01*
X231014Y263087D01*
X230136Y262580D01*
X229420Y261864D01*
X229223Y261524D01*
X228724Y261658D01*
Y264500D01*
X228630Y264968D01*
X228365Y265365D01*
X225952Y267779D01*
X226087Y268014D01*
X226350Y268993D01*
Y270007D01*
X226087Y270986D01*
X225581Y271864D01*
X224864Y272581D01*
X223986Y273087D01*
X223007Y273350D01*
X221993D01*
X221014Y273087D01*
X220136Y272581D01*
X219420Y271864D01*
X218913Y270986D01*
X218650Y270007D01*
Y268993D01*
X218913Y268014D01*
X219420Y267136D01*
X220136Y266420D01*
X221014Y265913D01*
X221993Y265650D01*
X223007D01*
X223986Y265913D01*
X224221Y266049D01*
X226276Y263993D01*
Y261658D01*
X225777Y261524D01*
X225581Y261864D01*
X224864Y262580D01*
X223986Y263087D01*
X223007Y263350D01*
X221993D01*
X221014Y263087D01*
X220136Y262580D01*
X219420Y261864D01*
X219223Y261524D01*
X218724Y261658D01*
Y264500D01*
X218630Y264968D01*
X218365Y265365D01*
X215951Y267779D01*
X216087Y268014D01*
X216350Y268993D01*
Y270007D01*
X216087Y270986D01*
X215581Y271864D01*
X214864Y272581D01*
X213986Y273087D01*
X213007Y273350D01*
X211993D01*
X211014Y273087D01*
X210136Y272581D01*
X209420Y271864D01*
X208913Y270986D01*
X208650Y270007D01*
Y268993D01*
X208913Y268014D01*
X209420Y267136D01*
X210136Y266420D01*
X211014Y265913D01*
X211993Y265650D01*
X213007D01*
X213986Y265913D01*
X214221Y266049D01*
X216277Y263993D01*
Y261658D01*
X215776Y261524D01*
X215581Y261864D01*
X214864Y262580D01*
X213986Y263087D01*
X213007Y263350D01*
X211993D01*
X211014Y263087D01*
X210136Y262580D01*
X209420Y261864D01*
X209224Y261524D01*
X208723Y261658D01*
Y263914D01*
X208630Y264382D01*
X208365Y264779D01*
X208349Y264795D01*
Y264874D01*
X208256Y265342D01*
X207991Y265739D01*
X206459Y267271D01*
X206459Y267271D01*
X205951Y267779D01*
X206087Y268014D01*
X206350Y268993D01*
Y270007D01*
X206087Y270986D01*
X205580Y271864D01*
X204864Y272581D01*
X203986Y273087D01*
X203007Y273350D01*
X201993D01*
X201014Y273087D01*
X200136Y272581D01*
X199420Y271864D01*
X199223Y271524D01*
X198723Y271658D01*
Y276276D01*
X253993D01*
X259049Y271221D01*
X258913Y270986D01*
X258650Y270007D01*
Y268993D01*
X258913Y268014D01*
X259420Y267136D01*
X260136Y266420D01*
X261014Y265913D01*
X261993Y265650D01*
X263007D01*
X263986Y265913D01*
X264864Y266420D01*
X265581Y267136D01*
X266087Y268014D01*
X266350Y268993D01*
Y270007D01*
X266087Y270986D01*
X265581Y271864D01*
X264864Y272581D01*
X263986Y273087D01*
X263007Y273350D01*
X261993D01*
X261014Y273087D01*
X260779Y272951D01*
X255365Y278365D01*
X254968Y278630D01*
X254500Y278724D01*
D02*
G37*
G36*
X253007Y273350D02*
X251993D01*
X251014Y273087D01*
X250136Y272581D01*
X249420Y271864D01*
X248913Y270986D01*
X248650Y270007D01*
Y268993D01*
X248913Y268014D01*
X249420Y267136D01*
X250136Y266420D01*
X251014Y265913D01*
X251993Y265650D01*
X253007D01*
X253986Y265913D01*
X254864Y266420D01*
X255580Y267136D01*
X256087Y268014D01*
X256350Y268993D01*
Y270007D01*
X256087Y270986D01*
X255580Y271864D01*
X254864Y272581D01*
X253986Y273087D01*
X253007Y273350D01*
D02*
G37*
G36*
X109685Y268767D02*
X108936D01*
X108245Y268480D01*
X107716Y267951D01*
X107429Y267260D01*
Y266512D01*
X107716Y265820D01*
X108245Y265291D01*
X108936Y265005D01*
X109685D01*
X110376Y265291D01*
X110905Y265820D01*
X111191Y266512D01*
Y267260D01*
X110905Y267951D01*
X110376Y268480D01*
X109685Y268767D01*
D02*
G37*
G36*
X62374Y267881D02*
X61626D01*
X60934Y267595D01*
X60405Y267066D01*
X60119Y266374D01*
Y265626D01*
X60405Y264934D01*
X60934Y264405D01*
X61626Y264119D01*
X62374D01*
X63066Y264405D01*
X63595Y264934D01*
X63881Y265626D01*
Y266374D01*
X63595Y267066D01*
X63066Y267595D01*
X62374Y267881D01*
D02*
G37*
G36*
X193874Y270381D02*
X193126D01*
X192434Y270095D01*
X191905Y269566D01*
X191619Y268874D01*
Y268349D01*
X185993Y262723D01*
X181937D01*
X181566Y263095D01*
X180874Y263381D01*
X180126D01*
X179434Y263095D01*
X178905Y262566D01*
X178619Y261874D01*
Y261126D01*
X178905Y260434D01*
X179434Y259905D01*
X180126Y259619D01*
X180874D01*
X181566Y259905D01*
X181937Y260277D01*
X186500D01*
X186968Y260370D01*
X187365Y260635D01*
X193349Y266619D01*
X193874D01*
X194566Y266905D01*
X195095Y267434D01*
X195381Y268126D01*
Y268874D01*
X195095Y269566D01*
X194566Y270095D01*
X193874Y270381D01*
D02*
G37*
G36*
X74374Y265881D02*
X73626D01*
X72934Y265595D01*
X72405Y265066D01*
X72119Y264374D01*
Y263626D01*
X72405Y262934D01*
X72934Y262405D01*
X73626Y262119D01*
X74374D01*
X75066Y262405D01*
X75595Y262934D01*
X75881Y263626D01*
Y264374D01*
X75595Y265066D01*
X75066Y265595D01*
X74374Y265881D01*
D02*
G37*
G36*
X316350Y273350D02*
X308650D01*
Y265650D01*
X314619D01*
X316277Y263993D01*
Y261658D01*
X315776Y261524D01*
X315581Y261864D01*
X314864Y262580D01*
X313986Y263087D01*
X313007Y263350D01*
X311993D01*
X311014Y263087D01*
X310136Y262580D01*
X309420Y261864D01*
X308913Y260986D01*
X308650Y260007D01*
Y258993D01*
X308913Y258014D01*
X309420Y257136D01*
X310136Y256419D01*
X311014Y255913D01*
X311993Y255650D01*
X313007D01*
X313986Y255913D01*
X314864Y256419D01*
X315581Y257136D01*
X315776Y257476D01*
X316277Y257342D01*
Y242007D01*
X236993Y162724D01*
X210937D01*
X210566Y163095D01*
X209874Y163381D01*
X209126D01*
X208435Y163095D01*
X207905Y162566D01*
X207619Y161874D01*
Y161126D01*
X207905Y160434D01*
X208435Y159905D01*
X209126Y159619D01*
X209874D01*
X210566Y159905D01*
X210937Y160276D01*
X237500D01*
X237968Y160370D01*
X238365Y160635D01*
X318365Y240635D01*
X318630Y241032D01*
X318724Y241500D01*
Y264500D01*
X318630Y264968D01*
X318365Y265365D01*
X316350Y267381D01*
Y273350D01*
D02*
G37*
G36*
X303007Y263350D02*
X301993D01*
X301014Y263087D01*
X300136Y262580D01*
X299420Y261864D01*
X298913Y260986D01*
X298650Y260007D01*
Y258993D01*
X298913Y258014D01*
X299420Y257136D01*
X300136Y256419D01*
X301014Y255913D01*
X301993Y255650D01*
X303007D01*
X303986Y255913D01*
X304864Y256419D01*
X305580Y257136D01*
X306087Y258014D01*
X306350Y258993D01*
Y260007D01*
X306087Y260986D01*
X305580Y261864D01*
X304864Y262580D01*
X303986Y263087D01*
X303007Y263350D01*
D02*
G37*
G36*
X293007D02*
X291993D01*
X291014Y263087D01*
X290136Y262580D01*
X289420Y261864D01*
X288913Y260986D01*
X288650Y260007D01*
Y258993D01*
X288913Y258014D01*
X289420Y257136D01*
X290136Y256419D01*
X291014Y255913D01*
X291993Y255650D01*
X293007D01*
X293986Y255913D01*
X294864Y256419D01*
X295581Y257136D01*
X296087Y258014D01*
X296350Y258993D01*
Y260007D01*
X296087Y260986D01*
X295581Y261864D01*
X294864Y262580D01*
X293986Y263087D01*
X293007Y263350D01*
D02*
G37*
G36*
X283007D02*
X281993D01*
X281014Y263087D01*
X280136Y262580D01*
X279420Y261864D01*
X278913Y260986D01*
X278650Y260007D01*
Y258993D01*
X278913Y258014D01*
X279420Y257136D01*
X280136Y256419D01*
X281014Y255913D01*
X281993Y255650D01*
X283007D01*
X283986Y255913D01*
X284864Y256419D01*
X285580Y257136D01*
X286087Y258014D01*
X286350Y258993D01*
Y260007D01*
X286087Y260986D01*
X285580Y261864D01*
X284864Y262580D01*
X283986Y263087D01*
X283007Y263350D01*
D02*
G37*
G36*
X273007D02*
X271993D01*
X271014Y263087D01*
X270136Y262580D01*
X269420Y261864D01*
X268913Y260986D01*
X268650Y260007D01*
Y258993D01*
X268913Y258014D01*
X269420Y257136D01*
X270136Y256419D01*
X271014Y255913D01*
X271993Y255650D01*
X273007D01*
X273986Y255913D01*
X274864Y256419D01*
X275581Y257136D01*
X276087Y258014D01*
X276350Y258993D01*
Y260007D01*
X276087Y260986D01*
X275581Y261864D01*
X274864Y262580D01*
X273986Y263087D01*
X273007Y263350D01*
D02*
G37*
G36*
X263007D02*
X261993D01*
X261014Y263087D01*
X260136Y262580D01*
X259420Y261864D01*
X258913Y260986D01*
X258650Y260007D01*
Y258993D01*
X258913Y258014D01*
X259420Y257136D01*
X260136Y256419D01*
X261014Y255913D01*
X261993Y255650D01*
X263007D01*
X263986Y255913D01*
X264864Y256419D01*
X265581Y257136D01*
X266087Y258014D01*
X266350Y258993D01*
Y260007D01*
X266087Y260986D01*
X265581Y261864D01*
X264864Y262580D01*
X263986Y263087D01*
X263007Y263350D01*
D02*
G37*
G36*
X68374Y255881D02*
X67626D01*
X66934Y255595D01*
X66405Y255066D01*
X66119Y254374D01*
Y253626D01*
X66405Y252934D01*
X66934Y252405D01*
X67626Y252119D01*
X68374D01*
X69066Y252405D01*
X69595Y252934D01*
X69881Y253626D01*
Y254374D01*
X69595Y255066D01*
X69066Y255595D01*
X68374Y255881D01*
D02*
G37*
G36*
X109685Y255381D02*
X108936D01*
X108245Y255095D01*
X107716Y254566D01*
X107429Y253874D01*
Y253126D01*
X107716Y252434D01*
X108245Y251905D01*
X108936Y251619D01*
X109685D01*
X110376Y251905D01*
X110905Y252434D01*
X111191Y253126D01*
Y253874D01*
X110905Y254566D01*
X110376Y255095D01*
X109685Y255381D01*
D02*
G37*
G36*
X155640Y250438D02*
X154891D01*
X154200Y250151D01*
X153671Y249622D01*
X153384Y248931D01*
Y248182D01*
X153671Y247491D01*
X154200Y246962D01*
X154891Y246675D01*
X155640D01*
X156331Y246962D01*
X156860Y247491D01*
X157146Y248182D01*
Y248931D01*
X156860Y249622D01*
X156331Y250151D01*
X155640Y250438D01*
D02*
G37*
G36*
X76374Y245881D02*
X75626D01*
X74934Y245595D01*
X74405Y245066D01*
X74119Y244374D01*
Y243626D01*
X74405Y242934D01*
X74934Y242405D01*
X75626Y242119D01*
X76374D01*
X77066Y242405D01*
X77595Y242934D01*
X77881Y243626D01*
Y244374D01*
X77595Y245066D01*
X77066Y245595D01*
X76374Y245881D01*
D02*
G37*
G36*
X60374Y243881D02*
X59626D01*
X58934Y243595D01*
X58405Y243066D01*
X58119Y242374D01*
Y241626D01*
X58405Y240934D01*
X58934Y240405D01*
X59626Y240119D01*
X60374D01*
X61066Y240405D01*
X61595Y240934D01*
X61881Y241626D01*
Y242374D01*
X61595Y243066D01*
X61066Y243595D01*
X60374Y243881D01*
D02*
G37*
G36*
X109685Y241995D02*
X108936D01*
X108245Y241709D01*
X107716Y241180D01*
X107429Y240488D01*
Y239740D01*
X107716Y239049D01*
X108245Y238520D01*
X108936Y238233D01*
X109685D01*
X110376Y238520D01*
X110905Y239049D01*
X111191Y239740D01*
Y240488D01*
X110905Y241180D01*
X110376Y241709D01*
X109685Y241995D01*
D02*
G37*
G36*
X30193Y235399D02*
X25862D01*
X25166Y235308D01*
X24516Y235039D01*
X23959Y234611D01*
X23531Y234054D01*
X23262Y233404D01*
X23171Y232708D01*
X23262Y232011D01*
X23531Y231362D01*
X23959Y230805D01*
X24516Y230377D01*
X25166Y230108D01*
X25862Y230016D01*
X30193D01*
X30889Y230108D01*
X31539Y230377D01*
X32096Y230805D01*
X32524Y231362D01*
X32793Y232011D01*
X32884Y232708D01*
X32793Y233404D01*
X32524Y234054D01*
X32096Y234611D01*
X31539Y235039D01*
X30889Y235308D01*
X30193Y235399D01*
D02*
G37*
G36*
X12752D02*
X10389D01*
X9693Y235308D01*
X9044Y235039D01*
X8486Y234611D01*
X8059Y234054D01*
X7790Y233404D01*
X7698Y232708D01*
X7790Y232011D01*
X8059Y231362D01*
X8486Y230805D01*
X9044Y230377D01*
X9693Y230108D01*
X10389Y230016D01*
X12752D01*
X13448Y230108D01*
X14097Y230377D01*
X14655Y230805D01*
X15082Y231362D01*
X15351Y232011D01*
X15443Y232708D01*
X15351Y233404D01*
X15082Y234054D01*
X14655Y234611D01*
X14097Y235039D01*
X13448Y235308D01*
X12752Y235399D01*
D02*
G37*
G36*
X113614Y224381D02*
X112866D01*
X112175Y224095D01*
X111645Y223566D01*
X111359Y222874D01*
Y222126D01*
X111645Y221434D01*
X112175Y220905D01*
X112866Y220619D01*
X113614D01*
X114306Y220905D01*
X114835Y221434D01*
X115121Y222126D01*
Y222874D01*
X114835Y223566D01*
X114306Y224095D01*
X113614Y224381D01*
D02*
G37*
G36*
X66874Y223428D02*
X66126D01*
X65434Y223142D01*
X64905Y222613D01*
X64619Y221921D01*
Y221173D01*
X64905Y220481D01*
X65434Y219952D01*
X66126Y219666D01*
X66874D01*
X67566Y219952D01*
X68095Y220481D01*
X68381Y221173D01*
Y221921D01*
X68095Y222613D01*
X67566Y223142D01*
X66874Y223428D01*
D02*
G37*
G36*
X146874Y220861D02*
X146126D01*
X145434Y220575D01*
X144905Y220046D01*
X144619Y219355D01*
Y218606D01*
X144905Y217915D01*
X145434Y217386D01*
X146126Y217099D01*
X146874D01*
X147566Y217386D01*
X148095Y217915D01*
X148381Y218606D01*
Y219355D01*
X148095Y220046D01*
X147566Y220575D01*
X146874Y220861D01*
D02*
G37*
G36*
X71574Y213981D02*
X70826D01*
X70134Y213695D01*
X69605Y213166D01*
X69319Y212474D01*
Y211726D01*
X69605Y211034D01*
X70134Y210505D01*
X70826Y210219D01*
X71574D01*
X72266Y210505D01*
X72795Y211034D01*
X73081Y211726D01*
Y212474D01*
X72795Y213166D01*
X72266Y213695D01*
X71574Y213981D01*
D02*
G37*
G36*
X307874Y211381D02*
X307126D01*
X306434Y211095D01*
X306063Y210723D01*
X292500D01*
X292032Y210630D01*
X291635Y210365D01*
X234119Y152849D01*
X223405D01*
X223295Y152959D01*
X222604Y153245D01*
X221856D01*
X221164Y152959D01*
X220635Y152430D01*
X220349Y151738D01*
Y150990D01*
X220635Y150299D01*
X221164Y149769D01*
X221856Y149483D01*
X222604D01*
X223295Y149769D01*
X223825Y150299D01*
X223867Y150402D01*
X234626D01*
X235094Y150495D01*
X235491Y150760D01*
X293007Y208277D01*
X306063D01*
X306434Y207905D01*
X307126Y207619D01*
X307874D01*
X308566Y207905D01*
X309095Y208434D01*
X309381Y209126D01*
Y209874D01*
X309095Y210566D01*
X308566Y211095D01*
X307874Y211381D01*
D02*
G37*
G36*
X113874Y208381D02*
X113126D01*
X112434Y208095D01*
X111905Y207566D01*
X111619Y206874D01*
Y206126D01*
X111905Y205434D01*
X112434Y204905D01*
X113126Y204619D01*
X113874D01*
X114566Y204905D01*
X115095Y205434D01*
X115381Y206126D01*
Y206874D01*
X115095Y207566D01*
X114566Y208095D01*
X113874Y208381D01*
D02*
G37*
G36*
X121213Y262752D02*
X120464D01*
X119773Y262466D01*
X119244Y261937D01*
X118957Y261245D01*
Y260497D01*
X119244Y259805D01*
X119773Y259276D01*
X120464Y258990D01*
X120989D01*
X131277Y248703D01*
Y203937D01*
X130905Y203566D01*
X130788Y203282D01*
X130198Y203165D01*
X128730Y204632D01*
Y233233D01*
X128637Y233701D01*
X128372Y234098D01*
X125381Y237089D01*
Y237614D01*
X125095Y238306D01*
X124566Y238835D01*
X123874Y239121D01*
X123126D01*
X122434Y238835D01*
X121905Y238306D01*
X121619Y237614D01*
Y237089D01*
X120128Y235598D01*
X119863Y235202D01*
X119770Y234733D01*
Y216597D01*
X119654Y216521D01*
X119095Y216566D01*
X118566Y217095D01*
X117874Y217381D01*
X117126D01*
X116434Y217095D01*
X116063Y216723D01*
X113807D01*
X110723Y219807D01*
Y225914D01*
X110630Y226382D01*
X110501Y226576D01*
X110752Y227077D01*
X113437D01*
X113905Y227170D01*
X114302Y227435D01*
X116404Y229537D01*
X116670Y229934D01*
X116689Y230032D01*
X116866Y230105D01*
X117395Y230634D01*
X117681Y231326D01*
Y232074D01*
X117395Y232766D01*
X116866Y233295D01*
X116174Y233581D01*
X115426D01*
X114734Y233295D01*
X114205Y232766D01*
X113919Y232074D01*
Y231326D01*
X114157Y230751D01*
X112930Y229523D01*
X42268D01*
X42168Y230024D01*
X42366Y230105D01*
X42895Y230634D01*
X43181Y231326D01*
Y232074D01*
X42895Y232766D01*
X42366Y233295D01*
X41674Y233581D01*
X40926D01*
X40234Y233295D01*
X39705Y232766D01*
X39419Y232074D01*
Y231326D01*
X39705Y230634D01*
X40234Y230105D01*
X40432Y230024D01*
X40332Y229523D01*
X31996D01*
X31527Y229430D01*
X31130Y229165D01*
X28259Y226294D01*
X27835Y226577D01*
X28019Y227019D01*
Y227846D01*
X27702Y228610D01*
X27118Y229194D01*
X26354Y229510D01*
X25527D01*
X24763Y229194D01*
X24179Y228610D01*
X23863Y227846D01*
Y227019D01*
X24179Y226255D01*
X24763Y225671D01*
X25527Y225355D01*
X26354D01*
X26796Y225538D01*
X27079Y225114D01*
X22187Y220221D01*
X21662D01*
X20970Y219935D01*
X20441Y219406D01*
X20155Y218714D01*
Y217966D01*
X20441Y217275D01*
X20970Y216745D01*
X21662Y216459D01*
X22410D01*
X23101Y216745D01*
X23630Y217275D01*
X23917Y217966D01*
Y218491D01*
X32502Y227077D01*
X52693D01*
X52884Y226615D01*
X43973Y217704D01*
X43733Y217803D01*
X42985D01*
X42293Y217517D01*
X41764Y216988D01*
X41478Y216296D01*
Y215548D01*
X41764Y214857D01*
X42293Y214328D01*
X42985Y214041D01*
X43733D01*
X44424Y214328D01*
X44953Y214857D01*
X45213Y215482D01*
X55007Y225276D01*
X108276D01*
Y219300D01*
X108370Y218832D01*
X108635Y218435D01*
X112227Y214842D01*
X112020Y214342D01*
X98755D01*
X94351Y218746D01*
X93954Y219011D01*
X93486Y219105D01*
X58401D01*
X57933Y219011D01*
X57536Y218746D01*
X48171Y209381D01*
X47646D01*
X46954Y209095D01*
X46433Y208574D01*
X38687D01*
X38623Y208637D01*
Y220393D01*
X40649Y222419D01*
X41174D01*
X41866Y222705D01*
X42395Y223234D01*
X42681Y223926D01*
Y224674D01*
X42395Y225366D01*
X41866Y225895D01*
X41174Y226181D01*
X40426D01*
X39734Y225895D01*
X39205Y225366D01*
X38919Y224674D01*
Y224149D01*
X36535Y221765D01*
X36270Y221368D01*
X36176Y220900D01*
Y208637D01*
X35805Y208266D01*
X35519Y207574D01*
Y206826D01*
X35805Y206134D01*
X36334Y205605D01*
X37026Y205319D01*
X37774D01*
X38466Y205605D01*
X38987Y206126D01*
X46733D01*
X46954Y205905D01*
X47646Y205619D01*
X48394D01*
X49085Y205905D01*
X49614Y206434D01*
X49901Y207126D01*
Y207651D01*
X58908Y216658D01*
X90402D01*
X90736Y216158D01*
X90619Y215874D01*
Y215126D01*
X90905Y214434D01*
X91435Y213905D01*
X92126Y213619D01*
X92651D01*
X95276Y210993D01*
Y169007D01*
X89887Y163617D01*
X89208D01*
X87460Y165365D01*
X87063Y165630D01*
X86595Y165724D01*
X83086D01*
X82618Y165630D01*
X82406Y165489D01*
X81265D01*
X80797Y165396D01*
X80775Y165381D01*
X80126D01*
X79435Y165095D01*
X78905Y164566D01*
X78619Y163874D01*
Y163126D01*
X78905Y162434D01*
X79435Y161905D01*
X80126Y161619D01*
X80874D01*
X81566Y161905D01*
X82095Y162434D01*
X82346Y163042D01*
X82851D01*
X83319Y163135D01*
X83531Y163277D01*
X86088D01*
X88142Y161223D01*
X88539Y160958D01*
X89007Y160865D01*
X90088D01*
X90556Y160958D01*
X90953Y161223D01*
X97365Y167635D01*
X97630Y168032D01*
X97724Y168500D01*
Y211500D01*
X98151Y211915D01*
X98248Y211895D01*
X118486D01*
X118955Y211988D01*
X119351Y212254D01*
X121858Y214761D01*
X122124Y215158D01*
X122217Y215626D01*
Y227730D01*
X122717Y228048D01*
X123126Y227879D01*
X123874D01*
X124566Y228165D01*
X125095Y228694D01*
X125381Y229386D01*
Y230134D01*
X125095Y230825D01*
X124566Y231355D01*
X123874Y231641D01*
X123126D01*
X122717Y231471D01*
X122217Y231790D01*
Y234226D01*
X123349Y235359D01*
X123651D01*
X126283Y232727D01*
Y204126D01*
X126376Y203658D01*
X126642Y203261D01*
X130649Y199254D01*
X131045Y198988D01*
X131514Y198895D01*
X136689D01*
X137157Y198988D01*
X137554Y199254D01*
X155349Y217049D01*
X155874D01*
X156566Y217336D01*
X156987Y217757D01*
X163063D01*
X163434Y217386D01*
X164126Y217099D01*
X164874D01*
X165566Y217386D01*
X166095Y217915D01*
X166381Y218606D01*
Y219355D01*
X166095Y220046D01*
X165566Y220575D01*
X164874Y220861D01*
X164126D01*
X163434Y220575D01*
X163063Y220204D01*
X156887D01*
X156566Y220525D01*
X155874Y220811D01*
X155126D01*
X154434Y220525D01*
X153905Y219996D01*
X153619Y219304D01*
Y218779D01*
X136182Y201342D01*
X134598D01*
X134264Y201842D01*
X134381Y202126D01*
Y202874D01*
X134095Y203566D01*
X133723Y203937D01*
Y249209D01*
X133630Y249678D01*
X133365Y250075D01*
X122720Y260720D01*
Y261245D01*
X122433Y261937D01*
X121904Y262466D01*
X121213Y262752D01*
D02*
G37*
G36*
X26354Y206046D02*
X25527D01*
X24763Y205729D01*
X24179Y205145D01*
X23863Y204381D01*
Y203554D01*
X24179Y202790D01*
X24763Y202206D01*
X25527Y201889D01*
X26354D01*
X27118Y202206D01*
X27702Y202790D01*
X28019Y203554D01*
Y204381D01*
X27702Y205145D01*
X27118Y205729D01*
X26354Y206046D01*
D02*
G37*
G36*
X170874Y205381D02*
X170126D01*
X169434Y205095D01*
X169063Y204724D01*
X159500D01*
X159032Y204630D01*
X158635Y204365D01*
X139635Y185365D01*
X139370Y184968D01*
X139277Y184500D01*
Y141500D01*
X139361Y141077D01*
X139338Y141048D01*
X138791Y140939D01*
X138052Y141678D01*
Y143977D01*
X138095Y144020D01*
X138381Y144712D01*
Y145460D01*
X138095Y146151D01*
X137566Y146680D01*
X136874Y146967D01*
X136126D01*
X135434Y146680D01*
X134905Y146151D01*
X134619Y145460D01*
Y144712D01*
X134905Y144020D01*
X135434Y143491D01*
X135605Y143421D01*
Y141172D01*
X135698Y140703D01*
X135963Y140306D01*
X174084Y102185D01*
X173893Y101724D01*
X172007D01*
X123381Y150349D01*
Y150874D01*
X123095Y151566D01*
X122566Y152095D01*
X121874Y152381D01*
X121126D01*
X120434Y152095D01*
X119905Y151566D01*
X119619Y150874D01*
Y150126D01*
X119905Y149434D01*
X120434Y148905D01*
X121126Y148619D01*
X121651D01*
X170635Y99635D01*
X171032Y99370D01*
X171500Y99277D01*
X227500D01*
X227968Y99370D01*
X228365Y99635D01*
X240365Y111635D01*
X240630Y112032D01*
X240723Y112500D01*
Y130063D01*
X241095Y130434D01*
X241381Y131126D01*
Y131874D01*
X241095Y132566D01*
X240566Y133095D01*
X239874Y133381D01*
X239126D01*
X238435Y133095D01*
X237905Y132566D01*
X237619Y131874D01*
Y131126D01*
X237905Y130434D01*
X238277Y130063D01*
Y113007D01*
X237881Y112611D01*
X237381Y112819D01*
Y112874D01*
X237095Y113566D01*
X236566Y114095D01*
X235874Y114381D01*
X235126D01*
X234435Y114095D01*
X233905Y113566D01*
X233619Y112874D01*
Y112126D01*
X233905Y111434D01*
X234435Y110905D01*
X235126Y110619D01*
X235181D01*
X235389Y110119D01*
X233509Y108239D01*
X232962Y108348D01*
X232939Y108377D01*
X233024Y108800D01*
Y125293D01*
X234349Y126619D01*
X234874D01*
X235566Y126905D01*
X236095Y127434D01*
X236381Y128126D01*
Y128874D01*
X236095Y129566D01*
X235566Y130095D01*
X234874Y130381D01*
X234126D01*
X233435Y130095D01*
X232905Y129566D01*
X232619Y128874D01*
Y128349D01*
X230935Y126665D01*
X230670Y126268D01*
X230576Y125800D01*
Y109307D01*
X229209Y107939D01*
X228662Y108048D01*
X228639Y108077D01*
X228724Y108500D01*
Y132407D01*
X229978Y133662D01*
X230566Y133905D01*
X231095Y134434D01*
X231381Y135126D01*
Y135874D01*
X231095Y136566D01*
X230566Y137095D01*
X229874Y137381D01*
X229126D01*
X228434Y137095D01*
X227905Y136566D01*
X227619Y135874D01*
Y135126D01*
X227725Y134870D01*
X226635Y133779D01*
X226370Y133382D01*
X226276Y132914D01*
Y109007D01*
X222993Y105724D01*
X178007D01*
X141724Y142007D01*
Y183993D01*
X160007Y202276D01*
X169063D01*
X169434Y201905D01*
X170126Y201619D01*
X170874D01*
X171566Y201905D01*
X172095Y202434D01*
X172381Y203126D01*
Y203874D01*
X172095Y204566D01*
X171566Y205095D01*
X170874Y205381D01*
D02*
G37*
G36*
X38774Y201981D02*
X38026D01*
X37334Y201695D01*
X36805Y201166D01*
X36519Y200474D01*
Y199726D01*
X36805Y199034D01*
X37334Y198505D01*
X38026Y198219D01*
X38774D01*
X39466Y198505D01*
X39995Y199034D01*
X40281Y199726D01*
Y200474D01*
X39995Y201166D01*
X39466Y201695D01*
X38774Y201981D01*
D02*
G37*
G36*
X30193Y201384D02*
X25862D01*
X25166Y201292D01*
X24516Y201023D01*
X23959Y200595D01*
X23531Y200038D01*
X23262Y199389D01*
X23171Y198692D01*
X23262Y197995D01*
X23531Y197346D01*
X23959Y196789D01*
X24516Y196361D01*
X25166Y196092D01*
X25862Y196001D01*
X30193D01*
X30889Y196092D01*
X31539Y196361D01*
X32096Y196789D01*
X32524Y197346D01*
X32793Y197995D01*
X32884Y198692D01*
X32793Y199389D01*
X32524Y200038D01*
X32096Y200595D01*
X31539Y201023D01*
X30889Y201292D01*
X30193Y201384D01*
D02*
G37*
G36*
X12752D02*
X10389D01*
X9693Y201292D01*
X9044Y201023D01*
X8486Y200595D01*
X8059Y200038D01*
X7790Y199389D01*
X7698Y198692D01*
X7790Y197995D01*
X8059Y197346D01*
X8486Y196789D01*
X9044Y196361D01*
X9693Y196092D01*
X10389Y196001D01*
X12752D01*
X13448Y196092D01*
X14097Y196361D01*
X14655Y196789D01*
X15082Y197346D01*
X15351Y197995D01*
X15443Y198692D01*
X15351Y199389D01*
X15082Y200038D01*
X14655Y200595D01*
X14097Y201023D01*
X13448Y201292D01*
X12752Y201384D01*
D02*
G37*
G36*
X162394Y198381D02*
X161645D01*
X160954Y198095D01*
X160425Y197566D01*
X160139Y196874D01*
Y196126D01*
X160425Y195434D01*
X160954Y194905D01*
X161645Y194619D01*
X162394D01*
X163085Y194905D01*
X163614Y195434D01*
X163901Y196126D01*
Y196874D01*
X163614Y197566D01*
X163085Y198095D01*
X162394Y198381D01*
D02*
G37*
G36*
X85614Y194381D02*
X84866D01*
X84175Y194095D01*
X83645Y193566D01*
X83359Y192874D01*
Y192126D01*
X83645Y191434D01*
X84175Y190905D01*
X84866Y190619D01*
X85614D01*
X86306Y190905D01*
X86835Y191434D01*
X87121Y192126D01*
Y192874D01*
X86835Y193566D01*
X86306Y194095D01*
X85614Y194381D01*
D02*
G37*
G36*
X47874Y192381D02*
X47126D01*
X46434Y192095D01*
X46063Y191724D01*
X42500D01*
X42032Y191630D01*
X41635Y191365D01*
X37884Y187615D01*
X37374Y187826D01*
X36626D01*
X35934Y187540D01*
X35405Y187011D01*
X35119Y186319D01*
Y185571D01*
X35362Y184984D01*
X35314Y184913D01*
X35221Y184444D01*
X35314Y183976D01*
X35579Y183579D01*
X35976Y183314D01*
X36444Y183221D01*
X36913Y183314D01*
X37309Y183579D01*
X43007Y189277D01*
X46063D01*
X46434Y188905D01*
X47126Y188619D01*
X47874D01*
X48566Y188905D01*
X49095Y189434D01*
X49381Y190126D01*
Y190874D01*
X49095Y191566D01*
X48566Y192095D01*
X47874Y192381D01*
D02*
G37*
G36*
X183874Y198381D02*
X183126D01*
X182434Y198095D01*
X181905Y197566D01*
X181619Y196874D01*
Y196349D01*
X172088Y186818D01*
X171664Y187101D01*
X171881Y187626D01*
Y188374D01*
X171595Y189066D01*
X171066Y189595D01*
X170374Y189881D01*
X169626D01*
X168934Y189595D01*
X168405Y189066D01*
X168119Y188374D01*
Y187626D01*
X168405Y186934D01*
X168934Y186405D01*
X169626Y186119D01*
X170374D01*
X170899Y186336D01*
X171182Y185912D01*
X152895Y167625D01*
X152395Y167833D01*
Y168835D01*
X152566Y168905D01*
X153095Y169434D01*
X153381Y170126D01*
Y170874D01*
X153095Y171566D01*
X152566Y172095D01*
X151874Y172381D01*
X151126D01*
X150434Y172095D01*
X149905Y171566D01*
X149619Y170874D01*
Y170126D01*
X149905Y169434D01*
X149948Y169392D01*
Y167678D01*
X144651Y162381D01*
X144126D01*
X143434Y162095D01*
X142905Y161566D01*
X142619Y160874D01*
Y160126D01*
X142905Y159434D01*
X143434Y158905D01*
X144126Y158619D01*
X144874D01*
X145566Y158905D01*
X146095Y159434D01*
X146381Y160126D01*
Y160651D01*
X150105Y164375D01*
X150605Y164167D01*
Y163165D01*
X150434Y163095D01*
X149905Y162566D01*
X149619Y161874D01*
Y161126D01*
X149905Y160434D01*
X150434Y159905D01*
X151126Y159619D01*
X151874D01*
X152566Y159905D01*
X153095Y160434D01*
X153381Y161126D01*
Y161874D01*
X153095Y162566D01*
X153052Y162608D01*
Y164322D01*
X183349Y194619D01*
X183874D01*
X184566Y194905D01*
X185095Y195434D01*
X185381Y196126D01*
Y196874D01*
X185095Y197566D01*
X184566Y198095D01*
X183874Y198381D01*
D02*
G37*
G36*
X162394Y189381D02*
X161645D01*
X160954Y189095D01*
X160425Y188566D01*
X160139Y187874D01*
Y187126D01*
X160425Y186434D01*
X160954Y185905D01*
X161645Y185619D01*
X162394D01*
X163085Y185905D01*
X163614Y186434D01*
X163901Y187126D01*
Y187874D01*
X163614Y188566D01*
X163085Y189095D01*
X162394Y189381D01*
D02*
G37*
G36*
X289854Y169999D02*
X289106D01*
X288414Y169713D01*
X287885Y169184D01*
X287599Y168492D01*
Y167744D01*
X287885Y167053D01*
X288414Y166524D01*
X289106Y166237D01*
X289854D01*
X290545Y166524D01*
X291074Y167053D01*
X291361Y167744D01*
Y168492D01*
X291074Y169184D01*
X290545Y169713D01*
X289854Y169999D01*
D02*
G37*
G36*
X48274Y165281D02*
X47526D01*
X46834Y164995D01*
X46305Y164466D01*
X46019Y163774D01*
Y163026D01*
X46305Y162334D01*
X46834Y161805D01*
X47526Y161519D01*
X48274D01*
X48966Y161805D01*
X49495Y162334D01*
X49781Y163026D01*
Y163774D01*
X49495Y164466D01*
X48966Y164995D01*
X48274Y165281D01*
D02*
G37*
G36*
X63874Y204381D02*
X63126D01*
X62435Y204095D01*
X61905Y203566D01*
X61619Y202874D01*
Y202126D01*
X61905Y201434D01*
X62435Y200905D01*
X62462Y200894D01*
X62635Y200635D01*
X65276Y197993D01*
Y168007D01*
X60551Y163281D01*
X60266D01*
X59575Y162995D01*
X59045Y162466D01*
X58759Y161774D01*
Y161026D01*
X59045Y160334D01*
X59575Y159805D01*
X60266Y159519D01*
X61014D01*
X61706Y159805D01*
X62235Y160334D01*
X62521Y161026D01*
Y161774D01*
X62516Y161786D01*
X67365Y166635D01*
X67630Y167032D01*
X67724Y167500D01*
Y198500D01*
X67630Y198968D01*
X67365Y199365D01*
X65154Y201577D01*
X65381Y202126D01*
Y202874D01*
X65095Y203566D01*
X64566Y204095D01*
X63874Y204381D01*
D02*
G37*
G36*
X289854Y162519D02*
X289106D01*
X288414Y162233D01*
X287885Y161704D01*
X287599Y161012D01*
Y160264D01*
X287885Y159572D01*
X288414Y159043D01*
X289106Y158757D01*
X289854D01*
X290545Y159043D01*
X291074Y159572D01*
X291361Y160264D01*
Y161012D01*
X291074Y161704D01*
X290545Y162233D01*
X289854Y162519D01*
D02*
G37*
G36*
X167874Y175381D02*
X167126D01*
X166434Y175095D01*
X165905Y174566D01*
X165619Y173874D01*
Y173349D01*
X156463Y164194D01*
X156198Y163797D01*
X156105Y163328D01*
Y159593D01*
X154729Y158217D01*
X154434Y158095D01*
X153905Y157566D01*
X153619Y156874D01*
Y156126D01*
X153905Y155434D01*
X154434Y154905D01*
X155126Y154619D01*
X155874D01*
X156566Y154905D01*
X157095Y155434D01*
X157381Y156126D01*
Y156874D01*
X157225Y157252D01*
X158194Y158221D01*
X158459Y158618D01*
X158552Y159086D01*
Y162822D01*
X167349Y171619D01*
X167874D01*
X168566Y171905D01*
X169095Y172434D01*
X169381Y173126D01*
Y173874D01*
X169095Y174566D01*
X168566Y175095D01*
X167874Y175381D01*
D02*
G37*
G36*
X28417Y157846D02*
X27669D01*
X26977Y157560D01*
X26448Y157031D01*
X26162Y156339D01*
Y155591D01*
X26448Y154899D01*
X26977Y154370D01*
X27669Y154084D01*
X28417D01*
X29109Y154370D01*
X29638Y154899D01*
X29924Y155591D01*
Y156339D01*
X29638Y157031D01*
X29109Y157560D01*
X28417Y157846D01*
D02*
G37*
G36*
X48134Y156381D02*
X47386D01*
X46694Y156095D01*
X46165Y155566D01*
X45879Y154874D01*
Y154126D01*
X46165Y153434D01*
X46694Y152905D01*
X47386Y152619D01*
X48134D01*
X48825Y152905D01*
X49355Y153434D01*
X49641Y154126D01*
Y154874D01*
X49355Y155566D01*
X48825Y156095D01*
X48134Y156381D01*
D02*
G37*
G36*
X72452Y191010D02*
X71704D01*
X71012Y190724D01*
X70483Y190195D01*
X70197Y189503D01*
Y188755D01*
X70483Y188064D01*
X70854Y187692D01*
Y156585D01*
X66711Y152441D01*
X64724D01*
X64707Y152437D01*
X64517Y152516D01*
X63768D01*
X63077Y152230D01*
X62548Y151701D01*
X62261Y151010D01*
Y150261D01*
X62548Y149570D01*
X63077Y149041D01*
X63768Y148754D01*
X64517D01*
X65208Y149041D01*
X65737Y149570D01*
X65913Y149994D01*
X67217D01*
X67686Y150087D01*
X68082Y150352D01*
X72943Y155213D01*
X73208Y155610D01*
X73301Y156078D01*
Y187692D01*
X73672Y188064D01*
X73959Y188755D01*
Y189503D01*
X73672Y190195D01*
X73143Y190724D01*
X72452Y191010D01*
D02*
G37*
G36*
X320701Y155381D02*
X319952D01*
X319261Y155095D01*
X318732Y154566D01*
X318445Y153874D01*
Y153126D01*
X318732Y152434D01*
X319261Y151905D01*
X319952Y151619D01*
X320701D01*
X321392Y151905D01*
X321921Y152434D01*
X322207Y153126D01*
Y153874D01*
X321921Y154566D01*
X321392Y155095D01*
X320701Y155381D01*
D02*
G37*
G36*
X247874Y160381D02*
X247126D01*
X246434Y160095D01*
X245905Y159566D01*
X245619Y158874D01*
Y158349D01*
X235993Y148723D01*
X165937D01*
X165566Y149095D01*
X164874Y149381D01*
X164126D01*
X163434Y149095D01*
X162905Y148566D01*
X162619Y147874D01*
Y147126D01*
X162905Y146434D01*
X163434Y145905D01*
X164126Y145619D01*
X164874D01*
X165566Y145905D01*
X165937Y146276D01*
X236500D01*
X236968Y146370D01*
X237365Y146635D01*
X247349Y156619D01*
X247874D01*
X248566Y156905D01*
X249095Y157434D01*
X249381Y158126D01*
Y158874D01*
X249095Y159566D01*
X248566Y160095D01*
X247874Y160381D01*
D02*
G37*
G36*
X37500Y148723D02*
X31086D01*
X30618Y148630D01*
X30221Y148365D01*
X28995Y147139D01*
X28874Y147189D01*
X28126D01*
X27434Y146902D01*
X26905Y146373D01*
X26619Y145682D01*
Y144933D01*
X26905Y144242D01*
X27434Y143713D01*
X28126Y143427D01*
X28874D01*
X29566Y143713D01*
X30095Y144242D01*
X30381Y144933D01*
Y145065D01*
X31593Y146276D01*
X36993D01*
X44276Y138993D01*
Y125161D01*
X43777Y124954D01*
X43381Y125349D01*
Y125874D01*
X43095Y126566D01*
X42566Y127095D01*
X41874Y127381D01*
X41126D01*
X40434Y127095D01*
X39905Y126566D01*
X39619Y125874D01*
Y125126D01*
X39905Y124434D01*
X40434Y123905D01*
X41126Y123619D01*
X41651D01*
X73277Y91993D01*
Y73937D01*
X72905Y73566D01*
X72619Y72874D01*
Y72126D01*
X72905Y71434D01*
X73435Y70905D01*
X74126Y70619D01*
X74874D01*
X75566Y70905D01*
X76095Y71434D01*
X76381Y72126D01*
Y72874D01*
X76095Y73566D01*
X75723Y73937D01*
Y92500D01*
X75630Y92968D01*
X75365Y93365D01*
X67954Y100777D01*
X68161Y101277D01*
X93993D01*
X97076Y98193D01*
Y51807D01*
X90651Y45381D01*
X90126D01*
X89434Y45095D01*
X88905Y44566D01*
X88619Y43874D01*
Y43126D01*
X88905Y42434D01*
X89434Y41905D01*
X90126Y41619D01*
X90874D01*
X91566Y41905D01*
X92095Y42434D01*
X92381Y43126D01*
Y43651D01*
X99165Y50435D01*
X99430Y50832D01*
X99524Y51300D01*
Y86372D01*
X99985Y86563D01*
X119274Y67274D01*
X119837Y66899D01*
X120500Y66767D01*
X137769D01*
X138126Y66619D01*
X138874D01*
X139566Y66905D01*
X140095Y67434D01*
X140381Y68126D01*
Y68874D01*
X140095Y69566D01*
X139566Y70095D01*
X138874Y70381D01*
X138126D01*
X137769Y70233D01*
X121218D01*
X102233Y89218D01*
Y112500D01*
X102101Y113163D01*
X101726Y113726D01*
X94243Y121209D01*
X94095Y121566D01*
X93566Y122095D01*
X92874Y122381D01*
X92126D01*
X91435Y122095D01*
X90905Y121566D01*
X90619Y120874D01*
Y120126D01*
X90905Y119434D01*
X91435Y118905D01*
X91791Y118757D01*
X98767Y111782D01*
Y100617D01*
X98305Y100426D01*
X95365Y103365D01*
X94968Y103630D01*
X94500Y103724D01*
X68007D01*
X46723Y125007D01*
Y139500D01*
X46630Y139968D01*
X46365Y140365D01*
X38365Y148365D01*
X37968Y148630D01*
X37500Y148723D01*
D02*
G37*
G36*
X272874Y149129D02*
X272126D01*
X271434Y148843D01*
X270905Y148314D01*
X270619Y147622D01*
Y146874D01*
X270905Y146182D01*
X271434Y145653D01*
X272126Y145367D01*
X272874D01*
X273566Y145653D01*
X274095Y146182D01*
X274381Y146874D01*
Y147622D01*
X274095Y148314D01*
X273566Y148843D01*
X272874Y149129D01*
D02*
G37*
G36*
X113614Y147381D02*
X112866D01*
X112175Y147095D01*
X111645Y146566D01*
X111359Y145874D01*
Y145126D01*
X111645Y144434D01*
X112175Y143905D01*
X112866Y143619D01*
X113614D01*
X114306Y143905D01*
X114835Y144434D01*
X115121Y145126D01*
Y145874D01*
X114835Y146566D01*
X114306Y147095D01*
X113614Y147381D01*
D02*
G37*
G36*
X92874Y201381D02*
X92126D01*
X91435Y201095D01*
X90905Y200566D01*
X90619Y199874D01*
Y199126D01*
X90905Y198434D01*
X91277Y198063D01*
Y183007D01*
X75635Y167365D01*
X75370Y166968D01*
X75276Y166500D01*
Y146937D01*
X74905Y146566D01*
X74619Y145874D01*
Y145126D01*
X74905Y144434D01*
X75434Y143905D01*
X76126Y143619D01*
X76874D01*
X77566Y143905D01*
X78095Y144434D01*
X78381Y145126D01*
Y145874D01*
X78095Y146566D01*
X77723Y146937D01*
Y165993D01*
X93365Y181635D01*
X93630Y182032D01*
X93723Y182500D01*
Y198063D01*
X94095Y198434D01*
X94381Y199126D01*
Y199874D01*
X94095Y200566D01*
X93566Y201095D01*
X92874Y201381D01*
D02*
G37*
G36*
X259874Y160381D02*
X259126D01*
X258435Y160095D01*
X257905Y159566D01*
X257619Y158874D01*
Y158126D01*
X257905Y157434D01*
X258277Y157063D01*
Y148007D01*
X250993Y140724D01*
X173937D01*
X173566Y141095D01*
X172874Y141381D01*
X172126D01*
X171434Y141095D01*
X170905Y140566D01*
X170619Y139874D01*
Y139126D01*
X170905Y138434D01*
X171434Y137905D01*
X172126Y137619D01*
X172874D01*
X173566Y137905D01*
X173937Y138277D01*
X251500D01*
X251968Y138370D01*
X252365Y138635D01*
X260365Y146635D01*
X260630Y147032D01*
X260723Y147500D01*
Y157063D01*
X261095Y157434D01*
X261381Y158126D01*
Y158874D01*
X261095Y159566D01*
X260566Y160095D01*
X259874Y160381D01*
D02*
G37*
G36*
X252874Y148381D02*
X252126D01*
X251434Y148095D01*
X250905Y147566D01*
X250619Y146874D01*
Y146349D01*
X248993Y144723D01*
X170086D01*
X169618Y144630D01*
X169406Y144489D01*
X168265D01*
X167797Y144396D01*
X167775Y144381D01*
X167126D01*
X166434Y144095D01*
X165905Y143566D01*
X165619Y142874D01*
Y142126D01*
X165905Y141434D01*
X166434Y140905D01*
X167126Y140619D01*
X167874D01*
X168566Y140905D01*
X169095Y141434D01*
X169346Y142042D01*
X169851D01*
X170319Y142135D01*
X170531Y142277D01*
X249500D01*
X249968Y142370D01*
X250365Y142635D01*
X252349Y144619D01*
X252874D01*
X253566Y144905D01*
X254095Y145434D01*
X254381Y146126D01*
Y146874D01*
X254095Y147566D01*
X253566Y148095D01*
X252874Y148381D01*
D02*
G37*
G36*
X94874Y142121D02*
X94126D01*
X93435Y141835D01*
X92905Y141306D01*
X92619Y140614D01*
Y139866D01*
X92905Y139175D01*
X93435Y138645D01*
X94126Y138359D01*
X94874D01*
X95566Y138645D01*
X96095Y139175D01*
X96381Y139866D01*
Y140614D01*
X96095Y141306D01*
X95566Y141835D01*
X94874Y142121D01*
D02*
G37*
G36*
X18374Y139942D02*
X17626D01*
X16935Y139656D01*
X16405Y139127D01*
X16119Y138435D01*
Y137687D01*
X16405Y136995D01*
X16935Y136466D01*
X17626Y136180D01*
X18374D01*
X19066Y136466D01*
X19595Y136995D01*
X19881Y137687D01*
Y138435D01*
X19595Y139127D01*
X19066Y139656D01*
X18374Y139942D01*
D02*
G37*
G36*
X206574Y137681D02*
X205826D01*
X205134Y137395D01*
X204605Y136866D01*
X204319Y136174D01*
Y135426D01*
X204605Y134734D01*
X205134Y134205D01*
X205826Y133919D01*
X206574D01*
X207266Y134205D01*
X207795Y134734D01*
X208081Y135426D01*
Y136174D01*
X207795Y136866D01*
X207266Y137395D01*
X206574Y137681D01*
D02*
G37*
G36*
X179574Y133881D02*
X178826D01*
X178134Y133595D01*
X177605Y133066D01*
X177319Y132374D01*
Y131626D01*
X177605Y130934D01*
X178134Y130405D01*
X178826Y130119D01*
X179574D01*
X180266Y130405D01*
X180795Y130934D01*
X181081Y131626D01*
Y132374D01*
X180795Y133066D01*
X180266Y133595D01*
X179574Y133881D01*
D02*
G37*
G36*
X81074Y128381D02*
X80326D01*
X79634Y128095D01*
X79105Y127566D01*
X78819Y126874D01*
Y126126D01*
X79105Y125434D01*
X79634Y124905D01*
X80326Y124619D01*
X81074D01*
X81766Y124905D01*
X82295Y125434D01*
X82581Y126126D01*
Y126874D01*
X82295Y127566D01*
X81766Y128095D01*
X81074Y128381D01*
D02*
G37*
G36*
X180074Y127381D02*
X179326D01*
X178634Y127095D01*
X178105Y126566D01*
X177819Y125874D01*
Y125126D01*
X178105Y124434D01*
X178634Y123905D01*
X179326Y123619D01*
X180074D01*
X180766Y123905D01*
X181295Y124434D01*
X181581Y125126D01*
Y125874D01*
X181295Y126566D01*
X180766Y127095D01*
X180074Y127381D01*
D02*
G37*
G36*
X217134Y125641D02*
X216386D01*
X215694Y125355D01*
X215165Y124825D01*
X214879Y124134D01*
Y123386D01*
X215165Y122694D01*
X215694Y122165D01*
X216386Y121879D01*
X217134D01*
X217825Y122165D01*
X218355Y122694D01*
X218641Y123386D01*
Y124134D01*
X218355Y124825D01*
X217825Y125355D01*
X217134Y125641D01*
D02*
G37*
G36*
X235874Y123381D02*
X235126D01*
X234435Y123095D01*
X233905Y122566D01*
X233619Y121874D01*
Y121126D01*
X233905Y120434D01*
X234435Y119905D01*
X235126Y119619D01*
X235874D01*
X236566Y119905D01*
X237095Y120434D01*
X237381Y121126D01*
Y121874D01*
X237095Y122566D01*
X236566Y123095D01*
X235874Y123381D01*
D02*
G37*
G36*
X189674Y119981D02*
X188926D01*
X188234Y119695D01*
X187705Y119166D01*
X187419Y118474D01*
Y117726D01*
X187705Y117034D01*
X188234Y116505D01*
X188926Y116219D01*
X189674D01*
X190366Y116505D01*
X190895Y117034D01*
X191181Y117726D01*
Y118474D01*
X190895Y119166D01*
X190366Y119695D01*
X189674Y119981D01*
D02*
G37*
G36*
X180074Y119901D02*
X179326D01*
X178634Y119614D01*
X178105Y119085D01*
X177819Y118394D01*
Y117646D01*
X178105Y116954D01*
X178634Y116425D01*
X179326Y116139D01*
X180074D01*
X180766Y116425D01*
X181295Y116954D01*
X181581Y117646D01*
Y118394D01*
X181295Y119085D01*
X180766Y119614D01*
X180074Y119901D01*
D02*
G37*
G36*
X170974Y119641D02*
X170226D01*
X169534Y119355D01*
X169005Y118825D01*
X168719Y118134D01*
Y117386D01*
X169005Y116694D01*
X169534Y116165D01*
X170226Y115879D01*
X170974D01*
X171666Y116165D01*
X172195Y116694D01*
X172481Y117386D01*
Y118134D01*
X172195Y118825D01*
X171666Y119355D01*
X170974Y119641D01*
D02*
G37*
G36*
X81074Y119326D02*
X80326D01*
X79634Y119040D01*
X79105Y118510D01*
X78819Y117819D01*
Y117071D01*
X79105Y116379D01*
X79634Y115850D01*
X80326Y115564D01*
X81074D01*
X81766Y115850D01*
X82295Y116379D01*
X82581Y117071D01*
Y117819D01*
X82295Y118510D01*
X81766Y119040D01*
X81074Y119326D01*
D02*
G37*
G36*
X33374Y118820D02*
X32626D01*
X31934Y118534D01*
X31405Y118005D01*
X31119Y117313D01*
Y116565D01*
X31405Y115873D01*
X31934Y115344D01*
X32626Y115058D01*
X33374D01*
X34066Y115344D01*
X34595Y115873D01*
X34881Y116565D01*
Y117313D01*
X34595Y118005D01*
X34066Y118534D01*
X33374Y118820D01*
D02*
G37*
G36*
X286874Y118381D02*
X286126D01*
X285435Y118095D01*
X284905Y117566D01*
X284619Y116874D01*
Y116126D01*
X284905Y115434D01*
X285435Y114905D01*
X286126Y114619D01*
X286874D01*
X287566Y114905D01*
X288095Y115434D01*
X288381Y116126D01*
Y116874D01*
X288095Y117566D01*
X287566Y118095D01*
X286874Y118381D01*
D02*
G37*
G36*
X115614Y117381D02*
X114866D01*
X114175Y117095D01*
X113645Y116566D01*
X113359Y115874D01*
Y115126D01*
X113645Y114434D01*
X114175Y113905D01*
X114866Y113619D01*
X115614D01*
X116306Y113905D01*
X116835Y114434D01*
X117121Y115126D01*
Y115874D01*
X116835Y116566D01*
X116306Y117095D01*
X115614Y117381D01*
D02*
G37*
G36*
X19374Y104942D02*
X18626D01*
X17934Y104656D01*
X17405Y104127D01*
X17119Y103435D01*
Y102687D01*
X17405Y101995D01*
X17934Y101466D01*
X18626Y101180D01*
X19374D01*
X20066Y101466D01*
X20595Y101995D01*
X20881Y102687D01*
Y103435D01*
X20595Y104127D01*
X20066Y104656D01*
X19374Y104942D01*
D02*
G37*
G36*
X321251Y103078D02*
X317707D01*
X316857Y102966D01*
X316064Y102638D01*
X315383Y102116D01*
X314861Y101435D01*
X314532Y100642D01*
X314420Y99791D01*
X314532Y98940D01*
X314861Y98148D01*
X315383Y97467D01*
X316064Y96944D01*
X316857Y96616D01*
X317707Y96504D01*
X321251D01*
X322101Y96616D01*
X322894Y96944D01*
X323575Y97467D01*
X324097Y98148D01*
X324426Y98940D01*
X324538Y99791D01*
X324426Y100642D01*
X324097Y101435D01*
X323575Y102116D01*
X322894Y102638D01*
X322101Y102966D01*
X321251Y103078D01*
D02*
G37*
G36*
X301574Y95781D02*
X300826D01*
X300134Y95495D01*
X299605Y94966D01*
X299319Y94274D01*
Y93526D01*
X299605Y92834D01*
X300134Y92305D01*
X300826Y92019D01*
X301574D01*
X302266Y92305D01*
X302795Y92834D01*
X303081Y93526D01*
Y94274D01*
X302795Y94966D01*
X302266Y95495D01*
X301574Y95781D01*
D02*
G37*
G36*
X309396Y98424D02*
X308538D01*
X307709Y98202D01*
X306966Y97773D01*
X306359Y97166D01*
X305930Y96423D01*
X305708Y95594D01*
Y94736D01*
X305930Y93907D01*
X306359Y93164D01*
X306966Y92557D01*
X307709Y92128D01*
X308538Y91906D01*
X309396D01*
X310225Y92128D01*
X310968Y92557D01*
X311575Y93164D01*
X312004Y93907D01*
X312226Y94736D01*
Y95594D01*
X312004Y96423D01*
X311575Y97166D01*
X310968Y97773D01*
X310225Y98202D01*
X309396Y98424D01*
D02*
G37*
G36*
X93874Y95121D02*
X93126D01*
X92435Y94835D01*
X91905Y94306D01*
X91619Y93614D01*
Y92866D01*
X91905Y92175D01*
X92435Y91645D01*
X93126Y91359D01*
X93874D01*
X94566Y91645D01*
X95095Y92175D01*
X95381Y92866D01*
Y93614D01*
X95095Y94306D01*
X94566Y94835D01*
X93874Y95121D01*
D02*
G37*
G36*
X19874Y95381D02*
X19126D01*
X18435Y95095D01*
X17905Y94566D01*
X17619Y93874D01*
Y93126D01*
X17905Y92434D01*
X18435Y91905D01*
X19126Y91619D01*
X19659D01*
X20032Y91370D01*
X20500Y91277D01*
X40063D01*
X40434Y90905D01*
X41126Y90619D01*
X41874D01*
X42566Y90905D01*
X43095Y91434D01*
X43381Y92126D01*
Y92874D01*
X43095Y93566D01*
X42566Y94095D01*
X41874Y94381D01*
X41126D01*
X40434Y94095D01*
X40063Y93723D01*
X21381D01*
Y93874D01*
X21095Y94566D01*
X20566Y95095D01*
X19874Y95381D01*
D02*
G37*
G36*
X223874Y93901D02*
X223126D01*
X222434Y93614D01*
X221905Y93085D01*
X221619Y92394D01*
Y91645D01*
X221905Y90954D01*
X222434Y90425D01*
X223126Y90139D01*
X223874D01*
X224566Y90425D01*
X225095Y90954D01*
X225381Y91645D01*
Y92394D01*
X225095Y93085D01*
X224566Y93614D01*
X223874Y93901D01*
D02*
G37*
G36*
X214874D02*
X214126D01*
X213435Y93614D01*
X212905Y93085D01*
X212619Y92394D01*
Y91645D01*
X212905Y90954D01*
X213435Y90425D01*
X214126Y90139D01*
X214874D01*
X215566Y90425D01*
X216095Y90954D01*
X216381Y91645D01*
Y92394D01*
X216095Y93085D01*
X215566Y93614D01*
X214874Y93901D01*
D02*
G37*
G36*
X205874D02*
X205126D01*
X204434Y93614D01*
X203905Y93085D01*
X203619Y92394D01*
Y91645D01*
X203905Y90954D01*
X204434Y90425D01*
X205126Y90139D01*
X205874D01*
X206566Y90425D01*
X207095Y90954D01*
X207381Y91645D01*
Y92394D01*
X207095Y93085D01*
X206566Y93614D01*
X205874Y93901D01*
D02*
G37*
G36*
X196874D02*
X196126D01*
X195434Y93614D01*
X194905Y93085D01*
X194619Y92394D01*
Y91645D01*
X194905Y90954D01*
X195434Y90425D01*
X196126Y90139D01*
X196874D01*
X197566Y90425D01*
X198095Y90954D01*
X198381Y91645D01*
Y92394D01*
X198095Y93085D01*
X197566Y93614D01*
X196874Y93901D01*
D02*
G37*
G36*
X281874Y92641D02*
X281126D01*
X280434Y92355D01*
X279905Y91825D01*
X279619Y91134D01*
Y90386D01*
X279905Y89694D01*
X280434Y89165D01*
X281126Y88879D01*
X281874D01*
X282566Y89165D01*
X283095Y89694D01*
X283381Y90386D01*
Y91134D01*
X283095Y91825D01*
X282566Y92355D01*
X281874Y92641D01*
D02*
G37*
G36*
X271874D02*
X271126D01*
X270434Y92355D01*
X269905Y91825D01*
X269619Y91134D01*
Y90386D01*
X269905Y89694D01*
X270434Y89165D01*
X271126Y88879D01*
X271874D01*
X272566Y89165D01*
X273095Y89694D01*
X273381Y90386D01*
Y91134D01*
X273095Y91825D01*
X272566Y92355D01*
X271874Y92641D01*
D02*
G37*
G36*
X250792Y87894D02*
X250043D01*
X249352Y87608D01*
X248981Y87237D01*
X244213D01*
X243745Y87144D01*
X243348Y86878D01*
X203635Y47165D01*
X203370Y46768D01*
X203276Y46300D01*
Y40937D01*
X202905Y40566D01*
X202619Y39874D01*
Y39126D01*
X202905Y38434D01*
X203434Y37905D01*
X204126Y37619D01*
X204874D01*
X205566Y37905D01*
X206095Y38434D01*
X206381Y39126D01*
Y39874D01*
X206095Y40566D01*
X205724Y40937D01*
Y45793D01*
X244720Y84790D01*
X248981D01*
X249352Y84418D01*
X250043Y84132D01*
X250792D01*
X251483Y84418D01*
X252012Y84948D01*
X252298Y85639D01*
Y86387D01*
X252012Y87079D01*
X251483Y87608D01*
X250792Y87894D01*
D02*
G37*
G36*
X84874Y87641D02*
X84126D01*
X83434Y87355D01*
X82905Y86825D01*
X82619Y86134D01*
Y85386D01*
X82905Y84694D01*
X83434Y84165D01*
X84126Y83879D01*
X84874D01*
X85566Y84165D01*
X86095Y84694D01*
X86381Y85386D01*
Y86134D01*
X86095Y86825D01*
X85566Y87355D01*
X84874Y87641D01*
D02*
G37*
G36*
X34374Y83820D02*
X33626D01*
X32934Y83534D01*
X32405Y83005D01*
X32119Y82313D01*
Y81565D01*
X32405Y80873D01*
X32934Y80344D01*
X33626Y80058D01*
X34374D01*
X35066Y80344D01*
X35595Y80873D01*
X35881Y81565D01*
Y82313D01*
X35595Y83005D01*
X35066Y83534D01*
X34374Y83820D01*
D02*
G37*
G36*
X309396Y79330D02*
X308538D01*
X307709Y79108D01*
X306966Y78679D01*
X306359Y78072D01*
X305930Y77329D01*
X305708Y76500D01*
Y75642D01*
X305930Y74813D01*
X306359Y74070D01*
X306966Y73463D01*
X307709Y73034D01*
X308538Y72812D01*
X309396D01*
X310225Y73034D01*
X310968Y73463D01*
X311575Y74070D01*
X312004Y74813D01*
X312226Y75642D01*
Y76500D01*
X312004Y77329D01*
X311575Y78072D01*
X310968Y78679D01*
X310225Y79108D01*
X309396Y79330D01*
D02*
G37*
G36*
X321251Y74732D02*
X317707D01*
X316857Y74620D01*
X316064Y74292D01*
X315383Y73769D01*
X314861Y73089D01*
X314532Y72296D01*
X314420Y71445D01*
X314532Y70594D01*
X314861Y69801D01*
X315383Y69121D01*
X316064Y68598D01*
X316857Y68270D01*
X317707Y68158D01*
X321251D01*
X322101Y68270D01*
X322894Y68598D01*
X323575Y69121D01*
X324097Y69801D01*
X324426Y70594D01*
X324538Y71445D01*
X324426Y72296D01*
X324097Y73089D01*
X323575Y73769D01*
X322894Y74292D01*
X322101Y74620D01*
X321251Y74732D01*
D02*
G37*
G36*
X19374Y68942D02*
X18626D01*
X17934Y68656D01*
X17405Y68127D01*
X17119Y67435D01*
Y66687D01*
X17405Y65995D01*
X17934Y65466D01*
X18626Y65180D01*
X19374D01*
X20066Y65466D01*
X20595Y65995D01*
X20881Y66687D01*
Y67435D01*
X20595Y68127D01*
X20066Y68656D01*
X19374Y68942D01*
D02*
G37*
G36*
X93874Y63121D02*
X93126D01*
X92435Y62835D01*
X91905Y62306D01*
X91619Y61614D01*
Y60866D01*
X91905Y60175D01*
X92435Y59645D01*
X93126Y59359D01*
X93874D01*
X94566Y59645D01*
X95095Y60175D01*
X95381Y60866D01*
Y61614D01*
X95095Y62306D01*
X94566Y62835D01*
X93874Y63121D01*
D02*
G37*
G36*
X287614Y50381D02*
X286866D01*
X286175Y50095D01*
X285645Y49566D01*
X285359Y48874D01*
Y48126D01*
X285645Y47434D01*
X286175Y46905D01*
X286866Y46619D01*
X287614D01*
X288306Y46905D01*
X288835Y47434D01*
X289121Y48126D01*
Y48874D01*
X288835Y49566D01*
X288306Y50095D01*
X287614Y50381D01*
D02*
G37*
G36*
X271355D02*
X270606D01*
X269915Y50095D01*
X269386Y49566D01*
X269099Y48874D01*
Y48126D01*
X269386Y47434D01*
X269915Y46905D01*
X270606Y46619D01*
X271355D01*
X272046Y46905D01*
X272575Y47434D01*
X272861Y48126D01*
Y48874D01*
X272575Y49566D01*
X272046Y50095D01*
X271355Y50381D01*
D02*
G37*
G36*
X254874D02*
X254126D01*
X253434Y50095D01*
X252905Y49566D01*
X252619Y48874D01*
Y48126D01*
X252905Y47434D01*
X253434Y46905D01*
X254126Y46619D01*
X254874D01*
X255566Y46905D01*
X256095Y47434D01*
X256381Y48126D01*
Y48874D01*
X256095Y49566D01*
X255566Y50095D01*
X254874Y50381D01*
D02*
G37*
G36*
X230874D02*
X230126D01*
X229434Y50095D01*
X228905Y49566D01*
X228619Y48874D01*
Y48126D01*
X228905Y47434D01*
X229434Y46905D01*
X230126Y46619D01*
X230874D01*
X231566Y46905D01*
X232095Y47434D01*
X232381Y48126D01*
Y48874D01*
X232095Y49566D01*
X231566Y50095D01*
X230874Y50381D01*
D02*
G37*
G36*
X214394D02*
X213646D01*
X212954Y50095D01*
X212425Y49566D01*
X212139Y48874D01*
Y48126D01*
X212425Y47434D01*
X212954Y46905D01*
X213646Y46619D01*
X214394D01*
X215085Y46905D01*
X215614Y47434D01*
X215901Y48126D01*
Y48874D01*
X215614Y49566D01*
X215085Y50095D01*
X214394Y50381D01*
D02*
G37*
G36*
X160874Y47861D02*
X160126D01*
X159434Y47575D01*
X158905Y47046D01*
X158619Y46354D01*
Y45606D01*
X158905Y44915D01*
X159434Y44386D01*
X160126Y44099D01*
X160874D01*
X161566Y44386D01*
X162095Y44915D01*
X162381Y45606D01*
Y46354D01*
X162095Y47046D01*
X161566Y47575D01*
X160874Y47861D01*
D02*
G37*
G36*
X150874D02*
X150126D01*
X149434Y47575D01*
X148905Y47046D01*
X148619Y46354D01*
Y45606D01*
X148905Y44915D01*
X149434Y44386D01*
X150126Y44099D01*
X150874D01*
X151566Y44386D01*
X152095Y44915D01*
X152381Y45606D01*
Y46354D01*
X152095Y47046D01*
X151566Y47575D01*
X150874Y47861D01*
D02*
G37*
G36*
X49614Y47381D02*
X48866D01*
X48175Y47095D01*
X47645Y46566D01*
X47359Y45874D01*
Y45126D01*
X47645Y44434D01*
X48175Y43905D01*
X48866Y43619D01*
X49614D01*
X50306Y43905D01*
X50835Y44434D01*
X51121Y45126D01*
Y45874D01*
X50835Y46566D01*
X50306Y47095D01*
X49614Y47381D01*
D02*
G37*
G36*
X42134D02*
X41386D01*
X40694Y47095D01*
X40165Y46566D01*
X39879Y45874D01*
Y45126D01*
X40165Y44434D01*
X40694Y43905D01*
X41386Y43619D01*
X42134D01*
X42825Y43905D01*
X43355Y44434D01*
X43641Y45126D01*
Y45874D01*
X43355Y46566D01*
X42825Y47095D01*
X42134Y47381D01*
D02*
G37*
G36*
X160874Y40381D02*
X160126D01*
X159434Y40095D01*
X158905Y39566D01*
X158619Y38874D01*
Y38126D01*
X158905Y37434D01*
X159434Y36905D01*
X160126Y36619D01*
X160874D01*
X161566Y36905D01*
X162095Y37434D01*
X162381Y38126D01*
Y38874D01*
X162095Y39566D01*
X161566Y40095D01*
X160874Y40381D01*
D02*
G37*
G36*
X150874D02*
X150126D01*
X149434Y40095D01*
X148905Y39566D01*
X148619Y38874D01*
Y38126D01*
X148905Y37434D01*
X149434Y36905D01*
X150126Y36619D01*
X150874D01*
X151566Y36905D01*
X152095Y37434D01*
X152381Y38126D01*
Y38874D01*
X152095Y39566D01*
X151566Y40095D01*
X150874Y40381D01*
D02*
G37*
G36*
X49874Y66381D02*
X49126D01*
X48434Y66095D01*
X47905Y65566D01*
X47619Y64874D01*
Y64126D01*
X47905Y63434D01*
X48434Y62905D01*
X49126Y62619D01*
X49651D01*
X75635Y36635D01*
X76032Y36370D01*
X76500Y36277D01*
X103500D01*
X103968Y36370D01*
X104365Y36635D01*
X111087Y43357D01*
X111309D01*
X112000Y43643D01*
X112529Y44172D01*
X112816Y44864D01*
Y45612D01*
X112529Y46304D01*
X112000Y46833D01*
X111309Y47119D01*
X110561D01*
X109869Y46833D01*
X109340Y46304D01*
X109054Y45612D01*
Y44864D01*
X109077Y44807D01*
X102993Y38723D01*
X77007D01*
X51381Y64349D01*
Y64874D01*
X51095Y65566D01*
X50566Y66095D01*
X49874Y66381D01*
D02*
G37*
G36*
X129374Y37121D02*
X128625D01*
X127934Y36835D01*
X127405Y36306D01*
X127118Y35614D01*
Y34866D01*
X127405Y34175D01*
X127934Y33645D01*
X128625Y33359D01*
X129374D01*
X130065Y33645D01*
X130594Y34175D01*
X130881Y34866D01*
Y35614D01*
X130594Y36306D01*
X130065Y36835D01*
X129374Y37121D01*
D02*
G37*
G36*
X46374Y33296D02*
X45626D01*
X44934Y33010D01*
X44405Y32481D01*
X44119Y31790D01*
Y31041D01*
X44405Y30350D01*
X44934Y29821D01*
X45626Y29534D01*
X46374D01*
X47066Y29821D01*
X47595Y30350D01*
X47881Y31041D01*
Y31790D01*
X47595Y32481D01*
X47066Y33010D01*
X46374Y33296D01*
D02*
G37*
G36*
X36374D02*
X35626D01*
X34934Y33010D01*
X34405Y32481D01*
X34119Y31790D01*
Y31041D01*
X34405Y30350D01*
X34934Y29821D01*
X35626Y29534D01*
X36374D01*
X37066Y29821D01*
X37595Y30350D01*
X37881Y31041D01*
Y31790D01*
X37595Y32481D01*
X37066Y33010D01*
X36374Y33296D01*
D02*
G37*
G36*
X129756Y29381D02*
X129008D01*
X128316Y29095D01*
X127787Y28566D01*
X127501Y27874D01*
Y27126D01*
X127787Y26435D01*
X128316Y25905D01*
X129008Y25619D01*
X129756D01*
X130448Y25905D01*
X130977Y26435D01*
X131263Y27126D01*
Y27874D01*
X130977Y28566D01*
X130448Y29095D01*
X129756Y29381D01*
D02*
G37*
G36*
X285743Y33743D02*
X277257D01*
Y25257D01*
X285743D01*
Y33743D01*
D02*
G37*
G36*
X272059D02*
X270941D01*
X269862Y33454D01*
X268895Y32895D01*
X268105Y32105D01*
X267546Y31138D01*
X267257Y30059D01*
Y28941D01*
X267546Y27862D01*
X268105Y26895D01*
X268895Y26105D01*
X269862Y25546D01*
X270941Y25257D01*
X272059D01*
X273138Y25546D01*
X274106Y26105D01*
X274896Y26895D01*
X275454Y27862D01*
X275743Y28941D01*
Y30059D01*
X275454Y31138D01*
X274896Y32105D01*
X274106Y32895D01*
X273138Y33454D01*
X272059Y33743D01*
D02*
G37*
G36*
X262059D02*
X260941D01*
X259862Y33454D01*
X258895Y32895D01*
X258104Y32105D01*
X257546Y31138D01*
X257257Y30059D01*
Y28941D01*
X257546Y27862D01*
X258104Y26895D01*
X258895Y26105D01*
X259862Y25546D01*
X260941Y25257D01*
X262059D01*
X263138Y25546D01*
X264106Y26105D01*
X264896Y26895D01*
X265454Y27862D01*
X265743Y28941D01*
Y30059D01*
X265454Y31138D01*
X264896Y32105D01*
X264106Y32895D01*
X263138Y33454D01*
X262059Y33743D01*
D02*
G37*
G36*
X252059D02*
X250941D01*
X249862Y33454D01*
X248895Y32895D01*
X248105Y32105D01*
X247546Y31138D01*
X247257Y30059D01*
Y28941D01*
X247546Y27862D01*
X248105Y26895D01*
X248895Y26105D01*
X249862Y25546D01*
X250941Y25257D01*
X252059D01*
X253138Y25546D01*
X254105Y26105D01*
X254895Y26895D01*
X255454Y27862D01*
X255743Y28941D01*
Y30059D01*
X255454Y31138D01*
X254895Y32105D01*
X254105Y32895D01*
X253138Y33454D01*
X252059Y33743D01*
D02*
G37*
G36*
X242059D02*
X240941D01*
X239862Y33454D01*
X238895Y32895D01*
X238105Y32105D01*
X237546Y31138D01*
X237257Y30059D01*
Y28941D01*
X237546Y27862D01*
X238105Y26895D01*
X238895Y26105D01*
X239862Y25546D01*
X240941Y25257D01*
X242059D01*
X243138Y25546D01*
X244106Y26105D01*
X244896Y26895D01*
X245454Y27862D01*
X245743Y28941D01*
Y30059D01*
X245454Y31138D01*
X244896Y32105D01*
X244106Y32895D01*
X243138Y33454D01*
X242059Y33743D01*
D02*
G37*
G36*
X232059D02*
X230941D01*
X229862Y33454D01*
X228895Y32895D01*
X228104Y32105D01*
X227546Y31138D01*
X227257Y30059D01*
Y28941D01*
X227546Y27862D01*
X228104Y26895D01*
X228895Y26105D01*
X229862Y25546D01*
X230941Y25257D01*
X232059D01*
X233138Y25546D01*
X234105Y26105D01*
X234895Y26895D01*
X235454Y27862D01*
X235743Y28941D01*
Y30059D01*
X235454Y31138D01*
X234895Y32105D01*
X234105Y32895D01*
X233138Y33454D01*
X232059Y33743D01*
D02*
G37*
G36*
X222059D02*
X220941D01*
X219862Y33454D01*
X218895Y32895D01*
X218105Y32105D01*
X217546Y31138D01*
X217257Y30059D01*
Y28941D01*
X217546Y27862D01*
X218105Y26895D01*
X218895Y26105D01*
X219862Y25546D01*
X220941Y25257D01*
X222059D01*
X223138Y25546D01*
X224106Y26105D01*
X224896Y26895D01*
X225454Y27862D01*
X225743Y28941D01*
Y30059D01*
X225454Y31138D01*
X224896Y32105D01*
X224106Y32895D01*
X223138Y33454D01*
X222059Y33743D01*
D02*
G37*
G36*
X212059D02*
X210941D01*
X209862Y33454D01*
X208895Y32895D01*
X208104Y32105D01*
X207546Y31138D01*
X207257Y30059D01*
Y28941D01*
X207546Y27862D01*
X208104Y26895D01*
X208895Y26105D01*
X209862Y25546D01*
X210941Y25257D01*
X212059D01*
X213138Y25546D01*
X214106Y26105D01*
X214896Y26895D01*
X215454Y27862D01*
X215743Y28941D01*
Y30059D01*
X215454Y31138D01*
X214896Y32105D01*
X214106Y32895D01*
X213138Y33454D01*
X212059Y33743D01*
D02*
G37*
G36*
X202059D02*
X200941D01*
X199862Y33454D01*
X198895Y32895D01*
X198105Y32105D01*
X197546Y31138D01*
X197257Y30059D01*
Y28941D01*
X197546Y27862D01*
X198105Y26895D01*
X198895Y26105D01*
X199862Y25546D01*
X200941Y25257D01*
X202059D01*
X203138Y25546D01*
X204105Y26105D01*
X204895Y26895D01*
X205454Y27862D01*
X205743Y28941D01*
Y30059D01*
X205454Y31138D01*
X204895Y32105D01*
X204105Y32895D01*
X203138Y33454D01*
X202059Y33743D01*
D02*
G37*
G36*
X192059D02*
X190941D01*
X189862Y33454D01*
X188895Y32895D01*
X188104Y32105D01*
X187546Y31138D01*
X187257Y30059D01*
Y28941D01*
X187546Y27862D01*
X188104Y26895D01*
X188895Y26105D01*
X189862Y25546D01*
X190941Y25257D01*
X192059D01*
X193138Y25546D01*
X194106Y26105D01*
X194896Y26895D01*
X195454Y27862D01*
X195743Y28941D01*
Y30059D01*
X195454Y31138D01*
X194896Y32105D01*
X194106Y32895D01*
X193138Y33454D01*
X192059Y33743D01*
D02*
G37*
G36*
X244874Y136381D02*
X244126D01*
X243435Y136095D01*
X242905Y135566D01*
X242619Y134874D01*
Y134126D01*
X242905Y133434D01*
X243277Y133063D01*
Y106207D01*
X157593Y20524D01*
X32507D01*
X18665Y34365D01*
X18268Y34630D01*
X17800Y34723D01*
X17007D01*
X13381Y38349D01*
Y38874D01*
X13095Y39566D01*
X12566Y40095D01*
X11874Y40381D01*
X11126D01*
X10434Y40095D01*
X9905Y39566D01*
X9619Y38874D01*
Y38126D01*
X9905Y37434D01*
X10434Y36905D01*
X11126Y36619D01*
X11651D01*
X15635Y32635D01*
X16032Y32370D01*
X16500Y32276D01*
X17293D01*
X31135Y18435D01*
X31532Y18170D01*
X32000Y18077D01*
X158100D01*
X158568Y18170D01*
X158965Y18435D01*
X245365Y104835D01*
X245630Y105232D01*
X245724Y105700D01*
Y133063D01*
X246095Y133434D01*
X246381Y134126D01*
Y134874D01*
X246095Y135566D01*
X245566Y136095D01*
X244874Y136381D01*
D02*
G37*
G36*
X282059Y23743D02*
X280941D01*
X279862Y23454D01*
X278895Y22896D01*
X278104Y22105D01*
X277546Y21138D01*
X277257Y20059D01*
Y18941D01*
X277546Y17862D01*
X278104Y16895D01*
X278895Y16104D01*
X279862Y15546D01*
X280941Y15257D01*
X282059D01*
X283138Y15546D01*
X284105Y16104D01*
X284895Y16895D01*
X285454Y17862D01*
X285743Y18941D01*
Y20059D01*
X285454Y21138D01*
X284895Y22105D01*
X284105Y22896D01*
X283138Y23454D01*
X282059Y23743D01*
D02*
G37*
G36*
X272059D02*
X270941D01*
X269862Y23454D01*
X268895Y22896D01*
X268105Y22105D01*
X267546Y21138D01*
X267257Y20059D01*
Y18941D01*
X267546Y17862D01*
X268105Y16895D01*
X268895Y16104D01*
X269862Y15546D01*
X270941Y15257D01*
X272059D01*
X273138Y15546D01*
X274106Y16104D01*
X274896Y16895D01*
X275454Y17862D01*
X275743Y18941D01*
Y20059D01*
X275454Y21138D01*
X274896Y22105D01*
X274106Y22896D01*
X273138Y23454D01*
X272059Y23743D01*
D02*
G37*
G36*
X262059D02*
X260941D01*
X259862Y23454D01*
X258895Y22896D01*
X258104Y22105D01*
X257546Y21138D01*
X257257Y20059D01*
Y18941D01*
X257546Y17862D01*
X258104Y16895D01*
X258895Y16104D01*
X259862Y15546D01*
X260941Y15257D01*
X262059D01*
X263138Y15546D01*
X264106Y16104D01*
X264896Y16895D01*
X265454Y17862D01*
X265743Y18941D01*
Y20059D01*
X265454Y21138D01*
X264896Y22105D01*
X264106Y22896D01*
X263138Y23454D01*
X262059Y23743D01*
D02*
G37*
G36*
X252059D02*
X250941D01*
X249862Y23454D01*
X248895Y22896D01*
X248105Y22105D01*
X247546Y21138D01*
X247257Y20059D01*
Y18941D01*
X247546Y17862D01*
X248105Y16895D01*
X248895Y16104D01*
X249862Y15546D01*
X250941Y15257D01*
X252059D01*
X253138Y15546D01*
X254105Y16104D01*
X254895Y16895D01*
X255454Y17862D01*
X255743Y18941D01*
Y20059D01*
X255454Y21138D01*
X254895Y22105D01*
X254105Y22896D01*
X253138Y23454D01*
X252059Y23743D01*
D02*
G37*
G36*
X242059D02*
X240941D01*
X239862Y23454D01*
X238895Y22896D01*
X238105Y22105D01*
X237546Y21138D01*
X237257Y20059D01*
Y18941D01*
X237546Y17862D01*
X238105Y16895D01*
X238895Y16104D01*
X239862Y15546D01*
X240941Y15257D01*
X242059D01*
X243138Y15546D01*
X244106Y16104D01*
X244896Y16895D01*
X245454Y17862D01*
X245743Y18941D01*
Y20059D01*
X245454Y21138D01*
X244896Y22105D01*
X244106Y22896D01*
X243138Y23454D01*
X242059Y23743D01*
D02*
G37*
G36*
X232059D02*
X230941D01*
X229862Y23454D01*
X228895Y22896D01*
X228104Y22105D01*
X227546Y21138D01*
X227257Y20059D01*
Y18941D01*
X227546Y17862D01*
X228104Y16895D01*
X228895Y16104D01*
X229862Y15546D01*
X230941Y15257D01*
X232059D01*
X233138Y15546D01*
X234105Y16104D01*
X234895Y16895D01*
X235454Y17862D01*
X235743Y18941D01*
Y20059D01*
X235454Y21138D01*
X234895Y22105D01*
X234105Y22896D01*
X233138Y23454D01*
X232059Y23743D01*
D02*
G37*
G36*
X222059D02*
X220941D01*
X219862Y23454D01*
X218895Y22896D01*
X218105Y22105D01*
X217546Y21138D01*
X217257Y20059D01*
Y18941D01*
X217546Y17862D01*
X218105Y16895D01*
X218895Y16104D01*
X219862Y15546D01*
X220941Y15257D01*
X222059D01*
X223138Y15546D01*
X224106Y16104D01*
X224896Y16895D01*
X225454Y17862D01*
X225743Y18941D01*
Y20059D01*
X225454Y21138D01*
X224896Y22105D01*
X224106Y22896D01*
X223138Y23454D01*
X222059Y23743D01*
D02*
G37*
G36*
X212059D02*
X210941D01*
X209862Y23454D01*
X208895Y22896D01*
X208104Y22105D01*
X207546Y21138D01*
X207257Y20059D01*
Y18941D01*
X207546Y17862D01*
X208104Y16895D01*
X208895Y16104D01*
X209862Y15546D01*
X210941Y15257D01*
X212059D01*
X213138Y15546D01*
X214106Y16104D01*
X214896Y16895D01*
X215454Y17862D01*
X215743Y18941D01*
Y20059D01*
X215454Y21138D01*
X214896Y22105D01*
X214106Y22896D01*
X213138Y23454D01*
X212059Y23743D01*
D02*
G37*
G36*
X202059D02*
X200941D01*
X199862Y23454D01*
X198895Y22896D01*
X198105Y22105D01*
X197546Y21138D01*
X197257Y20059D01*
Y18941D01*
X197546Y17862D01*
X198105Y16895D01*
X198895Y16104D01*
X199862Y15546D01*
X200941Y15257D01*
X202059D01*
X203138Y15546D01*
X204105Y16104D01*
X204895Y16895D01*
X205454Y17862D01*
X205743Y18941D01*
Y20059D01*
X205454Y21138D01*
X204895Y22105D01*
X204105Y22896D01*
X203138Y23454D01*
X202059Y23743D01*
D02*
G37*
G36*
X192059D02*
X190941D01*
X189862Y23454D01*
X188895Y22896D01*
X188104Y22105D01*
X187546Y21138D01*
X187257Y20059D01*
Y18941D01*
X187546Y17862D01*
X188104Y16895D01*
X188895Y16104D01*
X189862Y15546D01*
X190941Y15257D01*
X192059D01*
X193138Y15546D01*
X194106Y16104D01*
X194896Y16895D01*
X195454Y17862D01*
X195743Y18941D01*
Y20059D01*
X195454Y21138D01*
X194896Y22105D01*
X194106Y22896D01*
X193138Y23454D01*
X192059Y23743D01*
D02*
G37*
G36*
X18614Y17381D02*
X17866D01*
X17175Y17095D01*
X16645Y16566D01*
X16359Y15874D01*
Y15126D01*
X16645Y14434D01*
X17175Y13905D01*
X17866Y13619D01*
X18614D01*
X19306Y13905D01*
X19835Y14434D01*
X20121Y15126D01*
Y15874D01*
X19835Y16566D01*
X19306Y17095D01*
X18614Y17381D01*
D02*
G37*
G36*
X11134D02*
X10386D01*
X9694Y17095D01*
X9165Y16566D01*
X8879Y15874D01*
Y15126D01*
X9165Y14434D01*
X9694Y13905D01*
X10386Y13619D01*
X11134D01*
X11825Y13905D01*
X12355Y14434D01*
X12641Y15126D01*
Y15874D01*
X12355Y16566D01*
X11825Y17095D01*
X11134Y17381D01*
D02*
G37*
G36*
X160874Y14641D02*
X160126D01*
X159434Y14355D01*
X158905Y13825D01*
X158619Y13134D01*
Y12386D01*
X158905Y11694D01*
X159434Y11165D01*
X160126Y10879D01*
X160874D01*
X161566Y11165D01*
X162095Y11694D01*
X162381Y12386D01*
Y13134D01*
X162095Y13825D01*
X161566Y14355D01*
X160874Y14641D01*
D02*
G37*
G36*
X101874Y13381D02*
X101126D01*
X100435Y13095D01*
X99905Y12566D01*
X99619Y11874D01*
Y11126D01*
X99905Y10434D01*
X100435Y9905D01*
X101126Y9619D01*
X101874D01*
X102566Y9905D01*
X103095Y10434D01*
X103381Y11126D01*
Y11874D01*
X103095Y12566D01*
X102566Y13095D01*
X101874Y13381D01*
D02*
G37*
G36*
X148874Y12381D02*
X148126D01*
X147434Y12095D01*
X146905Y11566D01*
X146619Y10874D01*
Y10126D01*
X146905Y9434D01*
X147434Y8905D01*
X148126Y8619D01*
X148874D01*
X149566Y8905D01*
X150095Y9434D01*
X150381Y10126D01*
Y10874D01*
X150095Y11566D01*
X149566Y12095D01*
X148874Y12381D01*
D02*
G37*
G36*
X46374Y11466D02*
X45626D01*
X44934Y11179D01*
X44405Y10650D01*
X44119Y9959D01*
Y9210D01*
X44405Y8519D01*
X44934Y7990D01*
X45626Y7704D01*
X46374D01*
X47066Y7990D01*
X47595Y8519D01*
X47881Y9210D01*
Y9959D01*
X47595Y10650D01*
X47066Y11179D01*
X46374Y11466D01*
D02*
G37*
G36*
X36374D02*
X35626D01*
X34934Y11179D01*
X34405Y10650D01*
X34119Y9959D01*
Y9210D01*
X34405Y8519D01*
X34934Y7990D01*
X35626Y7704D01*
X36374D01*
X37066Y7990D01*
X37595Y8519D01*
X37881Y9210D01*
Y9959D01*
X37595Y10650D01*
X37066Y11179D01*
X36374Y11466D01*
D02*
G37*
%LPD*%
D10*
X37550Y207350D02*
X47870D01*
X48020Y207500D01*
X58401Y217881D01*
X37400Y207200D02*
X37550Y207350D01*
X37400Y207200D02*
Y220900D01*
X113300Y215500D02*
X117500D01*
X109500Y219300D02*
Y225914D01*
Y219300D02*
X113300Y215500D01*
X54500Y226500D02*
X108914D01*
X109500Y225914D01*
X113437Y228300D02*
X115539Y230403D01*
X22036Y218340D02*
X31996Y228300D01*
X113437D01*
X155500Y218930D02*
X155550Y218980D01*
X136689Y200119D02*
X155500Y218930D01*
X118486Y213119D02*
X120993Y215626D01*
X127507Y204126D02*
X131514Y200119D01*
X120993Y234733D02*
X123500Y237240D01*
X98248Y213119D02*
X118486D01*
X127507Y204126D02*
Y233233D01*
X131514Y200119D02*
X136689D01*
X120993Y215626D02*
Y234733D01*
X58401Y217881D02*
X93486D01*
X155550Y218980D02*
X164500D01*
X123500Y237240D02*
X127507Y233233D01*
X93486Y217881D02*
X98248Y213119D01*
X37400Y220900D02*
X40800Y224300D01*
X191000Y206000D02*
X196715Y211715D01*
X191586Y167500D02*
X193600D01*
X191000Y168086D02*
X191586Y167500D01*
X191000Y168086D02*
Y206000D01*
X225500Y102500D02*
X231800Y108800D01*
Y125800D01*
X234500Y128500D01*
X32000Y19300D02*
X158100D01*
X244500Y105700D02*
Y134500D01*
X158100Y19300D02*
X244500Y105700D01*
X98300Y51300D02*
Y98700D01*
X94500Y102500D02*
X98300Y98700D01*
X90500Y43500D02*
X98300Y51300D01*
X17800Y33500D02*
X32000Y19300D01*
X16500Y33500D02*
X17800D01*
X193600Y167500D02*
X195600Y169500D01*
X115539Y231439D02*
X115800Y231700D01*
X115539Y230403D02*
Y231439D01*
X204500Y46300D02*
X244213Y86013D01*
X204500Y39500D02*
Y46300D01*
X244213Y86013D02*
X250417D01*
X42500Y190500D02*
X47500D01*
X36444Y184444D02*
X42500Y190500D01*
X43500Y215500D02*
X54500Y226500D01*
X144500Y160500D02*
X151172Y167172D01*
Y170172D01*
X151500Y170500D01*
X151828Y164828D02*
X183500Y196500D01*
X151828Y161828D02*
Y164828D01*
X157328Y163328D02*
X167500Y173500D01*
X157328Y159086D02*
Y163328D01*
X151500Y161500D02*
X151828Y161828D01*
X155500Y156500D02*
Y157257D01*
X157328Y159086D01*
X254500Y277500D02*
X262500Y269500D01*
X197500Y236300D02*
Y276914D01*
X198086Y277500D01*
X254500D01*
X132500Y202500D02*
Y249209D01*
X227500Y100500D02*
X239500Y112500D01*
Y131500D01*
X223500Y104500D02*
X227500Y108500D01*
X229500Y134914D02*
Y135500D01*
X227500Y132914D02*
X229500Y134914D01*
X227500Y108500D02*
Y132914D01*
X251500Y139500D02*
X259500Y147500D01*
X172500Y139500D02*
X251500D01*
X177500Y104500D02*
X223500D01*
X175500Y102500D02*
X225500D01*
X171500Y100500D02*
X227500D01*
X312500Y269500D02*
X317500Y264500D01*
Y241500D02*
Y264500D01*
X237500Y161500D02*
X317500Y241500D01*
X209500Y161500D02*
X237500D01*
X222491Y151626D02*
X234626D01*
X292500Y209500D02*
X307500D01*
X234626Y151626D02*
X292500Y209500D01*
X236500Y147500D02*
X247500Y158500D01*
X164500Y147500D02*
X236500D01*
X222230Y151364D02*
X222491Y151626D01*
X170086Y143500D02*
X249500D01*
X252500Y146500D01*
X259500Y147500D02*
Y158500D01*
X140500Y141500D02*
X177500Y104500D01*
X136828Y141172D02*
X175500Y102500D01*
X229500Y168500D02*
X237500Y176500D01*
Y265500D01*
X235500Y167500D02*
X247500Y179500D01*
Y265934D01*
X243934Y269500D02*
X247500Y265934D01*
X196715Y220715D02*
X200500Y224500D01*
X196715Y211715D02*
Y220715D01*
X204500Y211500D02*
Y229300D01*
X197500Y236300D02*
X204500Y229300D01*
X180500Y261500D02*
X186500D01*
X193500Y268500D01*
Y200500D02*
X204500Y211500D01*
X242500Y269500D02*
X243934D01*
X207126Y264288D02*
X207500Y263914D01*
X205594Y266406D02*
Y266406D01*
X207126Y264288D02*
Y264874D01*
X205594Y266406D02*
X207126Y264874D01*
X202500Y269500D02*
X205594Y266406D01*
X207500Y175500D02*
Y263914D01*
X232500Y269500D02*
X233500D01*
X237500Y265500D01*
X227500Y175500D02*
Y264500D01*
X222500Y269500D02*
X227500Y264500D01*
X185500Y153500D02*
X207500Y175500D01*
X167500Y153500D02*
X185500D01*
X210205Y172937D02*
X210971Y173702D01*
X212702D02*
X217500Y178500D01*
Y264500D01*
X210971Y173702D02*
X212702D01*
X212500Y269500D02*
X217500Y264500D01*
X168265Y143265D02*
X169851D01*
X170086Y143500D01*
X167500Y142500D02*
X168265Y143265D01*
X121500Y150500D02*
X171500Y100500D01*
X136500Y145086D02*
X136828Y144757D01*
Y141172D02*
Y144757D01*
X140500Y141500D02*
Y184500D01*
X159500Y203500D02*
X170500D01*
X140500Y184500D02*
X159500Y203500D01*
X74500Y72500D02*
Y92500D01*
X41500Y125500D02*
X74500Y92500D01*
X45500Y124500D02*
Y139500D01*
X31086Y147500D02*
X37500D01*
X45500Y139500D01*
Y124500D02*
X67500Y102500D01*
X43359Y215641D02*
Y215922D01*
Y215641D02*
X43500Y215500D01*
X63500Y201500D02*
Y202500D01*
Y201500D02*
X66500Y198500D01*
X60500Y161500D02*
X66500Y167500D01*
Y198500D01*
X67217Y151217D02*
X72078Y156078D01*
X64724Y151217D02*
X67217D01*
X64142Y150635D02*
X64724Y151217D01*
X72078Y156078D02*
Y189129D01*
X81265Y164265D02*
X82851D01*
X83086Y164500D01*
X86595D01*
X80500Y163500D02*
X81265Y164265D01*
X76500Y145500D02*
Y166500D01*
X92500Y182500D01*
X86595Y164500D02*
X89007Y162088D01*
X90088D01*
X92500Y182500D02*
Y199500D01*
X90088Y162088D02*
X96500Y168500D01*
Y211500D01*
X92500Y215500D02*
X96500Y211500D01*
X120838Y260871D02*
X132500Y249209D01*
X110935Y44935D02*
Y45238D01*
X103500Y37500D02*
X110935Y44935D01*
X76500Y37500D02*
X103500D01*
X49500Y64500D02*
X76500Y37500D01*
X11500Y38500D02*
X16500Y33500D01*
X28894Y145308D02*
X31086Y147500D01*
X28500Y145308D02*
X28894D01*
X67500Y102500D02*
X94500D01*
X20500Y92500D02*
X41500D01*
X19500Y93500D02*
X20500Y92500D01*
D71*
X92500Y120500D02*
X100500Y112500D01*
Y88500D02*
X120500Y68500D01*
X100500Y88500D02*
Y112500D01*
X120500Y68500D02*
X138500D01*
D72*
X25940Y203967D02*
D03*
Y227432D02*
D03*
D73*
X11570Y198692D02*
D03*
Y232708D02*
D03*
D74*
X28027Y198692D02*
D03*
Y232708D02*
D03*
D75*
X281500Y29500D02*
D03*
D76*
Y19500D02*
D03*
X271500Y29500D02*
D03*
Y19500D02*
D03*
X261500Y29500D02*
D03*
Y19500D02*
D03*
X251500Y29500D02*
D03*
Y19500D02*
D03*
X241500Y29500D02*
D03*
Y19500D02*
D03*
X231500Y29500D02*
D03*
Y19500D02*
D03*
X221500Y29500D02*
D03*
Y19500D02*
D03*
X211500Y29500D02*
D03*
Y19500D02*
D03*
X201500Y29500D02*
D03*
Y19500D02*
D03*
X191500Y29500D02*
D03*
Y19500D02*
D03*
D77*
X319479Y99791D02*
D03*
Y71445D02*
D03*
D78*
X308967Y76071D02*
D03*
Y95165D02*
D03*
D79*
X312500Y269500D02*
D03*
D80*
Y259500D02*
D03*
X302500Y269500D02*
D03*
Y259500D02*
D03*
X292500Y269500D02*
D03*
Y259500D02*
D03*
X282500Y269500D02*
D03*
Y259500D02*
D03*
X272500Y269500D02*
D03*
Y259500D02*
D03*
X262500Y269500D02*
D03*
Y259500D02*
D03*
X252500Y269500D02*
D03*
Y259500D02*
D03*
X242500Y269500D02*
D03*
Y259500D02*
D03*
X232500Y269500D02*
D03*
Y259500D02*
D03*
X222500Y269500D02*
D03*
Y259500D02*
D03*
X212500Y269500D02*
D03*
Y259500D02*
D03*
X202500Y269500D02*
D03*
Y259500D02*
D03*
D81*
X41300Y231700D02*
D03*
X38400Y200100D02*
D03*
X37400Y207200D02*
D03*
X113240Y222500D02*
D03*
X40800Y224300D02*
D03*
X123500Y237240D02*
D03*
X162020Y196500D02*
D03*
X234100Y216500D02*
D03*
X227500Y175500D02*
D03*
X301200Y93900D02*
D03*
X187793Y167793D02*
D03*
X195600Y169500D02*
D03*
X66500Y221547D02*
D03*
X71200Y212100D02*
D03*
X115800Y231700D02*
D03*
X47900Y163400D02*
D03*
X47760Y154500D02*
D03*
X94500Y140240D02*
D03*
X113240Y145500D02*
D03*
X10760Y15500D02*
D03*
X36000Y9585D02*
D03*
Y31415D02*
D03*
X46000D02*
D03*
X49240Y45500D02*
D03*
X93500Y61240D02*
D03*
X84500Y85760D02*
D03*
X93500Y93240D02*
D03*
X80700Y117445D02*
D03*
X115240Y115500D02*
D03*
X196500Y92020D02*
D03*
X205500D02*
D03*
X214500D02*
D03*
X270980Y48500D02*
D03*
X214020D02*
D03*
X254500D02*
D03*
X230500D02*
D03*
X150500Y45980D02*
D03*
X160500D02*
D03*
Y12760D02*
D03*
X220500Y203500D02*
D03*
X320326Y153500D02*
D03*
X272500Y147248D02*
D03*
X286500Y116500D02*
D03*
X281500Y90760D02*
D03*
X223500Y92020D02*
D03*
X235500Y112500D02*
D03*
Y121500D02*
D03*
X170600Y117760D02*
D03*
X179700Y118020D02*
D03*
X206200Y135800D02*
D03*
X162020Y187500D02*
D03*
X146500Y218980D02*
D03*
X113500Y206500D02*
D03*
X85240Y192500D02*
D03*
X76000Y244000D02*
D03*
X74000Y264000D02*
D03*
X60000Y242000D02*
D03*
X62000Y266000D02*
D03*
X68000Y254000D02*
D03*
X109310Y266886D02*
D03*
Y253500D02*
D03*
X154000Y271740D02*
D03*
X142500Y272240D02*
D03*
X155265Y248557D02*
D03*
X34000Y81939D02*
D03*
X19000Y103061D02*
D03*
Y67061D02*
D03*
X33000Y116939D02*
D03*
X287240Y48500D02*
D03*
X271500Y90760D02*
D03*
X289480Y168118D02*
D03*
Y160638D02*
D03*
X220500Y196020D02*
D03*
X189300Y118100D02*
D03*
X179700Y125500D02*
D03*
X179200Y132000D02*
D03*
X216760Y123760D02*
D03*
X170000Y188000D02*
D03*
X123500Y229760D02*
D03*
X164500Y218980D02*
D03*
X155500Y218930D02*
D03*
X109310Y240114D02*
D03*
X48020Y207500D02*
D03*
X28043Y155965D02*
D03*
X160500Y38500D02*
D03*
X148500Y10500D02*
D03*
X150500Y38500D02*
D03*
X128999Y35240D02*
D03*
X129382Y27500D02*
D03*
X101500Y11500D02*
D03*
X41760Y45500D02*
D03*
X46000Y9585D02*
D03*
X18240Y15500D02*
D03*
X18000Y138061D02*
D03*
X80700Y126500D02*
D03*
X92500Y120500D02*
D03*
X138500Y68500D02*
D03*
X151500Y170500D02*
D03*
X167500Y173500D02*
D03*
X144500Y160500D02*
D03*
X151500Y161500D02*
D03*
X155500Y156500D02*
D03*
X132500Y202500D02*
D03*
X234500Y128500D02*
D03*
X239500Y131500D02*
D03*
X244500Y134500D02*
D03*
X229500Y135500D02*
D03*
X183500Y196500D02*
D03*
X204500Y39500D02*
D03*
X250417Y86013D02*
D03*
X209500Y161500D02*
D03*
X247500Y158500D02*
D03*
X222230Y151364D02*
D03*
X307500Y209500D02*
D03*
X252500Y146500D02*
D03*
X259500Y158500D02*
D03*
X229500Y168500D02*
D03*
X235500Y167500D02*
D03*
X200500Y224500D02*
D03*
X193500Y268500D02*
D03*
X180500Y261500D02*
D03*
X193500Y200500D02*
D03*
X210205Y172937D02*
D03*
X167500Y153500D02*
D03*
X164500Y147500D02*
D03*
X167500Y142500D02*
D03*
X172500Y139500D02*
D03*
X136500Y145086D02*
D03*
X170500Y203500D02*
D03*
X41500Y125500D02*
D03*
X74500Y72500D02*
D03*
X43359Y215922D02*
D03*
X117500Y215500D02*
D03*
X47500Y190500D02*
D03*
X37000Y185945D02*
D03*
X63500Y202500D02*
D03*
X60640Y161400D02*
D03*
X64142Y150635D02*
D03*
X72078Y189129D02*
D03*
X80500Y163500D02*
D03*
X76500Y145500D02*
D03*
X92500Y199500D02*
D03*
X22036Y218340D02*
D03*
X92500Y215500D02*
D03*
X121500Y150500D02*
D03*
X120838Y260871D02*
D03*
X110935Y45238D02*
D03*
X49500Y64500D02*
D03*
X28500Y145308D02*
D03*
X90500Y43500D02*
D03*
X11500Y38500D02*
D03*
X19500Y93500D02*
D03*
X41500Y92500D02*
D03*
M02*
