G04*
G04 #@! TF.GenerationSoftware,Altium Limited,Altium Designer,21.6.4 (81)*
G04*
G04 Layer_Color=65535*
%FSLAX25Y25*%
%MOIN*%
G70*
G04*
G04 #@! TF.SameCoordinates,D17E0072-19AB-4E61-9357-99CEFC96D61D*
G04*
G04*
G04 #@! TF.FilePolarity,Positive*
G04*
G01*
G75*
%ADD10C,0.01000*%
%ADD11C,0.00600*%
%ADD12C,0.01181*%
%ADD13C,0.00787*%
%ADD14C,0.00394*%
%ADD15C,0.00512*%
%ADD16C,0.00591*%
%ADD17C,0.00500*%
G36*
X66500Y213500D02*
X67600Y212600D01*
X65400D01*
X66500Y213500D01*
X65400Y214400D01*
X67600D01*
X66500Y213500D01*
D02*
G37*
G36*
Y224500D02*
X67600Y223600D01*
X65400D01*
X66500Y224500D01*
X65400Y225400D01*
X67600D01*
X66500Y224500D01*
D02*
G37*
G36*
X178918Y174671D02*
Y173171D01*
X177918D01*
Y174671D01*
X178918D01*
D02*
G37*
G36*
X199234Y189082D02*
Y190082D01*
X200734D01*
Y189082D01*
X199234D01*
D02*
G37*
G36*
X205140Y148918D02*
Y147918D01*
X206640D01*
Y148918D01*
X205140D01*
D02*
G37*
G36*
X219082Y172703D02*
Y171203D01*
X220082D01*
Y172703D01*
X219082D01*
D02*
G37*
D10*
X129000Y37740D02*
G03*
X129000Y37740I-500J0D01*
G01*
X104500Y11500D02*
G03*
X104500Y11500I-3000J0D01*
G01*
X151500Y10500D02*
G03*
X151500Y10500I-3000J0D01*
G01*
X311716Y143656D02*
G03*
X307453Y143658I-2132J-14D01*
G01*
X321158Y142596D02*
G03*
X321158Y142596I-674J0D01*
G01*
X33600Y230488D02*
Y232700D01*
X33071Y198700D02*
X33600D01*
Y200932D01*
X15630Y198700D02*
X22984D01*
X1600Y232700D02*
X7511D01*
X1600Y198700D02*
Y232700D01*
Y198700D02*
X7511D01*
X15630Y232700D02*
X22984D01*
X33071D02*
X33600D01*
X130957Y37343D02*
X138043D01*
Y29666D02*
Y32815D01*
X130957Y25138D02*
X138043D01*
X171540Y7177D02*
X301460D01*
X171540D02*
Y41823D01*
X301460D01*
Y7177D02*
Y41823D01*
X246500Y36500D02*
Y41500D01*
X226500Y36500D02*
X246500D01*
X226500D02*
Y41500D01*
X299500Y9500D02*
Y39500D01*
X173500Y9500D02*
X299500D01*
X173500D02*
Y39500D01*
X226500D01*
X246500D02*
X299500D01*
X292500Y33500D02*
X295830Y39544D01*
X288830D02*
X292500Y33500D01*
X330256Y69870D02*
Y101366D01*
X327461Y72311D02*
Y98964D01*
X329784Y101287D02*
X330256D01*
X327461Y98964D02*
X329784Y101287D01*
Y69988D02*
X330177D01*
X327461Y72311D02*
X329784Y69988D01*
X307619Y98785D02*
Y101366D01*
Y69870D02*
Y72451D01*
Y69870D02*
X314617D01*
X324340D02*
X330177D01*
X307619Y101366D02*
X314617D01*
X324340D02*
X330256D01*
X307500Y264500D02*
X317500D01*
X307500D02*
Y274500D01*
X197500Y254500D02*
X317500D01*
X197500D02*
Y274500D01*
X317500D01*
Y254500D02*
Y274500D01*
X61413Y112524D02*
X75587D01*
X61413Y140476D02*
X75587D01*
Y112524D02*
Y140476D01*
X61413Y112524D02*
X61413Y140476D01*
X142500Y242488D02*
Y253512D01*
X136945Y253512D02*
X155055Y253512D01*
X136945Y242488D02*
X155055Y242488D01*
X136945Y252847D02*
Y253512D01*
Y242488D02*
Y243153D01*
X155055Y252847D02*
Y253512D01*
Y242488D02*
Y243153D01*
X301626Y163342D02*
X317374D01*
X311720Y143658D02*
X316928D01*
X302072D02*
X307453D01*
X266074Y142771D02*
X268817D01*
X276183D02*
X279066D01*
X276363Y119149D02*
X279066D01*
X266074D02*
X268637D01*
X266074D02*
Y142771D01*
X279066Y119149D02*
Y142771D01*
X269570Y126960D02*
X275570D01*
Y134960D01*
X269570D02*
X275570D01*
X269570Y126960D02*
Y134960D01*
X22488Y168445D02*
X33512D01*
X33512Y174000D02*
X33512Y155890D01*
X22488D02*
X22488Y174000D01*
X32847D02*
X33512D01*
X22488D02*
X23153D01*
X32847Y155890D02*
X33512D01*
X22488D02*
X23153D01*
X5000Y264000D02*
Y266999D01*
X6000Y265999D01*
X6999Y266999D01*
Y264000D01*
X8499Y265999D02*
X9499D01*
X9998Y265499D01*
Y264000D01*
X8499D01*
X7999Y264499D01*
X8499Y264999D01*
X9998D01*
X10998Y265999D02*
Y264000D01*
Y264999D01*
X11498Y265499D01*
X11998Y265999D01*
X12498D01*
X18995Y264000D02*
X16996D01*
X18995Y265999D01*
Y266499D01*
X18496Y266999D01*
X17496D01*
X16996Y266499D01*
X19995Y266999D02*
X21994D01*
Y266499D01*
X19995Y264499D01*
Y264000D01*
X23494Y263500D02*
X23994Y264000D01*
Y264499D01*
X23494D01*
Y264000D01*
X23994D01*
X23494Y263500D01*
X22994Y263000D01*
X30992Y264000D02*
X28992D01*
X30992Y265999D01*
Y266499D01*
X30492Y266999D01*
X29492D01*
X28992Y266499D01*
X31991D02*
X32491Y266999D01*
X33491D01*
X33991Y266499D01*
Y264499D01*
X33491Y264000D01*
X32491D01*
X31991Y264499D01*
Y266499D01*
X36990Y264000D02*
X34990D01*
X36990Y265999D01*
Y266499D01*
X36490Y266999D01*
X35490D01*
X34990Y266499D01*
X39989Y264000D02*
X37989D01*
X39989Y265999D01*
Y266499D01*
X39489Y266999D01*
X38489D01*
X37989Y266499D01*
X5000Y273999D02*
Y272000D01*
X6000Y271000D01*
X6999Y272000D01*
Y273999D01*
X9499Y271000D02*
X8499D01*
X7999Y271500D01*
Y272499D01*
X8499Y272999D01*
X9499D01*
X9998Y272499D01*
Y272000D01*
X7999D01*
X10998Y272999D02*
Y271000D01*
Y272000D01*
X11498Y272499D01*
X11998Y272999D01*
X12498D01*
X13997Y271000D02*
X15497D01*
X15996Y271500D01*
X15497Y272000D01*
X14497D01*
X13997Y272499D01*
X14497Y272999D01*
X15996D01*
X16996Y271000D02*
X17996D01*
X17496D01*
Y272999D01*
X16996D01*
X19995Y271000D02*
X20995D01*
X21495Y271500D01*
Y272499D01*
X20995Y272999D01*
X19995D01*
X19495Y272499D01*
Y271500D01*
X19995Y271000D01*
X22494D02*
Y272999D01*
X23994D01*
X24494Y272499D01*
Y271000D01*
X27493D02*
X25493D01*
X27493Y272999D01*
Y273499D01*
X26993Y273999D01*
X25993D01*
X25493Y273499D01*
X5000Y278000D02*
Y280999D01*
X6499D01*
X6999Y280499D01*
Y279499D01*
X6499Y278999D01*
X5000D01*
X8499Y278000D02*
X9499D01*
X9998Y278500D01*
Y279499D01*
X9499Y279999D01*
X8499D01*
X7999Y279499D01*
Y278500D01*
X8499Y278000D01*
X10998Y279999D02*
Y278000D01*
Y278999D01*
X11498Y279499D01*
X11998Y279999D01*
X12498D01*
X14497Y280499D02*
Y279999D01*
X13997D01*
X14997D01*
X14497D01*
Y278500D01*
X14997Y278000D01*
X16996Y279999D02*
X17996D01*
X18496Y279499D01*
Y278000D01*
X16996D01*
X16496Y278500D01*
X16996Y278999D01*
X18496D01*
X19495Y280999D02*
Y278000D01*
X20995D01*
X21495Y278500D01*
Y278999D01*
Y279499D01*
X20995Y279999D01*
X19495D01*
X22494Y278000D02*
X23494D01*
X22994D01*
Y280999D01*
X22494D01*
X26493Y278000D02*
X25493D01*
X24994Y278500D01*
Y279499D01*
X25493Y279999D01*
X26493D01*
X26993Y279499D01*
Y278999D01*
X24994D01*
X30992Y277000D02*
Y279999D01*
X32491D01*
X32991Y279499D01*
Y278500D01*
X32491Y278000D01*
X30992D01*
X34490D02*
X35490D01*
X35990Y278500D01*
Y279499D01*
X35490Y279999D01*
X34490D01*
X33991Y279499D01*
Y278500D01*
X34490Y278000D01*
X36990Y279999D02*
Y278500D01*
X37490Y278000D01*
X37989Y278500D01*
X38489Y278000D01*
X38989Y278500D01*
Y279999D01*
X41488Y278000D02*
X40488D01*
X39989Y278500D01*
Y279499D01*
X40488Y279999D01*
X41488D01*
X41988Y279499D01*
Y278999D01*
X39989D01*
X42988Y279999D02*
Y278000D01*
Y278999D01*
X43488Y279499D01*
X43987Y279999D01*
X44487D01*
X48986Y278000D02*
X50485D01*
X50985Y278500D01*
X50485Y278999D01*
X49486D01*
X48986Y279499D01*
X49486Y279999D01*
X50985D01*
X51985D02*
Y278500D01*
X52485Y278000D01*
X53984D01*
Y279999D01*
X54984Y277000D02*
Y279999D01*
X56483D01*
X56983Y279499D01*
Y278500D01*
X56483Y278000D01*
X54984D01*
X57983Y277000D02*
Y279999D01*
X59482D01*
X59982Y279499D01*
Y278500D01*
X59482Y278000D01*
X57983D01*
X60982D02*
X61982D01*
X61482D01*
Y280999D01*
X60982D01*
X63481Y279999D02*
Y278500D01*
X63981Y278000D01*
X65480D01*
Y277500D01*
X64981Y277000D01*
X64481D01*
X65480Y278000D02*
Y279999D01*
X6999Y286999D02*
X5000D01*
Y285499D01*
X6000D01*
X5000D01*
Y284000D01*
X9499D02*
X8499D01*
X7999Y284500D01*
Y285499D01*
X8499Y285999D01*
X9499D01*
X9998Y285499D01*
Y284999D01*
X7999D01*
X10998Y284000D02*
Y285999D01*
X12498D01*
X12997Y285499D01*
Y284000D01*
X14997Y283000D02*
X15497D01*
X15996Y283500D01*
Y285999D01*
X14497D01*
X13997Y285499D01*
Y284500D01*
X14497Y284000D01*
X15996D01*
X16996Y285999D02*
X18995Y284000D01*
X17996Y284999D01*
X18995Y285999D01*
X16996Y284000D01*
X19995Y285999D02*
Y284500D01*
X20495Y284000D01*
X21994D01*
Y285999D01*
X24494Y284000D02*
X23494D01*
X22994Y284500D01*
Y285499D01*
X23494Y285999D01*
X24494D01*
X24994Y285499D01*
Y284999D01*
X22994D01*
X25993Y286999D02*
X27993D01*
Y286499D01*
X25993Y284500D01*
Y284000D01*
X27993D01*
X28992Y286999D02*
Y284000D01*
Y285499D01*
X29492Y285999D01*
X30492D01*
X30992Y285499D01*
Y284000D01*
X32491Y285999D02*
X33491D01*
X33991Y285499D01*
Y284000D01*
X32491D01*
X31991Y284500D01*
X32491Y284999D01*
X33991D01*
X34990Y284000D02*
Y285999D01*
X36490D01*
X36990Y285499D01*
Y284000D01*
X38989Y283000D02*
X39489D01*
X39989Y283500D01*
Y285999D01*
X38489D01*
X37989Y285499D01*
Y284500D01*
X38489Y284000D01*
X39989D01*
X2100Y245898D02*
Y240900D01*
X3100Y239900D01*
X5099D01*
X6099Y240900D01*
Y245898D01*
X12097Y244898D02*
X11097Y245898D01*
X9098D01*
X8098Y244898D01*
Y243899D01*
X9098Y242899D01*
X11097D01*
X12097Y241899D01*
Y240900D01*
X11097Y239900D01*
X9098D01*
X8098Y240900D01*
X14096Y245898D02*
Y239900D01*
X17095D01*
X18095Y240900D01*
Y241899D01*
X17095Y242899D01*
X14096D01*
X17095D01*
X18095Y243899D01*
Y244898D01*
X17095Y245898D01*
X14096D01*
X24093Y239900D02*
X20094D01*
X24093Y243899D01*
Y244898D01*
X23093Y245898D01*
X21094D01*
X20094Y244898D01*
X17100Y113099D02*
Y110600D01*
X17600Y110100D01*
X18599D01*
X19099Y110600D01*
Y113099D01*
X20099D02*
X22098D01*
Y112599D01*
X20099Y110600D01*
Y110100D01*
X60100Y68300D02*
Y71299D01*
X61599D01*
X62099Y70799D01*
Y69800D01*
X61599Y69300D01*
X60100D01*
X61100D02*
X62099Y68300D01*
X65098D02*
X63099D01*
X65098Y70299D01*
Y70799D01*
X64599Y71299D01*
X63599D01*
X63099Y70799D01*
X68097Y71299D02*
X67098Y70799D01*
X66098Y69800D01*
Y68800D01*
X66598Y68300D01*
X67598D01*
X68097Y68800D01*
Y69300D01*
X67598Y69800D01*
X66098D01*
X173999Y47799D02*
X173500Y48299D01*
X172500D01*
X172000Y47799D01*
Y45800D01*
X172500Y45300D01*
X173500D01*
X173999Y45800D01*
X174999Y45300D02*
Y48299D01*
X176998Y45300D01*
Y48299D01*
X177998Y45300D02*
X178998D01*
X178498D01*
Y48299D01*
X177998Y47799D01*
X305300Y108799D02*
Y106300D01*
X305800Y105800D01*
X306800D01*
X307299Y106300D01*
Y108799D01*
X310298Y108299D02*
X309799Y108799D01*
X308799D01*
X308299Y108299D01*
Y107799D01*
X308799Y107299D01*
X309799D01*
X310298Y106800D01*
Y106300D01*
X309799Y105800D01*
X308799D01*
X308299Y106300D01*
X311298Y108799D02*
Y105800D01*
X312798D01*
X313297Y106300D01*
Y106800D01*
X312798Y107299D01*
X311298D01*
X312798D01*
X313297Y107799D01*
Y108299D01*
X312798Y108799D01*
X311298D01*
X314297Y105800D02*
X315297D01*
X314797D01*
Y108799D01*
X314297Y108299D01*
X29300Y41799D02*
Y39300D01*
X29800Y38800D01*
X30799D01*
X31299Y39300D01*
Y41799D01*
X32299Y38800D02*
X33299D01*
X32799D01*
Y41799D01*
X32299Y41299D01*
X34798D02*
X35298Y41799D01*
X36298D01*
X36798Y41299D01*
Y39300D01*
X36298Y38800D01*
X35298D01*
X34798Y39300D01*
Y41299D01*
X16100Y148099D02*
Y145600D01*
X16600Y145100D01*
X17600D01*
X18099Y145600D01*
Y148099D01*
X19099Y145600D02*
X19599Y145100D01*
X20599D01*
X21098Y145600D01*
Y147599D01*
X20599Y148099D01*
X19599D01*
X19099Y147599D01*
Y147099D01*
X19599Y146599D01*
X21098D01*
X17100Y77099D02*
Y74600D01*
X17600Y74100D01*
X18599D01*
X19099Y74600D01*
Y77099D01*
X20099Y76599D02*
X20599Y77099D01*
X21599D01*
X22098Y76599D01*
Y76099D01*
X21599Y75599D01*
X22098Y75100D01*
Y74600D01*
X21599Y74100D01*
X20599D01*
X20099Y74600D01*
Y75100D01*
X20599Y75599D01*
X20099Y76099D01*
Y76599D01*
X20599Y75599D02*
X21599D01*
X77501Y279500D02*
Y277000D01*
X78001Y276501D01*
X79000D01*
X79500Y277000D01*
Y279500D01*
X82499D02*
X81499Y279000D01*
X80500Y278000D01*
Y277000D01*
X81000Y276501D01*
X81999D01*
X82499Y277000D01*
Y277500D01*
X81999Y278000D01*
X80500D01*
X67700Y174699D02*
Y172200D01*
X68200Y171700D01*
X69200D01*
X69699Y172200D01*
Y174699D01*
X72698D02*
X70699D01*
Y173199D01*
X71699Y173699D01*
X72199D01*
X72698Y173199D01*
Y172200D01*
X72199Y171700D01*
X71199D01*
X70699Y172200D01*
X128000Y44699D02*
Y42200D01*
X128500Y41700D01*
X129499D01*
X129999Y42200D01*
Y44699D01*
X132499Y41700D02*
Y44699D01*
X130999Y43200D01*
X132998D01*
X296300Y169799D02*
Y167300D01*
X296800Y166800D01*
X297799D01*
X298299Y167300D01*
Y169799D01*
X299299Y169299D02*
X299799Y169799D01*
X300799D01*
X301298Y169299D01*
Y168799D01*
X300799Y168299D01*
X300299D01*
X300799D01*
X301298Y167800D01*
Y167300D01*
X300799Y166800D01*
X299799D01*
X299299Y167300D01*
X52600Y146999D02*
Y144500D01*
X53100Y144000D01*
X54100D01*
X54599Y144500D01*
Y146999D01*
X57598Y144000D02*
X55599D01*
X57598Y145999D01*
Y146499D01*
X57099Y146999D01*
X56099D01*
X55599Y146499D01*
X178400Y196599D02*
Y194100D01*
X178900Y193600D01*
X179900D01*
X180399Y194100D01*
Y196599D01*
X181399Y193600D02*
X182399D01*
X181899D01*
Y196599D01*
X181399Y196099D01*
X146000Y19999D02*
X147999D01*
X147000D01*
Y17000D01*
X148999D02*
Y19999D01*
X150499D01*
X150998Y19499D01*
Y18499D01*
X150499Y18000D01*
X148999D01*
X153997Y17000D02*
X151998D01*
X153997Y18999D01*
Y19499D01*
X153498Y19999D01*
X152498D01*
X151998Y19499D01*
X99000Y20999D02*
X100999D01*
X100000D01*
Y18000D01*
X101999D02*
Y20999D01*
X103499D01*
X103998Y20499D01*
Y19500D01*
X103499Y19000D01*
X101999D01*
X104998Y18000D02*
X105998D01*
X105498D01*
Y20999D01*
X104998Y20499D01*
X268599Y156899D02*
X268099Y157399D01*
X267100D01*
X266600Y156899D01*
Y156399D01*
X267100Y155900D01*
X268099D01*
X268599Y155400D01*
Y154900D01*
X268099Y154400D01*
X267100D01*
X266600Y154900D01*
X269599Y157399D02*
Y154400D01*
X270599Y155400D01*
X271598Y154400D01*
Y157399D01*
X272598Y154400D02*
X273598D01*
X273098D01*
Y157399D01*
X272598Y156899D01*
X139100Y279200D02*
Y282199D01*
X140600D01*
X141099Y281699D01*
Y280699D01*
X140600Y280200D01*
X139100D01*
X140100D02*
X141099Y279200D01*
X142099Y281699D02*
X142599Y282199D01*
X143599D01*
X144098Y281699D01*
Y281199D01*
X143599Y280699D01*
X143099D01*
X143599D01*
X144098Y280200D01*
Y279700D01*
X143599Y279200D01*
X142599D01*
X142099Y279700D01*
X147097Y282199D02*
X146098Y281699D01*
X145098Y280699D01*
Y279700D01*
X145598Y279200D01*
X146598D01*
X147097Y279700D01*
Y280200D01*
X146598Y280699D01*
X145098D01*
X128600Y278800D02*
Y281799D01*
X130099D01*
X130599Y281299D01*
Y280299D01*
X130099Y279800D01*
X128600D01*
X129600D02*
X130599Y278800D01*
X131599Y281299D02*
X132099Y281799D01*
X133099D01*
X133598Y281299D01*
Y280799D01*
X133099Y280299D01*
X132599D01*
X133099D01*
X133598Y279800D01*
Y279300D01*
X133099Y278800D01*
X132099D01*
X131599Y279300D01*
X136597Y281799D02*
X134598D01*
Y280299D01*
X135598Y280799D01*
X136098D01*
X136597Y280299D01*
Y279300D01*
X136098Y278800D01*
X135098D01*
X134598Y279300D01*
X103800Y142900D02*
Y145899D01*
X105299D01*
X105799Y145399D01*
Y144399D01*
X105299Y143900D01*
X103800D01*
X104800D02*
X105799Y142900D01*
X106799Y145399D02*
X107299Y145899D01*
X108299D01*
X108798Y145399D01*
Y144899D01*
X108299Y144399D01*
X107799D01*
X108299D01*
X108798Y143900D01*
Y143400D01*
X108299Y142900D01*
X107299D01*
X106799Y143400D01*
X111298Y142900D02*
Y145899D01*
X109798Y144399D01*
X111797D01*
X90100Y68300D02*
Y71299D01*
X91600D01*
X92099Y70799D01*
Y69800D01*
X91600Y69300D01*
X90100D01*
X91100D02*
X92099Y68300D01*
X93099Y70799D02*
X93599Y71299D01*
X94599D01*
X95098Y70799D01*
Y70299D01*
X94599Y69800D01*
X94099D01*
X94599D01*
X95098Y69300D01*
Y68800D01*
X94599Y68300D01*
X93599D01*
X93099Y68800D01*
X96098Y70799D02*
X96598Y71299D01*
X97598D01*
X98097Y70799D01*
Y70299D01*
X97598Y69800D01*
X97098D01*
X97598D01*
X98097Y69300D01*
Y68800D01*
X97598Y68300D01*
X96598D01*
X96098Y68800D01*
X81100Y100200D02*
Y103199D01*
X82600D01*
X83099Y102699D01*
Y101699D01*
X82600Y101200D01*
X81100D01*
X82100D02*
X83099Y100200D01*
X84099Y102699D02*
X84599Y103199D01*
X85599D01*
X86098Y102699D01*
Y102199D01*
X85599Y101699D01*
X85099D01*
X85599D01*
X86098Y101200D01*
Y100700D01*
X85599Y100200D01*
X84599D01*
X84099Y100700D01*
X89097Y100200D02*
X87098D01*
X89097Y102199D01*
Y102699D01*
X88598Y103199D01*
X87598D01*
X87098Y102699D01*
X81100Y68300D02*
Y71299D01*
X82600D01*
X83099Y70799D01*
Y69800D01*
X82600Y69300D01*
X81100D01*
X82100D02*
X83099Y68300D01*
X84099Y70799D02*
X84599Y71299D01*
X85599D01*
X86098Y70799D01*
Y70299D01*
X85599Y69800D01*
X85099D01*
X85599D01*
X86098Y69300D01*
Y68800D01*
X85599Y68300D01*
X84599D01*
X84099Y68800D01*
X87098Y68300D02*
X88098D01*
X87598D01*
Y71299D01*
X87098Y70799D01*
X90100Y100200D02*
Y103199D01*
X91600D01*
X92099Y102699D01*
Y101699D01*
X91600Y101200D01*
X90100D01*
X91100D02*
X92099Y100200D01*
X93099Y102699D02*
X93599Y103199D01*
X94599D01*
X95098Y102699D01*
Y102199D01*
X94599Y101699D01*
X94099D01*
X94599D01*
X95098Y101200D01*
Y100700D01*
X94599Y100200D01*
X93599D01*
X93099Y100700D01*
X96098Y102699D02*
X96598Y103199D01*
X97598D01*
X98097Y102699D01*
Y100700D01*
X97598Y100200D01*
X96598D01*
X96098Y100700D01*
Y102699D01*
X60400Y84000D02*
Y86999D01*
X61900D01*
X62399Y86499D01*
Y85500D01*
X61900Y85000D01*
X60400D01*
X61400D02*
X62399Y84000D01*
X65398D02*
X63399D01*
X65398Y85999D01*
Y86499D01*
X64899Y86999D01*
X63899D01*
X63399Y86499D01*
X66398Y84500D02*
X66898Y84000D01*
X67898D01*
X68397Y84500D01*
Y86499D01*
X67898Y86999D01*
X66898D01*
X66398Y86499D01*
Y85999D01*
X66898Y85500D01*
X68397D01*
X90100Y84000D02*
Y86999D01*
X91600D01*
X92099Y86499D01*
Y85500D01*
X91600Y85000D01*
X90100D01*
X91100D02*
X92099Y84000D01*
X95098D02*
X93099D01*
X95098Y85999D01*
Y86499D01*
X94599Y86999D01*
X93599D01*
X93099Y86499D01*
X96098D02*
X96598Y86999D01*
X97598D01*
X98097Y86499D01*
Y85999D01*
X97598Y85500D01*
X98097Y85000D01*
Y84500D01*
X97598Y84000D01*
X96598D01*
X96098Y84500D01*
Y85000D01*
X96598Y85500D01*
X96098Y85999D01*
Y86499D01*
X96598Y85500D02*
X97598D01*
X105200Y111900D02*
Y114899D01*
X106700D01*
X107199Y114399D01*
Y113400D01*
X106700Y112900D01*
X105200D01*
X106200D02*
X107199Y111900D01*
X110198D02*
X108199D01*
X110198Y113899D01*
Y114399D01*
X109699Y114899D01*
X108699D01*
X108199Y114399D01*
X111198Y114899D02*
X113197D01*
Y114399D01*
X111198Y112400D01*
Y111900D01*
X81100Y84200D02*
Y87199D01*
X82600D01*
X83099Y86699D01*
Y85699D01*
X82600Y85200D01*
X81100D01*
X82100D02*
X83099Y84200D01*
X86098D02*
X84099D01*
X86098Y86199D01*
Y86699D01*
X85599Y87199D01*
X84599D01*
X84099Y86699D01*
X89097Y87199D02*
X87098D01*
Y85699D01*
X88098Y86199D01*
X88598D01*
X89097Y85699D01*
Y84700D01*
X88598Y84200D01*
X87598D01*
X87098Y84700D01*
X102800Y188900D02*
Y191899D01*
X104299D01*
X104799Y191399D01*
Y190400D01*
X104299Y189900D01*
X102800D01*
X103800D02*
X104799Y188900D01*
X107798D02*
X105799D01*
X107798Y190899D01*
Y191399D01*
X107299Y191899D01*
X106299D01*
X105799Y191399D01*
X110298Y188900D02*
Y191899D01*
X108798Y190400D01*
X110797D01*
X102800Y170900D02*
Y173899D01*
X104299D01*
X104799Y173399D01*
Y172399D01*
X104299Y171900D01*
X102800D01*
X103800D02*
X104799Y170900D01*
X107798D02*
X105799D01*
X107798Y172899D01*
Y173399D01*
X107299Y173899D01*
X106299D01*
X105799Y173399D01*
X108798D02*
X109298Y173899D01*
X110298D01*
X110797Y173399D01*
Y172899D01*
X110298Y172399D01*
X109798D01*
X110298D01*
X110797Y171900D01*
Y171400D01*
X110298Y170900D01*
X109298D01*
X108798Y171400D01*
X44800Y179900D02*
Y182899D01*
X46299D01*
X46799Y182399D01*
Y181400D01*
X46299Y180900D01*
X44800D01*
X45800D02*
X46799Y179900D01*
X49798D02*
X47799D01*
X49798Y181899D01*
Y182399D01*
X49299Y182899D01*
X48299D01*
X47799Y182399D01*
X52797Y179900D02*
X50798D01*
X52797Y181899D01*
Y182399D01*
X52298Y182899D01*
X51298D01*
X50798Y182399D01*
X44800Y188900D02*
Y191899D01*
X46299D01*
X46799Y191399D01*
Y190400D01*
X46299Y189900D01*
X44800D01*
X45800D02*
X46799Y188900D01*
X49798D02*
X47799D01*
X49798Y190899D01*
Y191399D01*
X49299Y191899D01*
X48299D01*
X47799Y191399D01*
X50798Y188900D02*
X51798D01*
X51298D01*
Y191899D01*
X50798Y191399D01*
X102700Y179900D02*
Y182899D01*
X104200D01*
X104699Y182399D01*
Y181400D01*
X104200Y180900D01*
X102700D01*
X103700D02*
X104699Y179900D01*
X107698D02*
X105699D01*
X107698Y181899D01*
Y182399D01*
X107199Y182899D01*
X106199D01*
X105699Y182399D01*
X108698D02*
X109198Y182899D01*
X110198D01*
X110697Y182399D01*
Y180400D01*
X110198Y179900D01*
X109198D01*
X108698Y180400D01*
Y182399D01*
X102700Y161900D02*
Y164899D01*
X104200D01*
X104699Y164399D01*
Y163400D01*
X104200Y162900D01*
X102700D01*
X103700D02*
X104699Y161900D01*
X105699D02*
X106699D01*
X106199D01*
Y164899D01*
X105699Y164399D01*
X108198Y162400D02*
X108698Y161900D01*
X109698D01*
X110198Y162400D01*
Y164399D01*
X109698Y164899D01*
X108698D01*
X108198Y164399D01*
Y163899D01*
X108698Y163400D01*
X110198D01*
X74800Y229900D02*
Y232899D01*
X76300D01*
X76799Y232399D01*
Y231399D01*
X76300Y230900D01*
X74800D01*
X75800D02*
X76799Y229900D01*
X77799D02*
X78799D01*
X78299D01*
Y232899D01*
X77799Y232399D01*
X80298D02*
X80798Y232899D01*
X81798D01*
X82298Y232399D01*
Y231899D01*
X81798Y231399D01*
X82298Y230900D01*
Y230400D01*
X81798Y229900D01*
X80798D01*
X80298Y230400D01*
Y230900D01*
X80798Y231399D01*
X80298Y231899D01*
Y232399D01*
X80798Y231399D02*
X81798D01*
X74800Y213900D02*
Y216899D01*
X76300D01*
X76799Y216399D01*
Y215400D01*
X76300Y214900D01*
X74800D01*
X75800D02*
X76799Y213900D01*
X77799D02*
X78799D01*
X78299D01*
Y216899D01*
X77799Y216399D01*
X80298Y216899D02*
X82298D01*
Y216399D01*
X80298Y214400D01*
Y213900D01*
X102700Y152900D02*
Y155899D01*
X104200D01*
X104699Y155399D01*
Y154400D01*
X104200Y153900D01*
X102700D01*
X103700D02*
X104699Y152900D01*
X105699D02*
X106699D01*
X106199D01*
Y155899D01*
X105699Y155399D01*
X110198Y155899D02*
X109198Y155399D01*
X108198Y154400D01*
Y153400D01*
X108698Y152900D01*
X109698D01*
X110198Y153400D01*
Y153900D01*
X109698Y154400D01*
X108198D01*
X45000Y205900D02*
Y208899D01*
X46499D01*
X46999Y208399D01*
Y207400D01*
X46499Y206900D01*
X45000D01*
X46000D02*
X46999Y205900D01*
X47999D02*
X48999D01*
X48499D01*
Y208899D01*
X47999Y208399D01*
X52498Y208899D02*
X50498D01*
Y207400D01*
X51498Y207899D01*
X51998D01*
X52498Y207400D01*
Y206400D01*
X51998Y205900D01*
X50998D01*
X50498Y206400D01*
X44800Y161900D02*
Y164899D01*
X46299D01*
X46799Y164399D01*
Y163400D01*
X46299Y162900D01*
X44800D01*
X45800D02*
X46799Y161900D01*
X47799D02*
X48799D01*
X48299D01*
Y164899D01*
X47799Y164399D01*
X51798Y161900D02*
Y164899D01*
X50298Y163400D01*
X52298D01*
X143100Y226000D02*
Y228999D01*
X144599D01*
X145099Y228499D01*
Y227500D01*
X144599Y227000D01*
X143100D01*
X144100D02*
X145099Y226000D01*
X146099D02*
X147099D01*
X146599D01*
Y228999D01*
X146099Y228499D01*
X148598D02*
X149098Y228999D01*
X150098D01*
X150598Y228499D01*
Y227999D01*
X150098Y227500D01*
X149598D01*
X150098D01*
X150598Y227000D01*
Y226500D01*
X150098Y226000D01*
X149098D01*
X148598Y226500D01*
X152100Y225990D02*
Y228989D01*
X153600D01*
X154099Y228489D01*
Y227490D01*
X153600Y226990D01*
X152100D01*
X153100D02*
X154099Y225990D01*
X155099D02*
X156099D01*
X155599D01*
Y228989D01*
X155099Y228489D01*
X159598Y225990D02*
X157598D01*
X159598Y227990D01*
Y228489D01*
X159098Y228989D01*
X158098D01*
X157598Y228489D01*
X45000Y214900D02*
Y217899D01*
X46499D01*
X46999Y217399D01*
Y216400D01*
X46499Y215900D01*
X45000D01*
X46000D02*
X46999Y214900D01*
X47999D02*
X48999D01*
X48499D01*
Y217899D01*
X47999Y217399D01*
X50498Y214900D02*
X51498D01*
X50998D01*
Y217899D01*
X50498Y217399D01*
X227500Y55900D02*
Y58899D01*
X228999D01*
X229499Y58399D01*
Y57399D01*
X228999Y56900D01*
X227500D01*
X228500D02*
X229499Y55900D01*
X230499D02*
X231499D01*
X230999D01*
Y58899D01*
X230499Y58399D01*
X232998D02*
X233498Y58899D01*
X234498D01*
X234998Y58399D01*
Y56400D01*
X234498Y55900D01*
X233498D01*
X232998Y56400D01*
Y58399D01*
X211000Y55900D02*
Y58899D01*
X212499D01*
X212999Y58399D01*
Y57399D01*
X212499Y56900D01*
X211000D01*
X212000D02*
X212999Y55900D01*
X213999Y56400D02*
X214499Y55900D01*
X215499D01*
X215998Y56400D01*
Y58399D01*
X215499Y58899D01*
X214499D01*
X213999Y58399D01*
Y57899D01*
X214499Y57399D01*
X215998D01*
X244000Y55900D02*
Y58899D01*
X245499D01*
X245999Y58399D01*
Y57399D01*
X245499Y56900D01*
X244000D01*
X245000D02*
X245999Y55900D01*
X246999Y58399D02*
X247499Y58899D01*
X248499D01*
X248998Y58399D01*
Y57899D01*
X248499Y57399D01*
X248998Y56900D01*
Y56400D01*
X248499Y55900D01*
X247499D01*
X246999Y56400D01*
Y56900D01*
X247499Y57399D01*
X246999Y57899D01*
Y58399D01*
X247499Y57399D02*
X248499D01*
X260400Y55900D02*
Y58899D01*
X261899D01*
X262399Y58399D01*
Y57399D01*
X261899Y56900D01*
X260400D01*
X261400D02*
X262399Y55900D01*
X263399Y58899D02*
X265398D01*
Y58399D01*
X263399Y56400D01*
Y55900D01*
X276700D02*
Y58899D01*
X278200D01*
X278699Y58399D01*
Y57399D01*
X278200Y56900D01*
X276700D01*
X277700D02*
X278699Y55900D01*
X281698Y58899D02*
X280699Y58399D01*
X279699Y57399D01*
Y56400D01*
X280199Y55900D01*
X281199D01*
X281698Y56400D01*
Y56900D01*
X281199Y57399D01*
X279699D01*
X268100Y105300D02*
Y108299D01*
X269600D01*
X270099Y107799D01*
Y106799D01*
X269600Y106300D01*
X268100D01*
X269100D02*
X270099Y105300D01*
X273098Y108299D02*
X271099D01*
Y106799D01*
X272099Y107299D01*
X272599D01*
X273098Y106799D01*
Y105800D01*
X272599Y105300D01*
X271599D01*
X271099Y105800D01*
X220100Y106500D02*
Y109499D01*
X221600D01*
X222099Y108999D01*
Y108000D01*
X221600Y107500D01*
X220100D01*
X221100D02*
X222099Y106500D01*
X224599D02*
Y109499D01*
X223099Y108000D01*
X225098D01*
X211100Y106500D02*
Y109499D01*
X212599D01*
X213099Y108999D01*
Y108000D01*
X212599Y107500D01*
X211100D01*
X212100D02*
X213099Y106500D01*
X214099Y108999D02*
X214599Y109499D01*
X215599D01*
X216098Y108999D01*
Y108499D01*
X215599Y108000D01*
X215099D01*
X215599D01*
X216098Y107500D01*
Y107000D01*
X215599Y106500D01*
X214599D01*
X214099Y107000D01*
X202100Y106500D02*
Y109499D01*
X203600D01*
X204099Y108999D01*
Y108000D01*
X203600Y107500D01*
X202100D01*
X203100D02*
X204099Y106500D01*
X207098D02*
X205099D01*
X207098Y108499D01*
Y108999D01*
X206599Y109499D01*
X205599D01*
X205099Y108999D01*
X193100Y106500D02*
Y109499D01*
X194599D01*
X195099Y108999D01*
Y108000D01*
X194599Y107500D01*
X193100D01*
X194100D02*
X195099Y106500D01*
X196099D02*
X197099D01*
X196599D01*
Y109499D01*
X196099Y108999D01*
X198000Y278000D02*
Y280999D01*
X199499D01*
X199999Y280499D01*
Y279500D01*
X199499Y279000D01*
X198000D01*
X200999Y278000D02*
X201999D01*
X201499D01*
Y280999D01*
X200999Y280499D01*
X104000Y135899D02*
Y132900D01*
X105999D01*
X106999Y135399D02*
X107499Y135899D01*
X108499D01*
X108998Y135399D01*
Y134899D01*
X108499Y134399D01*
X107999D01*
X108499D01*
X108998Y133900D01*
Y133400D01*
X108499Y132900D01*
X107499D01*
X106999Y133400D01*
X133600Y259999D02*
Y257000D01*
X135099D01*
X135599Y257500D01*
Y259499D01*
X135099Y259999D01*
X133600D01*
X138099Y257000D02*
Y259999D01*
X136599Y258500D01*
X138598D01*
X56101Y224900D02*
Y221901D01*
X57600D01*
X58100Y222400D01*
Y224400D01*
X57600Y224900D01*
X56101D01*
X59100Y224400D02*
X59600Y224900D01*
X60599D01*
X61099Y224400D01*
Y223900D01*
X60599Y223400D01*
X60100D01*
X60599D01*
X61099Y222900D01*
Y222400D01*
X60599Y221901D01*
X59600D01*
X59100Y222400D01*
X55801Y216799D02*
Y213801D01*
X57300D01*
X57800Y214300D01*
Y216300D01*
X57300Y216799D01*
X55801D01*
X60799Y213801D02*
X58800D01*
X60799Y215800D01*
Y216300D01*
X60299Y216799D01*
X59300D01*
X58800Y216300D01*
X23000Y184299D02*
Y181300D01*
X24499D01*
X24999Y181800D01*
Y183799D01*
X24499Y184299D01*
X23000D01*
X25999Y181300D02*
X26999D01*
X26499D01*
Y184299D01*
X25999Y183799D01*
X169199Y134699D02*
X168700Y135199D01*
X167700D01*
X167200Y134699D01*
Y132700D01*
X167700Y132200D01*
X168700D01*
X169199Y132700D01*
X172198Y132200D02*
X170199D01*
X172198Y134199D01*
Y134699D01*
X171699Y135199D01*
X170699D01*
X170199Y134699D01*
X173198Y132700D02*
X173698Y132200D01*
X174698D01*
X175197Y132700D01*
Y134699D01*
X174698Y135199D01*
X173698D01*
X173198Y134699D01*
Y134199D01*
X173698Y133700D01*
X175197D01*
X160999Y206399D02*
X160500Y206899D01*
X159500D01*
X159000Y206399D01*
Y204400D01*
X159500Y203900D01*
X160500D01*
X160999Y204400D01*
X163998Y203900D02*
X161999D01*
X163998Y205899D01*
Y206399D01*
X163499Y206899D01*
X162499D01*
X161999Y206399D01*
X164998D02*
X165498Y206899D01*
X166498D01*
X166997Y206399D01*
Y205899D01*
X166498Y205399D01*
X166997Y204900D01*
Y204400D01*
X166498Y203900D01*
X165498D01*
X164998Y204400D01*
Y204900D01*
X165498Y205399D01*
X164998Y205899D01*
Y206399D01*
X165498Y205399D02*
X166498D01*
X163099Y228499D02*
X162600Y228999D01*
X161600D01*
X161100Y228499D01*
Y226500D01*
X161600Y226000D01*
X162600D01*
X163099Y226500D01*
X166098Y226000D02*
X164099D01*
X166098Y227999D01*
Y228499D01*
X165599Y228999D01*
X164599D01*
X164099Y228499D01*
X167098Y228999D02*
X169097D01*
Y228499D01*
X167098Y226500D01*
Y226000D01*
X93099Y149799D02*
X92599Y150299D01*
X91600D01*
X91100Y149799D01*
Y147800D01*
X91600Y147300D01*
X92599D01*
X93099Y147800D01*
X96098Y147300D02*
X94099D01*
X96098Y149299D01*
Y149799D01*
X95599Y150299D01*
X94599D01*
X94099Y149799D01*
X99097Y150299D02*
X98098Y149799D01*
X97098Y148800D01*
Y147800D01*
X97598Y147300D01*
X98598D01*
X99097Y147800D01*
Y148300D01*
X98598Y148800D01*
X97098D01*
X9999Y34399D02*
X9499Y34899D01*
X8500D01*
X8000Y34399D01*
Y32400D01*
X8500Y31900D01*
X9499D01*
X9999Y32400D01*
X12998Y31900D02*
X10999D01*
X12998Y33899D01*
Y34399D01*
X12499Y34899D01*
X11499D01*
X10999Y34399D01*
X15997Y34899D02*
X13998D01*
Y33400D01*
X14998Y33899D01*
X15498D01*
X15997Y33400D01*
Y32400D01*
X15498Y31900D01*
X14498D01*
X13998Y32400D01*
X9799Y25399D02*
X9300Y25899D01*
X8300D01*
X7800Y25399D01*
Y23400D01*
X8300Y22900D01*
X9300D01*
X9799Y23400D01*
X12798Y22900D02*
X10799D01*
X12798Y24899D01*
Y25399D01*
X12299Y25899D01*
X11299D01*
X10799Y25399D01*
X15298Y22900D02*
Y25899D01*
X13798Y24399D01*
X15797D01*
X152599Y281299D02*
X152100Y281799D01*
X151100D01*
X150600Y281299D01*
Y279300D01*
X151100Y278800D01*
X152100D01*
X152599Y279300D01*
X155598Y278800D02*
X153599D01*
X155598Y280799D01*
Y281299D01*
X155099Y281799D01*
X154099D01*
X153599Y281299D01*
X156598D02*
X157098Y281799D01*
X158098D01*
X158597Y281299D01*
Y280799D01*
X158098Y280299D01*
X157598D01*
X158098D01*
X158597Y279800D01*
Y279300D01*
X158098Y278800D01*
X157098D01*
X156598Y279300D01*
X106699Y125399D02*
X106200Y125899D01*
X105200D01*
X104700Y125399D01*
Y123400D01*
X105200Y122900D01*
X106200D01*
X106699Y123400D01*
X109698Y122900D02*
X107699D01*
X109698Y124899D01*
Y125399D01*
X109199Y125899D01*
X108199D01*
X107699Y125399D01*
X112697Y122900D02*
X110698D01*
X112697Y124899D01*
Y125399D01*
X112198Y125899D01*
X111198D01*
X110698Y125399D01*
X107299Y104399D02*
X106799Y104899D01*
X105800D01*
X105300Y104399D01*
Y102400D01*
X105800Y101900D01*
X106799D01*
X107299Y102400D01*
X110298Y101900D02*
X108299D01*
X110298Y103899D01*
Y104399D01*
X109799Y104899D01*
X108799D01*
X108299Y104399D01*
X111298Y101900D02*
X112298D01*
X111798D01*
Y104899D01*
X111298Y104399D01*
X122099Y246699D02*
X121599Y247199D01*
X120600D01*
X120100Y246699D01*
Y244700D01*
X120600Y244200D01*
X121599D01*
X122099Y244700D01*
X125098Y244200D02*
X123099D01*
X125098Y246199D01*
Y246699D01*
X124599Y247199D01*
X123599D01*
X123099Y246699D01*
X126098D02*
X126598Y247199D01*
X127598D01*
X128097Y246699D01*
Y244700D01*
X127598Y244200D01*
X126598D01*
X126098Y244700D01*
Y246699D01*
X76799Y202399D02*
X76300Y202899D01*
X75300D01*
X74800Y202399D01*
Y200400D01*
X75300Y199900D01*
X76300D01*
X76799Y200400D01*
X77799Y199900D02*
X78799D01*
X78299D01*
Y202899D01*
X77799Y202399D01*
X80298Y200400D02*
X80798Y199900D01*
X81798D01*
X82298Y200400D01*
Y202399D01*
X81798Y202899D01*
X80798D01*
X80298Y202399D01*
Y201899D01*
X80798Y201399D01*
X82298D01*
X85051Y186400D02*
X84551Y186899D01*
X83551D01*
X83051Y186400D01*
Y184400D01*
X83551Y183900D01*
X84551D01*
X85051Y184400D01*
X86050Y183900D02*
X87050D01*
X86550D01*
Y186899D01*
X86050Y186400D01*
X88549D02*
X89049Y186899D01*
X90049D01*
X90549Y186400D01*
Y185900D01*
X90049Y185400D01*
X90549Y184900D01*
Y184400D01*
X90049Y183900D01*
X89049D01*
X88549Y184400D01*
Y184900D01*
X89049Y185400D01*
X88549Y185900D01*
Y186400D01*
X89049Y185400D02*
X90049D01*
X46799Y173299D02*
X46299Y173799D01*
X45300D01*
X44800Y173299D01*
Y171300D01*
X45300Y170800D01*
X46299D01*
X46799Y171300D01*
X47799Y170800D02*
X48799D01*
X48299D01*
Y173799D01*
X47799Y173299D01*
X50298Y173799D02*
X52298D01*
Y173299D01*
X50298Y171300D01*
Y170800D01*
X104799Y232399D02*
X104299Y232899D01*
X103300D01*
X102800Y232399D01*
Y230400D01*
X103300Y229900D01*
X104299D01*
X104799Y230400D01*
X105799Y229900D02*
X106799D01*
X106299D01*
Y232899D01*
X105799Y232399D01*
X110298Y232899D02*
X109298Y232399D01*
X108298Y231399D01*
Y230400D01*
X108798Y229900D01*
X109798D01*
X110298Y230400D01*
Y230900D01*
X109798Y231399D01*
X108298D01*
X104999Y216399D02*
X104499Y216899D01*
X103500D01*
X103000Y216399D01*
Y214400D01*
X103500Y213900D01*
X104499D01*
X104999Y214400D01*
X105999Y213900D02*
X106999D01*
X106499D01*
Y216899D01*
X105999Y216399D01*
X110498Y216899D02*
X108498D01*
Y215400D01*
X109498Y215899D01*
X109998D01*
X110498Y215400D01*
Y214400D01*
X109998Y213900D01*
X108998D01*
X108498Y214400D01*
X40799Y55399D02*
X40299Y55899D01*
X39300D01*
X38800Y55399D01*
Y53400D01*
X39300Y52900D01*
X40299D01*
X40799Y53400D01*
X41799Y52900D02*
X42799D01*
X42299D01*
Y55899D01*
X41799Y55399D01*
X45798Y52900D02*
Y55899D01*
X44298Y54400D01*
X46298D01*
X159099Y29799D02*
X158599Y30299D01*
X157600D01*
X157100Y29799D01*
Y27800D01*
X157600Y27300D01*
X158599D01*
X159099Y27800D01*
X160099Y27300D02*
X161099D01*
X160599D01*
Y30299D01*
X160099Y29799D01*
X162598D02*
X163098Y30299D01*
X164098D01*
X164598Y29799D01*
Y29299D01*
X164098Y28800D01*
X163598D01*
X164098D01*
X164598Y28300D01*
Y27800D01*
X164098Y27300D01*
X163098D01*
X162598Y27800D01*
X149099Y55499D02*
X148600Y55999D01*
X147600D01*
X147100Y55499D01*
Y53500D01*
X147600Y53000D01*
X148600D01*
X149099Y53500D01*
X150099Y53000D02*
X151099D01*
X150599D01*
Y55999D01*
X150099Y55499D01*
X154598Y53000D02*
X152598D01*
X154598Y54999D01*
Y55499D01*
X154098Y55999D01*
X153098D01*
X152598Y55499D01*
X159099D02*
X158599Y55999D01*
X157600D01*
X157100Y55499D01*
Y53500D01*
X157600Y53000D01*
X158599D01*
X159099Y53500D01*
X160099Y53000D02*
X161099D01*
X160599D01*
Y55999D01*
X160099Y55499D01*
X162598Y53000D02*
X163598D01*
X163098D01*
Y55999D01*
X162598Y55499D01*
X287730Y175378D02*
X287230Y175878D01*
X286231D01*
X285731Y175378D01*
Y173379D01*
X286231Y172879D01*
X287230D01*
X287730Y173379D01*
X288730Y172879D02*
X289730D01*
X289230D01*
Y175878D01*
X288730Y175378D01*
X291229D02*
X291729Y175878D01*
X292729D01*
X293229Y175378D01*
Y173379D01*
X292729Y172879D01*
X291729D01*
X291229Y173379D01*
Y175378D01*
X286000Y131240D02*
X285500Y131740D01*
X284501D01*
X284001Y131240D01*
Y129241D01*
X284501Y128741D01*
X285500D01*
X286000Y129241D01*
X287000D02*
X287500Y128741D01*
X288499D01*
X288999Y129241D01*
Y131240D01*
X288499Y131740D01*
X287500D01*
X287000Y131240D01*
Y130740D01*
X287500Y130240D01*
X288999D01*
X226999Y131399D02*
X226500Y131899D01*
X225500D01*
X225000Y131399D01*
Y129400D01*
X225500Y128900D01*
X226500D01*
X226999Y129400D01*
X227999Y131399D02*
X228499Y131899D01*
X229499D01*
X229998Y131399D01*
Y130899D01*
X229499Y130400D01*
X229998Y129900D01*
Y129400D01*
X229499Y128900D01*
X228499D01*
X227999Y129400D01*
Y129900D01*
X228499Y130400D01*
X227999Y130899D01*
Y131399D01*
X228499Y130400D02*
X229499D01*
X226999Y122399D02*
X226500Y122899D01*
X225500D01*
X225000Y122399D01*
Y120400D01*
X225500Y119900D01*
X226500D01*
X226999Y120400D01*
X227999Y122899D02*
X229998D01*
Y122399D01*
X227999Y120400D01*
Y119900D01*
X228499Y212799D02*
X227999Y213299D01*
X227000D01*
X226500Y212799D01*
Y210800D01*
X227000Y210300D01*
X227999D01*
X228499Y210800D01*
X231498Y213299D02*
X230499Y212799D01*
X229499Y211800D01*
Y210800D01*
X229999Y210300D01*
X230998D01*
X231498Y210800D01*
Y211300D01*
X230998Y211800D01*
X229499D01*
X187399Y135099D02*
X186899Y135599D01*
X185900D01*
X185400Y135099D01*
Y133100D01*
X185900Y132600D01*
X186899D01*
X187399Y133100D01*
X190398Y135599D02*
X188399D01*
Y134099D01*
X189399Y134599D01*
X189899D01*
X190398Y134099D01*
Y133100D01*
X189899Y132600D01*
X188899D01*
X188399Y133100D01*
X280099Y107799D02*
X279599Y108299D01*
X278600D01*
X278100Y107799D01*
Y105800D01*
X278600Y105300D01*
X279599D01*
X280099Y105800D01*
X282599Y105300D02*
Y108299D01*
X281099Y106799D01*
X283098D01*
X219099Y213099D02*
X218600Y213599D01*
X217600D01*
X217100Y213099D01*
Y211100D01*
X217600Y210600D01*
X218600D01*
X219099Y211100D01*
X220099Y213099D02*
X220599Y213599D01*
X221599D01*
X222098Y213099D01*
Y212599D01*
X221599Y212100D01*
X221099D01*
X221599D01*
X222098Y211600D01*
Y211100D01*
X221599Y210600D01*
X220599D01*
X220099Y211100D01*
X160999Y197399D02*
X160500Y197899D01*
X159500D01*
X159000Y197399D01*
Y195400D01*
X159500Y194900D01*
X160500D01*
X160999Y195400D01*
X163998Y194900D02*
X161999D01*
X163998Y196899D01*
Y197399D01*
X163499Y197899D01*
X162499D01*
X161999Y197399D01*
X178299Y134999D02*
X177799Y135499D01*
X176800D01*
X176300Y134999D01*
Y133000D01*
X176800Y132500D01*
X177799D01*
X178299Y133000D01*
X179299Y132500D02*
X180299D01*
X179799D01*
Y135499D01*
X179299Y134999D01*
D11*
X188473Y147933D02*
G03*
X188473Y147933I-300J0D01*
G01*
X213650Y154350D02*
Y156263D01*
X211737Y183650D02*
X213650D01*
X184350Y181737D02*
Y183650D01*
Y154350D02*
X186263D01*
X211737D02*
X213650D01*
Y181737D02*
Y183650D01*
X184350D02*
X186263D01*
X184350Y154350D02*
Y156263D01*
X82905Y273800D02*
X93058D01*
X82905Y233200D02*
X93058D01*
X94905D02*
Y273800D01*
X74808Y148078D02*
X88757D01*
X74808D02*
Y168363D01*
X88757D01*
Y148078D02*
Y168363D01*
X16357Y98490D02*
X36643D01*
X16357Y86510D02*
Y98490D01*
Y86510D02*
X36643D01*
Y98490D01*
Y50510D02*
Y62490D01*
X16357Y50510D02*
X36643D01*
X16357D02*
Y62490D01*
X36643D01*
X48446Y14510D02*
Y26490D01*
X28554Y14510D02*
X48446D01*
X28554D02*
Y26490D01*
X48446D01*
X35642Y121510D02*
Y133490D01*
X15358Y121510D02*
X35642D01*
X15358D02*
Y133490D01*
X35642D01*
D12*
X93657Y146808D02*
G03*
X93657Y146808I-591J0D01*
G01*
X86386Y149264D02*
G03*
X86386Y149264I-591J0D01*
G01*
X37612Y103061D02*
G03*
X37612Y103061I-591J0D01*
G01*
X34591Y95528D02*
G03*
X34591Y95528I-591J0D01*
G01*
Y59528D02*
G03*
X34591Y59528I-591J0D01*
G01*
X37612Y67061D02*
G03*
X37612Y67061I-591J0D01*
G01*
X46591Y23528D02*
G03*
X46591Y23528I-591J0D01*
G01*
X49530Y31415D02*
G03*
X49530Y31415I-591J0D01*
G01*
X33591Y130528D02*
G03*
X33591Y130528I-591J0D01*
G01*
X36612Y138061D02*
G03*
X36612Y138061I-591J0D01*
G01*
D13*
X111469Y218500D02*
X116900D01*
X111469Y226500D02*
X116900D01*
Y218563D02*
Y226437D01*
X102150Y218563D02*
Y226437D01*
X102200Y218500D02*
X107531D01*
X102200Y226500D02*
X107531D01*
X158360Y200500D02*
X163791D01*
X158360Y192500D02*
X163791D01*
X158360Y192563D02*
Y200437D01*
X173110Y192563D02*
Y200437D01*
X167728Y200500D02*
X173060D01*
X167728Y192500D02*
X173060D01*
X74100Y181500D02*
X79532D01*
X74100Y173500D02*
X79532D01*
X74100Y173563D02*
Y181437D01*
X88850Y173563D02*
Y181437D01*
X83469Y181500D02*
X88800D01*
X83469Y173500D02*
X88800D01*
X184800Y114460D02*
Y119891D01*
X192800Y114460D02*
Y119891D01*
X184863Y114460D02*
X192737D01*
X184863Y129210D02*
X192737D01*
X184800Y123828D02*
Y129160D01*
X192800Y123828D02*
Y129160D01*
X175700Y114360D02*
Y119791D01*
X183700Y114360D02*
Y119791D01*
X175763Y114360D02*
X183637D01*
X175763Y129110D02*
X183637D01*
X175700Y123728D02*
Y129060D01*
X183700Y123728D02*
Y129060D01*
X166600Y114100D02*
Y119532D01*
X174600Y114100D02*
Y119532D01*
X166663Y114100D02*
X174537D01*
X166663Y128850D02*
X174537D01*
X166600Y123468D02*
Y128800D01*
X174600Y123468D02*
Y128800D01*
X236209Y44500D02*
X241640D01*
X236209Y52500D02*
X241640D01*
Y44563D02*
Y52437D01*
X226890Y44563D02*
Y52437D01*
X226940Y44500D02*
X232272D01*
X226940Y52500D02*
X232272D01*
X219728Y44500D02*
X225160D01*
X219728Y52500D02*
X225160D01*
Y44563D02*
Y52437D01*
X210410Y44563D02*
Y52437D01*
X210460Y44500D02*
X215791D01*
X210460Y52500D02*
X215791D01*
X243360D02*
X248791D01*
X243360Y44500D02*
X248791D01*
X243360Y44563D02*
Y52437D01*
X258110Y44563D02*
Y52437D01*
X252728Y52500D02*
X258060D01*
X252728Y44500D02*
X258060D01*
X259840Y52500D02*
X265272D01*
X259840Y44500D02*
X265272D01*
X259840Y44563D02*
Y52437D01*
X274590Y44563D02*
Y52437D01*
X269209Y52500D02*
X274540D01*
X269209Y44500D02*
X274540D01*
X276100Y52500D02*
X281532D01*
X276100Y44500D02*
X281532D01*
X276100Y44563D02*
Y52437D01*
X290850Y44563D02*
Y52437D01*
X285469Y52500D02*
X290800D01*
X285469Y44500D02*
X290800D01*
X83469Y218500D02*
X88900D01*
X83469Y226500D02*
X88900D01*
Y218563D02*
Y226437D01*
X74150Y218563D02*
Y226437D01*
X74200Y218500D02*
X79532D01*
X74200Y226500D02*
X79532D01*
X83469Y202500D02*
X88900D01*
X83469Y210500D02*
X88900D01*
Y202563D02*
Y210437D01*
X74150Y202563D02*
Y210437D01*
X74200Y202500D02*
X79532D01*
X74200Y210500D02*
X79532D01*
X83469Y188500D02*
X88900D01*
X83469Y196500D02*
X88900D01*
Y188563D02*
Y196437D01*
X74150Y188563D02*
Y196437D01*
X74200Y188500D02*
X79532D01*
X74200Y196500D02*
X79532D01*
X59500Y50200D02*
Y55532D01*
X67500Y50200D02*
Y55532D01*
X59563Y50150D02*
X67437D01*
X59563Y64900D02*
X67437D01*
X59500Y59469D02*
Y64900D01*
X67500Y59469D02*
Y64900D01*
X164500Y44209D02*
Y49640D01*
X156500Y44209D02*
Y49640D01*
X156563D02*
X164437D01*
X156563Y34890D02*
X164437D01*
X164500Y34940D02*
Y40272D01*
X156500Y34940D02*
Y40272D01*
X164500Y18469D02*
Y23900D01*
X156500Y18469D02*
Y23900D01*
X156563D02*
X164437D01*
X156563Y9150D02*
X164437D01*
X164500Y9200D02*
Y14532D01*
X156500Y9200D02*
Y14532D01*
X47469Y41500D02*
X52900D01*
X47469Y49500D02*
X52900D01*
Y41563D02*
Y49437D01*
X38150Y41563D02*
Y49437D01*
X38200Y41500D02*
X43532D01*
X38200Y49500D02*
X43532D01*
X154500Y44209D02*
Y49640D01*
X146500Y44209D02*
Y49640D01*
X146563D02*
X154437D01*
X146563Y34890D02*
X154437D01*
X154500Y34940D02*
Y40272D01*
X146500Y34940D02*
Y40272D01*
X104100Y119500D02*
X109531D01*
X104100Y111500D02*
X109531D01*
X104100Y111563D02*
Y119437D01*
X118850Y111563D02*
Y119437D01*
X113469Y119500D02*
X118800D01*
X113469Y111500D02*
X118800D01*
X104620Y108500D02*
X110051D01*
X104620Y100500D02*
X110051D01*
X104620Y100563D02*
Y108437D01*
X119370Y100563D02*
Y108437D01*
X113988Y108500D02*
X119320D01*
X113988Y100500D02*
X119320D01*
X113988Y90500D02*
X119420D01*
X113988Y98500D02*
X119420D01*
Y90563D02*
Y98437D01*
X104670Y90563D02*
Y98437D01*
X104720Y90500D02*
X110051D01*
X104720Y98500D02*
X110051D01*
X112728Y121500D02*
X118160D01*
X112728Y129500D02*
X118160D01*
Y121563D02*
Y129437D01*
X103410Y121563D02*
Y129437D01*
X103460Y121500D02*
X108791D01*
X103460Y129500D02*
X108791D01*
X158360Y191500D02*
X163791D01*
X158360Y183500D02*
X163791D01*
X158360Y183563D02*
Y191437D01*
X173110Y183563D02*
Y191437D01*
X167728Y191500D02*
X173060D01*
X167728Y183500D02*
X173060D01*
X224500Y201728D02*
Y207160D01*
X216500Y201728D02*
Y207160D01*
X216563D02*
X224437D01*
X216563Y192410D02*
X224437D01*
X224500Y192460D02*
Y197791D01*
X216500Y192460D02*
Y197791D01*
X219500Y88360D02*
Y93791D01*
X227500Y88360D02*
Y93791D01*
X219563Y88360D02*
X227437D01*
X219563Y103110D02*
X227437D01*
X219500Y97728D02*
Y103060D01*
X227500Y97728D02*
Y103060D01*
X210500Y88360D02*
Y93791D01*
X218500Y88360D02*
Y93791D01*
X210563Y88360D02*
X218437D01*
X210563Y103110D02*
X218437D01*
X210500Y97728D02*
Y103060D01*
X218500Y97728D02*
Y103060D01*
X201500Y88360D02*
Y93791D01*
X209500Y88360D02*
Y93791D01*
X201563Y88360D02*
X209437D01*
X201563Y103110D02*
X209437D01*
X201500Y97728D02*
Y103060D01*
X209500Y97728D02*
Y103060D01*
X192500Y88360D02*
Y93791D01*
X200500Y88360D02*
Y93791D01*
X192563Y88360D02*
X200437D01*
X192563Y103110D02*
X200437D01*
X192500Y97728D02*
Y103060D01*
X200500Y97728D02*
Y103060D01*
X136000Y269969D02*
Y275400D01*
X128000Y269969D02*
Y275400D01*
X128063D02*
X135937D01*
X128063Y260650D02*
X135937D01*
X136000Y260700D02*
Y266032D01*
X128000Y260700D02*
Y266032D01*
X138500Y261100D02*
Y266531D01*
X146500Y261100D02*
Y266531D01*
X138563Y261100D02*
X146437D01*
X138563Y275850D02*
X146437D01*
X138500Y270468D02*
Y275800D01*
X146500Y270468D02*
Y275800D01*
X112469Y131500D02*
X117900D01*
X112469Y139500D02*
X117900D01*
Y131563D02*
Y139437D01*
X103150Y131563D02*
Y139437D01*
X103200Y131500D02*
X108531D01*
X103200Y139500D02*
X108531D01*
X88500Y59469D02*
Y64900D01*
X80500Y59469D02*
Y64900D01*
X80563D02*
X88437D01*
X80563Y50150D02*
X88437D01*
X88500Y50200D02*
Y55532D01*
X80500Y50200D02*
Y55532D01*
X16728Y20500D02*
X22160D01*
X16728Y28500D02*
X22160D01*
Y20563D02*
Y28437D01*
X7410Y20563D02*
Y28437D01*
X7460Y20500D02*
X12791D01*
X7460Y28500D02*
X12791D01*
X16468Y11500D02*
X21900D01*
X16468Y19500D02*
X21900D01*
Y11563D02*
Y19437D01*
X7150Y11563D02*
Y19437D01*
X7200Y11500D02*
X12531D01*
X7200Y19500D02*
X12531D01*
X158000Y269969D02*
Y275400D01*
X150000Y269969D02*
Y275400D01*
X150063D02*
X157937D01*
X150063Y260650D02*
X157937D01*
X158000Y260700D02*
Y266032D01*
X150000Y260700D02*
Y266032D01*
X98500Y138469D02*
Y143900D01*
X90500Y138469D02*
Y143900D01*
X90563D02*
X98437D01*
X90563Y129150D02*
X98437D01*
X98500Y129200D02*
Y134531D01*
X90500Y129200D02*
Y134531D01*
X67774Y75209D02*
Y80640D01*
X59774Y75209D02*
Y80640D01*
X59837D02*
X67711D01*
X59837Y65890D02*
X67711D01*
X67774Y65940D02*
Y71272D01*
X59774Y65940D02*
Y71272D01*
X80500Y82100D02*
Y87532D01*
X88500Y82100D02*
Y87532D01*
X80563Y82100D02*
X88437D01*
X80563Y96850D02*
X88437D01*
X80500Y91469D02*
Y96800D01*
X88500Y91469D02*
Y96800D01*
X80500Y66100D02*
Y71531D01*
X88500Y66100D02*
Y71531D01*
X80563Y66100D02*
X88437D01*
X80563Y80850D02*
X88437D01*
X80500Y75468D02*
Y80800D01*
X88500Y75468D02*
Y80800D01*
X89500Y82100D02*
Y87532D01*
X97500Y82100D02*
Y87532D01*
X89563Y82100D02*
X97437D01*
X89563Y96850D02*
X97437D01*
X89500Y91469D02*
Y96800D01*
X97500Y91469D02*
Y96800D01*
Y59469D02*
Y64900D01*
X89500Y59469D02*
Y64900D01*
X89563D02*
X97437D01*
X89563Y50150D02*
X97437D01*
X97500Y50200D02*
Y55532D01*
X89500Y50200D02*
Y55532D01*
X97500Y75209D02*
Y80640D01*
X89500Y75209D02*
Y80640D01*
X89563D02*
X97437D01*
X89563Y65890D02*
X97437D01*
X97500Y65940D02*
Y71272D01*
X89500Y65940D02*
Y71272D01*
X233728Y117500D02*
X239160D01*
X233728Y125500D02*
X239160D01*
Y117563D02*
Y125437D01*
X224410Y117563D02*
Y125437D01*
X224460Y117500D02*
X229791D01*
X224460Y125500D02*
X229791D01*
X233728Y108500D02*
X239160D01*
X233728Y116500D02*
X239160D01*
Y108563D02*
Y116437D01*
X224410Y108563D02*
Y116437D01*
X224460Y108500D02*
X229791D01*
X224460Y116500D02*
X229791D01*
X119500Y226100D02*
Y231532D01*
X127500Y226100D02*
Y231532D01*
X119563Y226100D02*
X127437D01*
X119563Y240850D02*
X127437D01*
X119500Y235469D02*
Y240800D01*
X127500Y235469D02*
Y240800D01*
X233900Y201428D02*
Y206860D01*
X225900Y201428D02*
Y206860D01*
X225963D02*
X233837D01*
X225963Y192110D02*
X233837D01*
X233900Y192160D02*
Y197491D01*
X225900Y192160D02*
Y197491D01*
X285480Y156978D02*
Y162410D01*
X293480Y156978D02*
Y162410D01*
X285543Y156978D02*
X293417D01*
X285543Y171728D02*
X293417D01*
X285480Y166347D02*
Y171678D01*
X293480Y166347D02*
Y171678D01*
X282500Y112840D02*
Y118272D01*
X290500Y112840D02*
Y118272D01*
X282563Y112840D02*
X290437D01*
X282563Y127590D02*
X290437D01*
X282500Y122209D02*
Y127540D01*
X290500Y122209D02*
Y127540D01*
X275500Y96469D02*
Y101900D01*
X267500Y96469D02*
Y101900D01*
X267563D02*
X275437D01*
X267563Y87150D02*
X275437D01*
X275500Y87200D02*
Y92532D01*
X267500Y87200D02*
Y92532D01*
X285500Y96469D02*
Y101900D01*
X277500Y96469D02*
Y101900D01*
X277563D02*
X285437D01*
X277563Y87150D02*
X285437D01*
X285500Y87200D02*
Y92532D01*
X277500Y87200D02*
Y92532D01*
X44360Y211500D02*
X49791D01*
X44360Y203500D02*
X49791D01*
X44360Y203563D02*
Y211437D01*
X59110Y203563D02*
Y211437D01*
X53728Y211500D02*
X59060D01*
X53728Y203500D02*
X59060D01*
X160500Y207840D02*
Y213272D01*
X168500Y207840D02*
Y213272D01*
X160563Y207840D02*
X168437D01*
X160563Y222590D02*
X168437D01*
X160500Y217209D02*
Y222540D01*
X168500Y217209D02*
Y222540D01*
X159500Y217159D02*
Y222590D01*
X151500Y217159D02*
Y222590D01*
X151563D02*
X159437D01*
X151563Y207840D02*
X159437D01*
X159500Y207890D02*
Y213222D01*
X151500Y207890D02*
Y213222D01*
X111728Y202500D02*
X117160D01*
X111728Y210500D02*
X117160D01*
Y202563D02*
Y210437D01*
X102410Y202563D02*
Y210437D01*
X102460Y202500D02*
X107791D01*
X102460Y210500D02*
X107791D01*
X142500Y207840D02*
Y213272D01*
X150500Y207840D02*
Y213272D01*
X142563Y207840D02*
X150437D01*
X142563Y222590D02*
X150437D01*
X142500Y217209D02*
Y222540D01*
X150500Y217209D02*
Y222540D01*
X53469Y150500D02*
X58900D01*
X53469Y158500D02*
X58900D01*
Y150563D02*
Y158437D01*
X44150Y150563D02*
Y158437D01*
X44200Y150500D02*
X49531D01*
X44200Y158500D02*
X49531D01*
X44240Y167400D02*
X49672D01*
X44240Y159400D02*
X49672D01*
X44240Y159463D02*
Y167337D01*
X58990Y159463D02*
Y167337D01*
X53609Y167400D02*
X58940D01*
X53609Y159400D02*
X58940D01*
X53728Y194500D02*
X59160D01*
X53728Y202500D02*
X59160D01*
Y194563D02*
Y202437D01*
X44410Y194563D02*
Y202437D01*
X44460Y194500D02*
X49791D01*
X44460Y202500D02*
X49791D01*
X102100Y149500D02*
X107531D01*
X102100Y141500D02*
X107531D01*
X102100Y141563D02*
Y149437D01*
X116850Y141563D02*
Y149437D01*
X111469Y149500D02*
X116800D01*
X111469Y141500D02*
X116800D01*
X53469Y168500D02*
X58900D01*
X53469Y176500D02*
X58900D01*
Y168563D02*
Y176437D01*
X44150Y168563D02*
Y176437D01*
X44200Y168500D02*
X49531D01*
X44200Y176500D02*
X49531D01*
X53469Y177500D02*
X58900D01*
X53469Y185500D02*
X58900D01*
Y177563D02*
Y185437D01*
X44150Y177563D02*
Y185437D01*
X44200Y177500D02*
X49531D01*
X44200Y185500D02*
X49531D01*
X102100Y176500D02*
X107531D01*
X102100Y168500D02*
X107531D01*
X102100Y168563D02*
Y176437D01*
X116850Y168563D02*
Y176437D01*
X111469Y176500D02*
X116800D01*
X111469Y168500D02*
X116800D01*
X102100Y158500D02*
X107531D01*
X102100Y150500D02*
X107531D01*
X102100Y150563D02*
Y158437D01*
X116850Y150563D02*
Y158437D01*
X111469Y158500D02*
X116800D01*
X111469Y150500D02*
X116800D01*
X111469Y177500D02*
X116900D01*
X111469Y185500D02*
X116900D01*
Y177563D02*
Y185437D01*
X102150Y177563D02*
Y185437D01*
X102200Y177500D02*
X107531D01*
X102200Y185500D02*
X107531D01*
X111469Y159500D02*
X116900D01*
X111469Y167500D02*
X116900D01*
Y159563D02*
Y167437D01*
X102150Y159563D02*
Y167437D01*
X102200Y159500D02*
X107531D01*
X102200Y167500D02*
X107531D01*
D14*
X65600Y224500D02*
X67500D01*
X65500Y213500D02*
X67400D01*
D15*
X68468Y221941D02*
Y227059D01*
X64531Y221941D02*
Y227059D01*
X64531Y210941D02*
Y216059D01*
X68468Y210941D02*
Y216059D01*
D16*
X93058Y233200D02*
X94905D01*
X93058Y273800D02*
X94905D01*
D17*
X143500Y248000D02*
X148500D01*
X144500D02*
X147500Y249500D01*
X144500Y246500D02*
Y248000D01*
X147500Y246500D01*
Y248000D01*
X144500D02*
Y249500D01*
X147500Y248000D02*
Y249500D01*
X28000Y162445D02*
Y167445D01*
Y166445D02*
X29500Y163445D01*
X26500Y166445D02*
X28000D01*
X26500Y163445D02*
X28000Y166445D01*
X26500Y163445D02*
X28000D01*
Y166445D02*
X29500D01*
X28000Y163445D02*
X29500D01*
M02*
