M48
;Layer_Color=9474304
;FILE_FORMAT=2:5
INCH,LZ
;TYPE=PLATED
T1F00S00C0.01181
T3F00S00C0.02800
T4F00S00C0.07874
;TYPE=NON_PLATED
T5F00S00C0.02756
%
T01
X006148Y0011
X009Y0015
X012179Y0013
X0087Y0095
X0061
X006874Y0117
T03
X0031624Y0033576
X0029Y00735
X0015Y00925
Y01025
X00475Y0093
X0078996Y0086509
X01012Y00971
X01052Y00751
T04
X0115827Y0075157
Y0094842
Y0117657
Y0137343
X0144173Y0137343
X0144173Y0117657
X0144173Y0094842
X0144173Y0075157
T05
X002487Y009076
Y0114225
M30
