G04*
G04 #@! TF.GenerationSoftware,Altium Limited,Altium Designer,22.0.2 (36)*
G04*
G04 Layer_Color=255*
%FSLAX25Y25*%
%MOIN*%
G70*
G04*
G04 #@! TF.SameCoordinates,6254A404-E27F-44A1-9D7E-EC7B5FB13BA1*
G04*
G04*
G04 #@! TF.FilePolarity,Positive*
G04*
G01*
G75*
%ADD13R,0.02362X0.02362*%
%ADD14R,0.05709X0.02362*%
%ADD15R,0.05709X0.01181*%
%ADD16R,0.05118X0.05906*%
%ADD17O,0.06817X0.01350*%
%ADD18C,0.04000*%
%ADD19R,0.05906X0.05118*%
%ADD20R,0.08661X0.13780*%
%ADD21R,0.08661X0.04331*%
%ADD22R,0.07874X0.07874*%
%ADD40C,0.11811*%
%ADD41O,0.08268X0.03937*%
%ADD42O,0.06299X0.03937*%
%ADD43C,0.02756*%
D13*
X17500Y65000D02*
D03*
Y59094D02*
D03*
X7500Y59547D02*
D03*
Y65453D02*
D03*
D14*
X30559Y115189D02*
D03*
Y112138D02*
D03*
Y92847D02*
D03*
Y89815D02*
D03*
D15*
Y109382D02*
D03*
X30557Y107413D02*
D03*
X30559Y105445D02*
D03*
Y103477D02*
D03*
Y101508D02*
D03*
Y99539D02*
D03*
Y97571D02*
D03*
Y95602D02*
D03*
D16*
X86240Y95500D02*
D03*
X78760D02*
D03*
X121740Y53000D02*
D03*
X114260D02*
D03*
X121740Y33000D02*
D03*
X114260D02*
D03*
X114310Y13000D02*
D03*
X121790D02*
D03*
X114310Y43000D02*
D03*
X121790D02*
D03*
X114260Y23000D02*
D03*
X121740D02*
D03*
X88740Y15000D02*
D03*
X81260D02*
D03*
X88950Y33000D02*
D03*
X81470D02*
D03*
X81520Y24000D02*
D03*
X89000D02*
D03*
X61260Y117000D02*
D03*
X68740D02*
D03*
X68980Y95000D02*
D03*
X61500D02*
D03*
X61480Y11000D02*
D03*
X54000D02*
D03*
X53740Y80000D02*
D03*
X46260D02*
D03*
X53740Y70000D02*
D03*
X46260D02*
D03*
X38760Y37500D02*
D03*
X46240D02*
D03*
Y57500D02*
D03*
X38760D02*
D03*
X46240Y47500D02*
D03*
X38760D02*
D03*
X61260Y106000D02*
D03*
X68740D02*
D03*
D17*
X67435Y60177D02*
D03*
Y57618D02*
D03*
Y55059D02*
D03*
Y52500D02*
D03*
Y49941D02*
D03*
Y47382D02*
D03*
Y44823D02*
D03*
Y42264D02*
D03*
X90000Y60177D02*
D03*
Y57618D02*
D03*
Y55059D02*
D03*
Y52500D02*
D03*
Y49941D02*
D03*
Y47382D02*
D03*
Y44823D02*
D03*
Y42264D02*
D03*
D18*
X96000Y5000D02*
D03*
D19*
X7500Y38760D02*
D03*
Y46240D02*
D03*
X17500Y38760D02*
D03*
Y46240D02*
D03*
D20*
X10300Y17500D02*
D03*
D21*
X34700Y26555D02*
D03*
Y17500D02*
D03*
Y8445D02*
D03*
D22*
X58000Y21000D02*
D03*
Y39110D02*
D03*
D40*
X115827Y75157D02*
D03*
Y94842D02*
D03*
X144173Y94842D02*
D03*
X144173Y75157D02*
D03*
X115827Y117657D02*
D03*
Y137343D02*
D03*
X144173Y137343D02*
D03*
X144173Y117657D02*
D03*
D41*
X26957Y119500D02*
D03*
Y85484D02*
D03*
D42*
X10500Y119500D02*
D03*
Y85484D02*
D03*
D43*
X24870Y114225D02*
D03*
Y90760D02*
D03*
M02*
