G04*
G04 #@! TF.GenerationSoftware,Altium Limited,Altium Designer,22.0.2 (36)*
G04*
G04 Layer_Color=65535*
%FSLAX25Y25*%
%MOIN*%
G70*
G04*
G04 #@! TF.SameCoordinates,6254A404-E27F-44A1-9D7E-EC7B5FB13BA1*
G04*
G04*
G04 #@! TF.FilePolarity,Positive*
G04*
G01*
G75*
%ADD10C,0.01181*%
%ADD11C,0.01000*%
%ADD12C,0.00787*%
G36*
X7500Y62500D02*
X8600Y61600D01*
X6400D01*
X7500Y62500D01*
X6400Y63400D01*
X8600D01*
X7500Y62500D01*
D02*
G37*
G36*
X17500Y62047D02*
X18600Y61147D01*
X16400D01*
X17500Y62047D01*
X16400Y62947D01*
X18600D01*
X17500Y62047D01*
D02*
G37*
D10*
X90592Y39808D02*
G03*
X90592Y39808I-591J0D01*
G01*
X83321Y42263D02*
G03*
X83321Y42263I-591J0D01*
G01*
D11*
X99000Y5000D02*
G03*
X99000Y5000I-3000J0D01*
G01*
X15532Y59488D02*
Y64606D01*
X19469Y59488D02*
Y64606D01*
X16600Y62047D02*
X18500D01*
X32001Y119492D02*
X32529D01*
X14560D02*
X21913D01*
X529Y85492D02*
X6440D01*
X529D02*
Y119492D01*
X6440D01*
X14560Y85492D02*
X21913D01*
X32529D02*
Y87724D01*
X32001Y85492D02*
X32529D01*
Y117280D02*
Y119492D01*
X84469Y91500D02*
X89900D01*
X84469Y99500D02*
X89900D01*
Y91563D02*
Y99437D01*
X75150Y91563D02*
Y99437D01*
X75200Y91500D02*
X80532D01*
X75200Y99500D02*
X80532D01*
X119969Y49000D02*
X125400D01*
X119969Y57000D02*
X125400D01*
Y49063D02*
Y56937D01*
X110650Y49063D02*
Y56937D01*
X110700Y49000D02*
X116032D01*
X110700Y57000D02*
X116032D01*
X119969Y29000D02*
X125400D01*
X119969Y37000D02*
X125400D01*
Y29063D02*
Y36937D01*
X110650Y29063D02*
Y36937D01*
X110700Y29000D02*
X116032D01*
X110700Y37000D02*
X116032D01*
X110650Y17000D02*
X116082D01*
X110650Y9000D02*
X116082D01*
X110650Y9063D02*
Y16937D01*
X125400Y9063D02*
Y16937D01*
X120019Y17000D02*
X125350D01*
X120019Y9000D02*
X125350D01*
X110650Y47000D02*
X116082D01*
X110650Y39000D02*
X116082D01*
X110650Y39063D02*
Y46937D01*
X125400Y39063D02*
Y46937D01*
X120019Y47000D02*
X125350D01*
X120019Y39000D02*
X125350D01*
X110600Y27000D02*
X116032D01*
X110600Y19000D02*
X116032D01*
X110600Y19063D02*
Y26937D01*
X125350Y19063D02*
Y26937D01*
X119969Y27000D02*
X125300D01*
X119969Y19000D02*
X125300D01*
X86969Y11000D02*
X92400D01*
X86969Y19000D02*
X92400D01*
Y11063D02*
Y18937D01*
X77650Y11063D02*
Y18937D01*
X77700Y11000D02*
X83032D01*
X77700Y19000D02*
X83032D01*
X87178Y29000D02*
X92610D01*
X87178Y37000D02*
X92610D01*
Y29063D02*
Y36937D01*
X77860Y29063D02*
Y36937D01*
X77910Y29000D02*
X83241D01*
X77910Y37000D02*
X83241D01*
X71743Y41078D02*
X85692D01*
X71743D02*
Y61363D01*
X85692D01*
Y41078D02*
Y61363D01*
X77860Y28000D02*
X83291D01*
X77860Y20000D02*
X83291D01*
X77860Y20063D02*
Y27937D01*
X92610Y20063D02*
Y27937D01*
X87228Y28000D02*
X92560D01*
X87228Y20000D02*
X92560D01*
X57600Y121000D02*
X63032D01*
X57600Y113000D02*
X63032D01*
X57600Y113063D02*
Y120937D01*
X72350Y113063D02*
Y120937D01*
X66969Y121000D02*
X72300D01*
X66969Y113000D02*
X72300D01*
X67209Y91000D02*
X72640D01*
X67209Y99000D02*
X72640D01*
Y91063D02*
Y98937D01*
X57890Y91063D02*
Y98937D01*
X57940Y91000D02*
X63272D01*
X57940Y99000D02*
X63272D01*
X59709Y7000D02*
X65140D01*
X59709Y15000D02*
X65140D01*
Y7063D02*
Y14937D01*
X50390Y7063D02*
Y14937D01*
X50440Y7000D02*
X55772D01*
X50440Y15000D02*
X55772D01*
X51969Y76000D02*
X57400D01*
X51969Y84000D02*
X57400D01*
Y76063D02*
Y83937D01*
X42650Y76063D02*
Y83937D01*
X42700Y76000D02*
X48032D01*
X42700Y84000D02*
X48032D01*
X51969Y66000D02*
X57400D01*
X51969Y74000D02*
X57400D01*
Y66063D02*
Y73937D01*
X42650Y66063D02*
Y73937D01*
X42700Y66000D02*
X48032D01*
X42700Y74000D02*
X48032D01*
X6600Y62500D02*
X8500D01*
X9469Y59941D02*
Y65059D01*
X5532Y59941D02*
Y65059D01*
X3500Y35100D02*
Y40532D01*
X11500Y35100D02*
Y40532D01*
X3563Y35100D02*
X11437D01*
X3563Y49850D02*
X11437D01*
X3500Y44469D02*
Y49800D01*
X11500Y44469D02*
Y49800D01*
X13500Y35100D02*
Y40532D01*
X21500Y35100D02*
Y40532D01*
X13563Y35100D02*
X21437D01*
X13563Y49850D02*
X21437D01*
X13500Y44469D02*
Y49800D01*
X21500Y44469D02*
Y49800D01*
X15413Y3524D02*
X29587D01*
X15413Y31476D02*
X29587D01*
Y3524D02*
Y31476D01*
X15413Y3524D02*
Y31476D01*
X35100Y41500D02*
X40532D01*
X35100Y33500D02*
X40532D01*
X35100Y33563D02*
Y41437D01*
X49850Y33563D02*
Y41437D01*
X44469Y41500D02*
X49800D01*
X44469Y33500D02*
X49800D01*
X44469Y53500D02*
X49900D01*
X44469Y61500D02*
X49900D01*
Y53563D02*
Y61437D01*
X35150Y53563D02*
Y61437D01*
X35200Y53500D02*
X40532D01*
X35200Y61500D02*
X40532D01*
X44469Y43500D02*
X49900D01*
X44469Y51500D02*
X49900D01*
Y43563D02*
Y51437D01*
X35150Y43563D02*
Y51437D01*
X35200Y43500D02*
X40532D01*
X35200Y51500D02*
X40532D01*
X57600Y110000D02*
X63032D01*
X57600Y102000D02*
X63032D01*
X57600Y102063D02*
Y109937D01*
X72350Y102063D02*
Y109937D01*
X66969Y110000D02*
X72300D01*
X66969Y102000D02*
X72300D01*
X58000Y27555D02*
Y32555D01*
Y31555D02*
X59500Y28555D01*
X56500Y31555D02*
X58000D01*
X56500Y28555D02*
X58000Y31555D01*
X56500Y28555D02*
X58000D01*
Y31555D02*
X59500D01*
X58000Y28555D02*
X59500D01*
X52488Y33555D02*
X63512D01*
Y21000D02*
Y39110D01*
X52488Y21000D02*
X52488Y39110D01*
X62847D02*
X63512D01*
X52488D02*
X53153D01*
X62847Y21000D02*
X63512D01*
X52488D02*
X53153D01*
X127503Y67999D02*
Y64000D01*
X129503Y62001D01*
X131502Y64000D01*
Y67999D01*
X134501Y62001D02*
X136500D01*
X137500Y63001D01*
Y65000D01*
X136500Y66000D01*
X134501D01*
X133501Y65000D01*
Y63001D01*
X134501Y62001D01*
X139499Y66000D02*
Y63001D01*
X140499Y62001D01*
X143498D01*
Y66000D01*
X146497Y66999D02*
Y66000D01*
X145497D01*
X147497D01*
X146497D01*
Y63001D01*
X147497Y62001D01*
X133501Y109499D02*
X132502Y110499D01*
X130502D01*
X129503Y109499D01*
Y105501D01*
X130502Y104501D01*
X132502D01*
X133501Y105501D01*
Y107500D01*
X131502D01*
X135501Y104501D02*
Y110499D01*
X139499Y104501D01*
Y110499D01*
X141499D02*
Y104501D01*
X144498D01*
X145497Y105501D01*
Y109499D01*
X144498Y110499D01*
X141499D01*
X15001Y71047D02*
Y68047D01*
X16500D01*
X17000Y68547D01*
Y70547D01*
X16500Y71047D01*
X15001D01*
X18000Y70547D02*
X18500Y71047D01*
X19499D01*
X19999Y70547D01*
Y70047D01*
X19499Y69547D01*
X19000D01*
X19499D01*
X19999Y69047D01*
Y68547D01*
X19499Y68047D01*
X18500D01*
X18000Y68547D01*
X66000Y134167D02*
X66666D01*
X66333D01*
Y136166D01*
X66000Y135833D01*
X68666Y134167D02*
Y136166D01*
X67666Y135166D01*
X68999D01*
X71665Y134167D02*
Y135499D01*
X72331Y136166D01*
X72998Y135499D01*
Y134167D01*
Y135166D01*
X71665D01*
X73664Y133500D02*
Y135499D01*
X74664D01*
X74997Y135166D01*
Y134500D01*
X74664Y134167D01*
X73664D01*
X75664Y135499D02*
Y134167D01*
Y134833D01*
X75997Y135166D01*
X76330Y135499D01*
X76663D01*
X77996Y133833D02*
X78329Y134167D01*
Y134500D01*
X77996D01*
Y134167D01*
X78329D01*
X77996Y133833D01*
X77663Y133500D01*
X82995Y134167D02*
X81662D01*
X82995Y135499D01*
Y135833D01*
X82661Y136166D01*
X81995D01*
X81662Y135833D01*
X83661D02*
X83994Y136166D01*
X84661D01*
X84994Y135833D01*
Y134500D01*
X84661Y134167D01*
X83994D01*
X83661Y134500D01*
Y135833D01*
X86993Y134167D02*
X85660D01*
X86993Y135499D01*
Y135833D01*
X86660Y136166D01*
X85993D01*
X85660Y135833D01*
X88993Y134167D02*
X87660D01*
X88993Y135499D01*
Y135833D01*
X88659Y136166D01*
X87993D01*
X87660Y135833D01*
X40499Y144999D02*
X38500D01*
Y142000D01*
X40499D01*
X38500Y143499D02*
X39500D01*
X41499Y142000D02*
X42999D01*
X43498Y142499D01*
X42999Y142999D01*
X41999D01*
X41499Y143499D01*
X41999Y143999D01*
X43498D01*
X44998Y144499D02*
Y143999D01*
X44498D01*
X45498D01*
X44998D01*
Y142499D01*
X45498Y142000D01*
X46997Y144999D02*
Y142000D01*
Y143499D01*
X47497Y143999D01*
X48497D01*
X48997Y143499D01*
Y142000D01*
X51496D02*
X50496D01*
X49996Y142499D01*
Y143499D01*
X50496Y143999D01*
X51496D01*
X51996Y143499D01*
Y142999D01*
X49996D01*
X52995Y143999D02*
Y142000D01*
Y142999D01*
X53495Y143499D01*
X53995Y143999D01*
X54495D01*
X58993Y144999D02*
X60993D01*
Y144499D01*
X58993Y142499D01*
Y142000D01*
X60993D01*
X61992Y144999D02*
Y142000D01*
Y143499D01*
X62492Y143999D01*
X63492D01*
X63992Y143499D01*
Y142000D01*
X65491Y143999D02*
X66491D01*
X66991Y143499D01*
Y142000D01*
X65491D01*
X64991Y142499D01*
X65491Y142999D01*
X66991D01*
X67990Y142000D02*
Y143999D01*
X69490D01*
X69990Y143499D01*
Y142000D01*
X71989Y141000D02*
X72489D01*
X72989Y141500D01*
Y143999D01*
X71489D01*
X70990Y143499D01*
Y142499D01*
X71489Y142000D01*
X72989D01*
X12031Y126491D02*
Y123992D01*
X12531Y123493D01*
X13531D01*
X14030Y123992D01*
Y126491D01*
X17030Y125992D02*
X16530Y126491D01*
X15530D01*
X15030Y125992D01*
Y125492D01*
X15530Y124992D01*
X16530D01*
X17030Y124492D01*
Y123992D01*
X16530Y123493D01*
X15530D01*
X15030Y123992D01*
X18029Y126491D02*
Y123493D01*
X19529D01*
X20029Y123992D01*
Y124492D01*
X19529Y124992D01*
X18029D01*
X19529D01*
X20029Y125492D01*
Y125992D01*
X19529Y126491D01*
X18029D01*
X23028Y123493D02*
X21028D01*
X23028Y125492D01*
Y125992D01*
X22528Y126491D01*
X21528D01*
X21028Y125992D01*
X64600Y67699D02*
Y65200D01*
X65100Y64700D01*
X66100D01*
X66599Y65200D01*
Y67699D01*
X69598D02*
X67599D01*
Y66199D01*
X68599Y66699D01*
X69099D01*
X69598Y66199D01*
Y65200D01*
X69099Y64700D01*
X68099D01*
X67599Y65200D01*
X5501Y6499D02*
Y4000D01*
X6001Y3500D01*
X7000D01*
X7500Y4000D01*
Y6499D01*
X8500Y3500D02*
X9499D01*
X8999D01*
Y6499D01*
X8500Y6000D01*
X101001Y5000D02*
X103001D01*
X102001Y6000D02*
Y4000D01*
X106000Y6499D02*
X104000D01*
Y5000D01*
X105000Y5500D01*
X105500D01*
X106000Y5000D01*
Y4000D01*
X105500Y3500D01*
X104500D01*
X104000Y4000D01*
X106999Y6499D02*
Y4500D01*
X107999Y3500D01*
X108999Y4500D01*
Y6499D01*
X101001Y51500D02*
Y54500D01*
X102501D01*
X103001Y54000D01*
Y53000D01*
X102501Y52500D01*
X101001D01*
X102001D02*
X103001Y51500D01*
X106000D02*
X104000D01*
X106000Y53500D01*
Y54000D01*
X105500Y54500D01*
X104500D01*
X104000Y54000D01*
X108499Y51500D02*
Y54500D01*
X106999Y53000D01*
X108999D01*
X101501Y31501D02*
Y34499D01*
X103001D01*
X103501Y34000D01*
Y33000D01*
X103001Y32500D01*
X101501D01*
X102501D02*
X103501Y31501D01*
X106500D02*
X104500D01*
X106500Y33500D01*
Y34000D01*
X106000Y34499D01*
X105000D01*
X104500Y34000D01*
X107499D02*
X107999Y34499D01*
X108999D01*
X109499Y34000D01*
Y33500D01*
X108999Y33000D01*
X108499D01*
X108999D01*
X109499Y32500D01*
Y32000D01*
X108999Y31501D01*
X107999D01*
X107499Y32000D01*
X33001Y68501D02*
Y71500D01*
X34501D01*
X35001Y71000D01*
Y70000D01*
X34501Y69500D01*
X33001D01*
X34001D02*
X35001Y68501D01*
X38000D02*
X36000D01*
X38000Y70500D01*
Y71000D01*
X37500Y71500D01*
X36500D01*
X36000Y71000D01*
X40999Y68501D02*
X38999D01*
X40999Y70500D01*
Y71000D01*
X40499Y71500D01*
X39499D01*
X38999Y71000D01*
X33501Y78500D02*
Y81499D01*
X35001D01*
X35500Y81000D01*
Y80000D01*
X35001Y79500D01*
X33501D01*
X34501D02*
X35500Y78500D01*
X38500D02*
X36500D01*
X38500Y80500D01*
Y81000D01*
X38000Y81499D01*
X37000D01*
X36500Y81000D01*
X39499Y78500D02*
X40499D01*
X39999D01*
Y81499D01*
X39499Y81000D01*
X101551Y41500D02*
Y44499D01*
X103051D01*
X103551Y44000D01*
Y43000D01*
X103051Y42500D01*
X101551D01*
X102551D02*
X103551Y41500D01*
X106550D02*
X104550D01*
X106550Y43500D01*
Y44000D01*
X106050Y44499D01*
X105050D01*
X104550Y44000D01*
X107549D02*
X108049Y44499D01*
X109049D01*
X109549Y44000D01*
Y42000D01*
X109049Y41500D01*
X108049D01*
X107549Y42000D01*
Y44000D01*
X101751Y21500D02*
Y24499D01*
X103251D01*
X103751Y24000D01*
Y23000D01*
X103251Y22500D01*
X101751D01*
X102751D02*
X103751Y21500D01*
X104750D02*
X105750D01*
X105250D01*
Y24499D01*
X104750Y24000D01*
X107249Y22000D02*
X107749Y21500D01*
X108749D01*
X109249Y22000D01*
Y24000D01*
X108749Y24499D01*
X107749D01*
X107249Y24000D01*
Y23500D01*
X107749Y23000D01*
X109249D01*
X26251Y56001D02*
Y59000D01*
X27751D01*
X28251Y58500D01*
Y57500D01*
X27751Y57000D01*
X26251D01*
X27251D02*
X28251Y56001D01*
X29250D02*
X30250D01*
X29750D01*
Y59000D01*
X29250Y58500D01*
X31749D02*
X32249Y59000D01*
X33249D01*
X33749Y58500D01*
Y58000D01*
X33249Y57500D01*
X33749Y57000D01*
Y56500D01*
X33249Y56001D01*
X32249D01*
X31749Y56500D01*
Y57000D01*
X32249Y57500D01*
X31749Y58000D01*
Y58500D01*
X32249Y57500D02*
X33249D01*
X26051Y46200D02*
Y49200D01*
X27551D01*
X28051Y48700D01*
Y47700D01*
X27551Y47200D01*
X26051D01*
X27051D02*
X28051Y46200D01*
X29050D02*
X30050D01*
X29550D01*
Y49200D01*
X29050Y48700D01*
X31549Y49200D02*
X33549D01*
Y48700D01*
X31549Y46700D01*
Y46200D01*
X101751Y11501D02*
Y14500D01*
X103251D01*
X103751Y14000D01*
Y13000D01*
X103251Y12500D01*
X101751D01*
X102751D02*
X103751Y11501D01*
X104750D02*
X105750D01*
X105250D01*
Y14500D01*
X104750Y14000D01*
X109249Y14500D02*
X108249Y14000D01*
X107249Y13000D01*
Y12000D01*
X107749Y11501D01*
X108749D01*
X109249Y12000D01*
Y12500D01*
X108749Y13000D01*
X107249D01*
X68251Y13500D02*
Y16499D01*
X69751D01*
X70251Y16000D01*
Y15000D01*
X69751Y14500D01*
X68251D01*
X69251D02*
X70251Y13500D01*
X71250D02*
X72250D01*
X71750D01*
Y16499D01*
X71250Y16000D01*
X75749Y16499D02*
X73749D01*
Y15000D01*
X74749Y15500D01*
X75249D01*
X75749Y15000D01*
Y14000D01*
X75249Y13500D01*
X74249D01*
X73749Y14000D01*
X49251Y93501D02*
Y96500D01*
X50751D01*
X51251Y96000D01*
Y95000D01*
X50751Y94500D01*
X49251D01*
X50251D02*
X51251Y93501D01*
X52250D02*
X53250D01*
X52750D01*
Y96500D01*
X52250Y96000D01*
X56249Y93501D02*
Y96500D01*
X54749Y95000D01*
X56749D01*
X49751Y104500D02*
Y107500D01*
X51251D01*
X51750Y107000D01*
Y106000D01*
X51251Y105500D01*
X49751D01*
X50751D02*
X51750Y104500D01*
X52750D02*
X53750D01*
X53250D01*
Y107500D01*
X52750Y107000D01*
X55249Y104500D02*
X56249D01*
X55749D01*
Y107500D01*
X55249Y107000D01*
X5001Y71500D02*
Y68501D01*
X6500D01*
X7000Y69000D01*
Y71000D01*
X6500Y71500D01*
X5001D01*
X9999Y68501D02*
X8000D01*
X9999Y70500D01*
Y71000D01*
X9499Y71500D01*
X8500D01*
X8000Y71000D01*
X53000Y49399D02*
Y46400D01*
X54500D01*
X54999Y46900D01*
Y48899D01*
X54500Y49399D01*
X53000D01*
X55999Y46400D02*
X56999D01*
X56499D01*
Y49399D01*
X55999Y48899D01*
X70751Y34000D02*
X70251Y34499D01*
X69251D01*
X68751Y34000D01*
Y32000D01*
X69251Y31501D01*
X70251D01*
X70751Y32000D01*
X71750Y31501D02*
X72750D01*
X72250D01*
Y34499D01*
X71750Y34000D01*
X74249Y32000D02*
X74749Y31501D01*
X75749D01*
X76249Y32000D01*
Y34000D01*
X75749Y34499D01*
X74749D01*
X74249Y34000D01*
Y33500D01*
X74749Y33000D01*
X76249D01*
X70751Y25000D02*
X70251Y25499D01*
X69251D01*
X68751Y25000D01*
Y23000D01*
X69251Y22501D01*
X70251D01*
X70751Y23000D01*
X71750Y22501D02*
X72750D01*
X72250D01*
Y25499D01*
X71750Y25000D01*
X74249D02*
X74749Y25499D01*
X75749D01*
X76249Y25000D01*
Y24500D01*
X75749Y24000D01*
X76249Y23500D01*
Y23000D01*
X75749Y22501D01*
X74749D01*
X74249Y23000D01*
Y23500D01*
X74749Y24000D01*
X74249Y24500D01*
Y25000D01*
X74749Y24000D02*
X75749D01*
X93251Y96500D02*
X92751Y97000D01*
X91751D01*
X91251Y96500D01*
Y94500D01*
X91751Y94001D01*
X92751D01*
X93251Y94500D01*
X94250Y94001D02*
X95250D01*
X94750D01*
Y97000D01*
X94250Y96500D01*
X96749Y97000D02*
X98749D01*
Y96500D01*
X96749Y94500D01*
Y94001D01*
X15751Y53500D02*
X15251Y54000D01*
X14251D01*
X13751Y53500D01*
Y51500D01*
X14251Y51000D01*
X15251D01*
X15751Y51500D01*
X16750Y51000D02*
X17750D01*
X17250D01*
Y54000D01*
X16750Y53500D01*
X21249Y54000D02*
X20249Y53500D01*
X19249Y52500D01*
Y51500D01*
X19749Y51000D01*
X20749D01*
X21249Y51500D01*
Y52000D01*
X20749Y52500D01*
X19249D01*
X5751Y53500D02*
X5251Y54000D01*
X4251D01*
X3751Y53500D01*
Y51500D01*
X4251Y51000D01*
X5251D01*
X5751Y51500D01*
X6750Y51000D02*
X7750D01*
X7250D01*
Y54000D01*
X6750Y53500D01*
X11249Y54000D02*
X9249D01*
Y52500D01*
X10249Y53000D01*
X10749D01*
X11249Y52500D01*
Y51500D01*
X10749Y51000D01*
X9749D01*
X9249Y51500D01*
X29500Y38500D02*
X29000Y39000D01*
X28001D01*
X27501Y38500D01*
Y36500D01*
X28001Y36000D01*
X29000D01*
X29500Y36500D01*
X30500Y38500D02*
X31000Y39000D01*
X31999D01*
X32499Y38500D01*
Y38000D01*
X31999Y37500D01*
X31499D01*
X31999D01*
X32499Y37000D01*
Y36500D01*
X31999Y36000D01*
X31000D01*
X30500Y36500D01*
X46000Y12000D02*
X45500Y12500D01*
X44501D01*
X44001Y12000D01*
Y10000D01*
X44501Y9500D01*
X45500D01*
X46000Y10000D01*
X48999Y9500D02*
X47000D01*
X48999Y11500D01*
Y12000D01*
X48499Y12500D01*
X47500D01*
X47000Y12000D01*
X54000Y118000D02*
X53500Y118500D01*
X52500D01*
X52001Y118000D01*
Y116000D01*
X52500Y115500D01*
X53500D01*
X54000Y116000D01*
X55000Y115500D02*
X55999D01*
X55500D01*
Y118500D01*
X55000Y118000D01*
D12*
X118976Y69252D02*
X141024Y69252D01*
X114252Y81653D02*
Y88346D01*
X118976Y100748D02*
X141024D01*
X145748Y81555D02*
Y88346D01*
X118976Y111752D02*
X141024Y111752D01*
X114252Y124153D02*
Y130847D01*
X118976Y143248D02*
X141024D01*
X145748Y124055D02*
Y130847D01*
M02*
