G04*
G04 #@! TF.GenerationSoftware,Altium Limited,Altium Designer,22.0.2 (36)*
G04*
G04 Layer_Color=8388736*
%FSLAX25Y25*%
%MOIN*%
G70*
G04*
G04 #@! TF.SameCoordinates,6254A404-E27F-44A1-9D7E-EC7B5FB13BA1*
G04*
G04*
G04 #@! TF.FilePolarity,Negative*
G04*
G01*
G75*
%ADD23R,0.03162X0.03162*%
%ADD24R,0.06509X0.03162*%
%ADD25R,0.06509X0.01981*%
%ADD26R,0.05918X0.06706*%
%ADD27O,0.07617X0.02150*%
%ADD28C,0.04800*%
%ADD29R,0.06706X0.05918*%
%ADD30R,0.09461X0.14580*%
%ADD31R,0.09461X0.05131*%
%ADD32R,0.08674X0.08674*%
%ADD33C,0.12611*%
%ADD34O,0.09068X0.04737*%
%ADD35O,0.07099X0.04737*%
%ADD36C,0.03556*%
%ADD37C,0.05800*%
%ADD38C,0.03162*%
D23*
X17500Y65000D02*
D03*
Y59094D02*
D03*
X7500Y59547D02*
D03*
Y65453D02*
D03*
D24*
X30559Y115189D02*
D03*
Y112138D02*
D03*
Y92847D02*
D03*
Y89815D02*
D03*
D25*
Y109382D02*
D03*
X30557Y107413D02*
D03*
X30559Y105445D02*
D03*
Y103477D02*
D03*
Y101508D02*
D03*
Y99539D02*
D03*
Y97571D02*
D03*
Y95602D02*
D03*
D26*
X86240Y95500D02*
D03*
X78760D02*
D03*
X121740Y53000D02*
D03*
X114260D02*
D03*
X121740Y33000D02*
D03*
X114260D02*
D03*
X114310Y13000D02*
D03*
X121790D02*
D03*
X114310Y43000D02*
D03*
X121790D02*
D03*
X114260Y23000D02*
D03*
X121740D02*
D03*
X88740Y15000D02*
D03*
X81260D02*
D03*
X88950Y33000D02*
D03*
X81470D02*
D03*
X81520Y24000D02*
D03*
X89000D02*
D03*
X61260Y117000D02*
D03*
X68740D02*
D03*
X68980Y95000D02*
D03*
X61500D02*
D03*
X61480Y11000D02*
D03*
X54000D02*
D03*
X53740Y80000D02*
D03*
X46260D02*
D03*
X53740Y70000D02*
D03*
X46260D02*
D03*
X38760Y37500D02*
D03*
X46240D02*
D03*
Y57500D02*
D03*
X38760D02*
D03*
X46240Y47500D02*
D03*
X38760D02*
D03*
X61260Y106000D02*
D03*
X68740D02*
D03*
D27*
X67435Y60177D02*
D03*
Y57618D02*
D03*
Y55059D02*
D03*
Y52500D02*
D03*
Y49941D02*
D03*
Y47382D02*
D03*
Y44823D02*
D03*
Y42264D02*
D03*
X90000Y60177D02*
D03*
Y57618D02*
D03*
Y55059D02*
D03*
Y52500D02*
D03*
Y49941D02*
D03*
Y47382D02*
D03*
Y44823D02*
D03*
Y42264D02*
D03*
D28*
X96000Y5000D02*
D03*
D29*
X7500Y38760D02*
D03*
Y46240D02*
D03*
X17500Y38760D02*
D03*
Y46240D02*
D03*
D30*
X10300Y17500D02*
D03*
D31*
X34700Y26555D02*
D03*
Y17500D02*
D03*
Y8445D02*
D03*
D32*
X58000Y21000D02*
D03*
Y39110D02*
D03*
D33*
X115827Y75157D02*
D03*
Y94842D02*
D03*
X144173Y94842D02*
D03*
X144173Y75157D02*
D03*
X115827Y117657D02*
D03*
Y137343D02*
D03*
X144173Y137343D02*
D03*
X144173Y117657D02*
D03*
D34*
X26957Y119500D02*
D03*
Y85484D02*
D03*
D35*
X10500Y119500D02*
D03*
Y85484D02*
D03*
D36*
X24870Y114225D02*
D03*
Y90760D02*
D03*
D37*
X31624Y33576D02*
D03*
X29000Y73500D02*
D03*
X78996Y86509D02*
D03*
X15000Y102500D02*
D03*
X47500Y93000D02*
D03*
X15000Y92500D02*
D03*
X105200Y75100D02*
D03*
X101200Y97100D02*
D03*
D38*
X87000Y95000D02*
D03*
X61000D02*
D03*
X68740Y117000D02*
D03*
X121790Y13000D02*
D03*
X90000Y15000D02*
D03*
X61480Y11000D02*
D03*
M02*
