G04*
G04 #@! TF.GenerationSoftware,Altium Limited,Altium Designer,22.0.2 (36)*
G04*
G04 Layer_Color=32768*
%FSLAX25Y25*%
%MOIN*%
G70*
G04*
G04 #@! TF.SameCoordinates,6254A404-E27F-44A1-9D7E-EC7B5FB13BA1*
G04*
G04*
G04 #@! TF.FilePolarity,Positive*
G04*
G01*
G75*
%ADD10C,0.01181*%
%ADD11C,0.01000*%
G36*
X7500Y62500D02*
X8600Y61600D01*
X6400D01*
X7500Y62500D01*
X6400Y63400D01*
X8600D01*
X7500Y62500D01*
D02*
G37*
G36*
X17500Y62047D02*
X18600Y61147D01*
X16400D01*
X17500Y62047D01*
X16400Y62947D01*
X18600D01*
X17500Y62047D01*
D02*
G37*
G36*
X58291Y36431D02*
X58208Y36393D01*
X57356D01*
X57382Y41786D01*
X57449Y41801D01*
X58301D01*
X58291Y36431D01*
D02*
G37*
G36*
X58560Y23285D02*
X58557Y21075D01*
X59758D01*
X59778Y21105D01*
Y20645D01*
X59758Y20625D01*
X58556D01*
X58553Y18295D01*
X58568Y18281D01*
X58127D01*
X58118Y18271D01*
X58109Y18263D01*
Y20625D01*
X56338D01*
X56318Y20645D01*
Y21065D01*
X56328Y21075D01*
X58109D01*
Y23689D01*
X58534D01*
X58560Y23285D01*
D02*
G37*
D10*
X93482Y42263D02*
G03*
X93482Y42263I-591J0D01*
G01*
D11*
X37500Y8500D02*
G03*
X37500Y8500I-500J0D01*
G01*
M02*
