G04*
G04 #@! TF.GenerationSoftware,Altium Limited,Altium Designer,22.0.2 (36)*
G04*
G04 Layer_Color=8421504*
%FSLAX25Y25*%
%MOIN*%
G70*
G04*
G04 #@! TF.SameCoordinates,01E328F9-A8C1-4934-924A-DB3E3AA3EC65*
G04*
G04*
G04 #@! TF.FilePolarity,Positive*
G04*
G01*
G75*
%ADD17R,0.05118X0.05906*%
%ADD18R,0.05709X0.02362*%
%ADD19R,0.05709X0.01181*%
%ADD20O,0.06817X0.01350*%
%ADD21C,0.04000*%
%ADD22R,0.02362X0.02362*%
%ADD23R,0.05906X0.05118*%
%ADD24R,0.08661X0.13780*%
%ADD25R,0.08661X0.04331*%
%ADD26R,0.07874X0.07874*%
D17*
X86240Y96000D02*
D03*
X78760D02*
D03*
X121740Y53000D02*
D03*
X114260D02*
D03*
X121740Y33000D02*
D03*
X114260D02*
D03*
X114310Y13000D02*
D03*
X121790D02*
D03*
X114310Y43000D02*
D03*
X121790D02*
D03*
X114260Y23000D02*
D03*
X121740D02*
D03*
X88740Y15000D02*
D03*
X81260D02*
D03*
X88950Y33000D02*
D03*
X81470D02*
D03*
X81520Y24000D02*
D03*
X89000D02*
D03*
X61260Y117000D02*
D03*
X68740D02*
D03*
Y96000D02*
D03*
X61260D02*
D03*
X61480Y11000D02*
D03*
X54000D02*
D03*
X53740Y80000D02*
D03*
X46260D02*
D03*
X53740Y70000D02*
D03*
X46260D02*
D03*
X38760Y37500D02*
D03*
X46240D02*
D03*
Y57500D02*
D03*
X38760D02*
D03*
X46240Y47500D02*
D03*
X38760D02*
D03*
X61260Y106000D02*
D03*
X68740D02*
D03*
D18*
X30530Y89823D02*
D03*
Y92855D02*
D03*
Y112146D02*
D03*
Y115197D02*
D03*
D19*
Y95610D02*
D03*
Y97579D02*
D03*
Y99547D02*
D03*
Y101516D02*
D03*
Y103485D02*
D03*
Y105453D02*
D03*
X30528Y107421D02*
D03*
X30530Y109390D02*
D03*
D20*
X67435Y60177D02*
D03*
Y57618D02*
D03*
Y55059D02*
D03*
Y52500D02*
D03*
Y49941D02*
D03*
Y47382D02*
D03*
Y44823D02*
D03*
Y42264D02*
D03*
X90000Y60177D02*
D03*
Y57618D02*
D03*
Y55059D02*
D03*
Y52500D02*
D03*
Y49941D02*
D03*
Y47382D02*
D03*
Y44823D02*
D03*
Y42264D02*
D03*
D21*
X96000Y5000D02*
D03*
D22*
X17500Y59094D02*
D03*
Y65000D02*
D03*
X7500Y59547D02*
D03*
Y65453D02*
D03*
D23*
Y38760D02*
D03*
Y46240D02*
D03*
X17500Y38760D02*
D03*
Y46240D02*
D03*
D24*
X10300Y17500D02*
D03*
D25*
X34700Y26555D02*
D03*
Y17500D02*
D03*
Y8445D02*
D03*
D26*
X58000Y21000D02*
D03*
Y39110D02*
D03*
M02*
