G04*
G04 #@! TF.GenerationSoftware,Altium Limited,Altium Designer,21.6.4 (81)*
G04*
G04 Layer_Physical_Order=3*
G04 Layer_Color=128*
%FSLAX25Y25*%
%MOIN*%
G70*
G04*
G04 #@! TF.SameCoordinates,D17E0072-19AB-4E61-9357-99CEFC96D61D*
G04*
G04*
G04 #@! TF.FilePolarity,Negative*
G04*
G01*
G75*
%ADD10C,0.01000*%
%ADD82C,0.04000*%
%ADD83C,0.06756*%
%ADD86C,0.08724*%
G04:AMPARAMS|DCode=87|XSize=107.244mil|YSize=107.244mil|CornerRadius=0mil|HoleSize=0mil|Usage=FLASHONLY|Rotation=0.000|XOffset=0mil|YOffset=0mil|HoleType=Round|Shape=Relief|Width=10mil|Gap=10mil|Entries=4|*
%AMTHD87*
7,0,0,0.10724,0.08724,0.01000,45*
%
%ADD87THD87*%
%ADD90C,0.08134*%
G04:AMPARAMS|DCode=92|XSize=71.811mil|YSize=71.811mil|CornerRadius=0mil|HoleSize=0mil|Usage=FLASHONLY|Rotation=0.000|XOffset=0mil|YOffset=0mil|HoleType=Round|Shape=Relief|Width=10mil|Gap=10mil|Entries=4|*
%AMTHD92*
7,0,0,0.07181,0.05181,0.01000,45*
%
%ADD92THD92*%
%ADD93C,0.05181*%
%ADD94C,0.01500*%
%ADD95O,0.08724X0.06362*%
%ADD96O,0.11087X0.06362*%
%ADD97O,0.09906X0.06756*%
D10*
X20000Y146000D02*
Y184000D01*
X28000Y192000D01*
X28000D01*
X126000Y192000D01*
X138000Y180000D01*
Y8000D02*
Y180000D01*
X130000Y0D02*
X138000Y8000D01*
X32000Y0D02*
X130000D01*
X26000Y6000D02*
X32000Y0D01*
X20516Y516D02*
X26000Y6000D01*
Y140000D01*
X20000Y146000D02*
X26000Y140000D01*
X6000Y146000D02*
X20000D01*
X0Y140000D02*
X6000Y146000D01*
X0Y8000D02*
Y140000D01*
Y8000D02*
X8000Y0D01*
X10000D01*
X0D02*
X28000D01*
D82*
X0D02*
X330000D01*
Y290000D01*
X0D02*
X330000D01*
X0Y0D02*
Y290000D01*
D83*
X25940Y203967D02*
D03*
Y227432D02*
D03*
X308967Y76071D02*
D03*
Y95165D02*
D03*
D86*
X271500Y29500D02*
D03*
Y19500D02*
D03*
X261500Y29500D02*
D03*
Y19500D02*
D03*
X251500Y29500D02*
D03*
Y19500D02*
D03*
X241500Y29500D02*
D03*
Y19500D02*
D03*
X231500Y29500D02*
D03*
Y19500D02*
D03*
X221500Y29500D02*
D03*
Y19500D02*
D03*
X211500Y29500D02*
D03*
Y19500D02*
D03*
X201500Y29500D02*
D03*
Y19500D02*
D03*
X191500Y29500D02*
D03*
Y19500D02*
D03*
D87*
X281500Y29500D02*
D03*
Y19500D02*
D03*
D90*
X312500Y269500D02*
D03*
Y259500D02*
D03*
X302500Y269500D02*
D03*
Y259500D02*
D03*
X292500Y269500D02*
D03*
Y259500D02*
D03*
X282500Y269500D02*
D03*
Y259500D02*
D03*
X272500Y269500D02*
D03*
Y259500D02*
D03*
X262500Y269500D02*
D03*
Y259500D02*
D03*
X252500Y269500D02*
D03*
Y259500D02*
D03*
X242500Y269500D02*
D03*
Y259500D02*
D03*
X232500Y269500D02*
D03*
Y259500D02*
D03*
X222500Y269500D02*
D03*
Y259500D02*
D03*
X212500Y269500D02*
D03*
Y259500D02*
D03*
X202500Y269500D02*
D03*
Y259500D02*
D03*
D92*
X270980Y48500D02*
D03*
X214020D02*
D03*
X254500D02*
D03*
X34000Y81939D02*
D03*
X19000Y103061D02*
D03*
Y67061D02*
D03*
X33000Y116939D02*
D03*
X287240Y48500D02*
D03*
X271500Y90760D02*
D03*
X289480Y160638D02*
D03*
X220500Y196020D02*
D03*
X189300Y118100D02*
D03*
X179700Y125500D02*
D03*
X179200Y132000D02*
D03*
X216760Y123760D02*
D03*
X170000Y188000D02*
D03*
X28043Y155965D02*
D03*
X160500Y38500D02*
D03*
X148500Y10500D02*
D03*
X150500Y38500D02*
D03*
X128999Y35240D02*
D03*
X129382Y27500D02*
D03*
X101500Y11500D02*
D03*
X41760Y45500D02*
D03*
X46000Y9585D02*
D03*
X18240Y15500D02*
D03*
X18000Y138061D02*
D03*
X80700Y126500D02*
D03*
D93*
X41300Y231700D02*
D03*
X38400Y200100D02*
D03*
X37400Y207200D02*
D03*
X113240Y222500D02*
D03*
X40800Y224300D02*
D03*
X123500Y237240D02*
D03*
X162020Y196500D02*
D03*
X234100Y216500D02*
D03*
X227500Y175500D02*
D03*
X301200Y93900D02*
D03*
X187793Y167793D02*
D03*
X195600Y169500D02*
D03*
X66500Y221547D02*
D03*
X71200Y212100D02*
D03*
X115800Y231700D02*
D03*
X47900Y163400D02*
D03*
X47760Y154500D02*
D03*
X94500Y140240D02*
D03*
X113240Y145500D02*
D03*
X10760Y15500D02*
D03*
X36000Y9585D02*
D03*
Y31415D02*
D03*
X46000D02*
D03*
X49240Y45500D02*
D03*
X93500Y61240D02*
D03*
X84500Y85760D02*
D03*
X93500Y93240D02*
D03*
X80700Y117445D02*
D03*
X115240Y115500D02*
D03*
X196500Y92020D02*
D03*
X205500D02*
D03*
X214500D02*
D03*
X230500Y48500D02*
D03*
X150500Y45980D02*
D03*
X160500D02*
D03*
Y12760D02*
D03*
X220500Y203500D02*
D03*
X320326Y153500D02*
D03*
X272500Y147248D02*
D03*
X286500Y116500D02*
D03*
X281500Y90760D02*
D03*
X223500Y92020D02*
D03*
X235500Y112500D02*
D03*
Y121500D02*
D03*
X170600Y117760D02*
D03*
X179700Y118020D02*
D03*
X206200Y135800D02*
D03*
X162020Y187500D02*
D03*
X146500Y218980D02*
D03*
X113500Y206500D02*
D03*
X85240Y192500D02*
D03*
X76000Y244000D02*
D03*
X74000Y264000D02*
D03*
X60000Y242000D02*
D03*
X62000Y266000D02*
D03*
X68000Y254000D02*
D03*
X109310Y266886D02*
D03*
Y253500D02*
D03*
X154000Y271740D02*
D03*
X142500Y272240D02*
D03*
X155265Y248557D02*
D03*
X289480Y168118D02*
D03*
X123500Y229760D02*
D03*
X164500Y218980D02*
D03*
X155500Y218930D02*
D03*
X109310Y240114D02*
D03*
X48020Y207500D02*
D03*
X92500Y120500D02*
D03*
X138500Y68500D02*
D03*
X151500Y170500D02*
D03*
X167500Y173500D02*
D03*
X144500Y160500D02*
D03*
X151500Y161500D02*
D03*
X155500Y156500D02*
D03*
X132500Y202500D02*
D03*
X234500Y128500D02*
D03*
X239500Y131500D02*
D03*
X244500Y134500D02*
D03*
X229500Y135500D02*
D03*
X183500Y196500D02*
D03*
X204500Y39500D02*
D03*
X250417Y86013D02*
D03*
X209500Y161500D02*
D03*
X247500Y158500D02*
D03*
X222230Y151364D02*
D03*
X307500Y209500D02*
D03*
X252500Y146500D02*
D03*
X259500Y158500D02*
D03*
X229500Y168500D02*
D03*
X235500Y167500D02*
D03*
X200500Y224500D02*
D03*
X193500Y268500D02*
D03*
X180500Y261500D02*
D03*
X193500Y200500D02*
D03*
X210205Y172937D02*
D03*
X167500Y153500D02*
D03*
X164500Y147500D02*
D03*
X167500Y142500D02*
D03*
X172500Y139500D02*
D03*
X136500Y145086D02*
D03*
X170500Y203500D02*
D03*
X41500Y125500D02*
D03*
X74500Y72500D02*
D03*
X43359Y215922D02*
D03*
X117500Y215500D02*
D03*
X47500Y190500D02*
D03*
X37000Y185945D02*
D03*
X63500Y202500D02*
D03*
X60640Y161400D02*
D03*
X64142Y150635D02*
D03*
X72078Y189129D02*
D03*
X80500Y163500D02*
D03*
X76500Y145500D02*
D03*
X92500Y199500D02*
D03*
X22036Y218340D02*
D03*
X92500Y215500D02*
D03*
X121500Y150500D02*
D03*
X120838Y260871D02*
D03*
X110935Y45238D02*
D03*
X49500Y64500D02*
D03*
X28500Y145308D02*
D03*
X90500Y43500D02*
D03*
X11500Y38500D02*
D03*
X19500Y93500D02*
D03*
X41500Y92500D02*
D03*
D94*
X144000Y290000D02*
X172000Y262000D01*
Y214000D02*
Y262000D01*
X150000Y192000D02*
X172000Y214000D01*
X17000Y285000D02*
X20000Y288000D01*
X8000Y276000D02*
X11000Y279000D01*
X28000Y192000D02*
X150000D01*
X8000Y212000D02*
X28000Y192000D01*
X8000Y212000D02*
Y276000D01*
X11000Y279000D02*
X17000Y285000D01*
X138500Y180500D02*
X162000Y204000D01*
X316000D01*
X330000Y190000D01*
Y8000D02*
Y190000D01*
X322000Y0D02*
X330000Y8000D01*
X146000Y0D02*
X322000D01*
X138000Y8000D02*
X146000Y0D01*
D95*
X11570Y198692D02*
D03*
Y232708D02*
D03*
D96*
X28027Y198692D02*
D03*
Y232708D02*
D03*
D97*
X319479Y99791D02*
D03*
Y71445D02*
D03*
M02*
