G04*
G04 #@! TF.GenerationSoftware,Altium Limited,Altium Designer,21.6.4 (81)*
G04*
G04 Layer_Color=255*
%FSLAX25Y25*%
%MOIN*%
G70*
G04*
G04 #@! TF.SameCoordinates,D17E0072-19AB-4E61-9357-99CEFC96D61D*
G04*
G04*
G04 #@! TF.FilePolarity,Positive*
G04*
G01*
G75*
%ADD72C,0.02756*%
%ADD73O,0.06299X0.03937*%
%ADD74O,0.08268X0.03937*%
%ADD75R,0.07087X0.07087*%
%ADD76C,0.07087*%
%ADD77O,0.08661X0.05118*%
%ADD78C,0.05118*%
%ADD79R,0.06299X0.06299*%
%ADD80C,0.06299*%
D72*
X25940Y203967D02*
D03*
Y227432D02*
D03*
D73*
X11570Y198692D02*
D03*
Y232708D02*
D03*
D74*
X28027Y198692D02*
D03*
Y232708D02*
D03*
D75*
X281500Y29500D02*
D03*
D76*
Y19500D02*
D03*
X271500Y29500D02*
D03*
Y19500D02*
D03*
X261500Y29500D02*
D03*
Y19500D02*
D03*
X251500Y29500D02*
D03*
Y19500D02*
D03*
X241500Y29500D02*
D03*
Y19500D02*
D03*
X231500Y29500D02*
D03*
Y19500D02*
D03*
X221500Y29500D02*
D03*
Y19500D02*
D03*
X211500Y29500D02*
D03*
Y19500D02*
D03*
X201500Y29500D02*
D03*
Y19500D02*
D03*
X191500Y29500D02*
D03*
Y19500D02*
D03*
D77*
X319479Y99791D02*
D03*
Y71445D02*
D03*
D78*
X308967Y76071D02*
D03*
Y95165D02*
D03*
D79*
X312500Y269500D02*
D03*
D80*
Y259500D02*
D03*
X302500Y269500D02*
D03*
Y259500D02*
D03*
X292500Y269500D02*
D03*
Y259500D02*
D03*
X282500Y269500D02*
D03*
Y259500D02*
D03*
X272500Y269500D02*
D03*
Y259500D02*
D03*
X262500Y269500D02*
D03*
Y259500D02*
D03*
X252500Y269500D02*
D03*
Y259500D02*
D03*
X242500Y269500D02*
D03*
Y259500D02*
D03*
X232500Y269500D02*
D03*
Y259500D02*
D03*
X222500Y269500D02*
D03*
Y259500D02*
D03*
X212500Y269500D02*
D03*
Y259500D02*
D03*
X202500Y269500D02*
D03*
Y259500D02*
D03*
M02*
