G04*
G04 #@! TF.GenerationSoftware,Altium Limited,Altium Designer,21.6.4 (81)*
G04*
G04 Layer_Color=8388736*
%FSLAX25Y25*%
%MOIN*%
G70*
G04*
G04 #@! TF.SameCoordinates,D17E0072-19AB-4E61-9357-99CEFC96D61D*
G04*
G04*
G04 #@! TF.FilePolarity,Negative*
G04*
G01*
G75*
%ADD23R,0.01200X0.04700*%
%ADD24R,0.04700X0.01200*%
%ADD41R,0.05918X0.06706*%
%ADD42R,0.06509X0.03162*%
%ADD43R,0.06509X0.01981*%
%ADD44R,0.04737X0.03162*%
%ADD45R,0.03162X0.03162*%
%ADD46R,0.30410X0.42400*%
%ADD47R,0.12937X0.04816*%
%ADD48R,0.06706X0.05918*%
%ADD49O,0.07617X0.02150*%
%ADD50O,0.03280X0.08143*%
%ADD51R,0.06312X0.02375*%
%ADD52C,0.04800*%
%ADD53O,0.03115X0.08851*%
%ADD54R,0.09461X0.14580*%
%ADD55R,0.09461X0.05131*%
%ADD56R,0.08674X0.08674*%
%ADD57R,0.06706X0.03162*%
%ADD58R,0.10249X0.11824*%
%ADD59R,0.06706X0.08280*%
%ADD60R,0.08674X0.08674*%
%ADD61C,0.03556*%
%ADD62O,0.07099X0.04737*%
%ADD63O,0.09068X0.04737*%
%ADD64R,0.07887X0.07887*%
%ADD65C,0.07887*%
%ADD66O,0.09461X0.05918*%
%ADD67C,0.05918*%
%ADD68R,0.07099X0.07099*%
%ADD69C,0.07099*%
%ADD70C,0.03162*%
D23*
X188173Y152268D02*
D03*
X190142D02*
D03*
X192110D02*
D03*
X194079D02*
D03*
X196047D02*
D03*
X198016D02*
D03*
X199984D02*
D03*
X201953D02*
D03*
X203921D02*
D03*
X205890D02*
D03*
X207858D02*
D03*
X209827D02*
D03*
Y185732D02*
D03*
X207858D02*
D03*
X205890D02*
D03*
X203921D02*
D03*
X201953D02*
D03*
X199984D02*
D03*
X198016D02*
D03*
X196047D02*
D03*
X194079D02*
D03*
X192110D02*
D03*
X190142D02*
D03*
X188173D02*
D03*
D24*
X215732Y158173D02*
D03*
Y160142D02*
D03*
Y162110D02*
D03*
Y164079D02*
D03*
Y166047D02*
D03*
Y168016D02*
D03*
Y169984D02*
D03*
Y171953D02*
D03*
Y173921D02*
D03*
Y175890D02*
D03*
Y177858D02*
D03*
Y179827D02*
D03*
X182268D02*
D03*
Y177858D02*
D03*
Y175890D02*
D03*
Y173921D02*
D03*
Y171953D02*
D03*
Y169984D02*
D03*
Y168016D02*
D03*
Y166047D02*
D03*
Y164079D02*
D03*
Y162110D02*
D03*
Y160142D02*
D03*
Y158173D02*
D03*
D41*
X113240Y222500D02*
D03*
X105760D02*
D03*
X162020Y196500D02*
D03*
X169500D02*
D03*
X77760Y177500D02*
D03*
X85240D02*
D03*
X237980Y48500D02*
D03*
X230500D02*
D03*
X221500D02*
D03*
X214020D02*
D03*
X247020D02*
D03*
X254500D02*
D03*
X263500D02*
D03*
X270980D02*
D03*
X279760D02*
D03*
X287240D02*
D03*
X85240Y222500D02*
D03*
X77760D02*
D03*
X85240Y206500D02*
D03*
X77760D02*
D03*
X85240Y192500D02*
D03*
X77760D02*
D03*
X49240Y45500D02*
D03*
X41760D02*
D03*
X107760Y115500D02*
D03*
X115240D02*
D03*
X108280Y104500D02*
D03*
X115760D02*
D03*
Y94500D02*
D03*
X108280D02*
D03*
X114500Y125500D02*
D03*
X107020D02*
D03*
X162020Y187500D02*
D03*
X169500D02*
D03*
X114240Y135500D02*
D03*
X106760D02*
D03*
X18500Y24500D02*
D03*
X11020D02*
D03*
X18240Y15500D02*
D03*
X10760D02*
D03*
X235500Y121500D02*
D03*
X228020D02*
D03*
X235500Y112500D02*
D03*
X228020D02*
D03*
X48020Y207500D02*
D03*
X55500D02*
D03*
X113500Y206500D02*
D03*
X106020D02*
D03*
X55240Y154500D02*
D03*
X47760D02*
D03*
X47900Y163400D02*
D03*
X55380D02*
D03*
X55500Y198500D02*
D03*
X48020D02*
D03*
X105760Y145500D02*
D03*
X113240D02*
D03*
X55240Y172500D02*
D03*
X47760D02*
D03*
X55240Y181500D02*
D03*
X47760D02*
D03*
X105760Y172500D02*
D03*
X113240D02*
D03*
X105760Y154500D02*
D03*
X113240D02*
D03*
X113240Y181500D02*
D03*
X105760D02*
D03*
X113240Y163500D02*
D03*
X105760D02*
D03*
D42*
X31629Y203023D02*
D03*
Y206054D02*
D03*
Y225346D02*
D03*
Y228397D02*
D03*
D43*
Y208810D02*
D03*
Y210779D02*
D03*
Y212747D02*
D03*
Y214716D02*
D03*
Y216685D02*
D03*
Y218653D02*
D03*
X31628Y220621D02*
D03*
X31629Y222590D02*
D03*
D44*
X139619Y34980D02*
D03*
X139618Y27500D02*
D03*
X129382Y27500D02*
D03*
X129382Y31240D02*
D03*
X129382Y34980D02*
D03*
D45*
X66500Y221547D02*
D03*
Y227453D02*
D03*
Y216453D02*
D03*
Y210547D02*
D03*
D46*
X67500Y253500D02*
D03*
D47*
X109310Y266886D02*
D03*
Y260193D02*
D03*
Y253500D02*
D03*
Y246807D02*
D03*
Y240114D02*
D03*
D48*
X188800Y118120D02*
D03*
Y125600D02*
D03*
X179700Y118020D02*
D03*
Y125500D02*
D03*
X170600Y117760D02*
D03*
Y125240D02*
D03*
X63500Y53760D02*
D03*
Y61240D02*
D03*
X160500Y45980D02*
D03*
Y38500D02*
D03*
Y20240D02*
D03*
Y12760D02*
D03*
X150500Y45980D02*
D03*
Y38500D02*
D03*
X220500Y203500D02*
D03*
Y196020D02*
D03*
X223500Y92020D02*
D03*
Y99500D02*
D03*
X214500Y92020D02*
D03*
Y99500D02*
D03*
X205500Y92020D02*
D03*
Y99500D02*
D03*
X196500Y92020D02*
D03*
Y99500D02*
D03*
X132000Y271740D02*
D03*
Y264260D02*
D03*
X142500Y264760D02*
D03*
Y272240D02*
D03*
X84500Y61240D02*
D03*
Y53760D02*
D03*
X154000Y271740D02*
D03*
Y264260D02*
D03*
X94500Y140240D02*
D03*
Y132760D02*
D03*
X63774Y76980D02*
D03*
Y69500D02*
D03*
X84500Y85760D02*
D03*
Y93240D02*
D03*
Y69760D02*
D03*
Y77240D02*
D03*
X93500Y85760D02*
D03*
Y93240D02*
D03*
Y61240D02*
D03*
Y53760D02*
D03*
Y76980D02*
D03*
Y69500D02*
D03*
X123500Y229760D02*
D03*
Y237240D02*
D03*
X229900Y203200D02*
D03*
Y195720D02*
D03*
X289480Y160638D02*
D03*
Y168118D02*
D03*
X286500Y116500D02*
D03*
Y123980D02*
D03*
X271500Y98240D02*
D03*
Y90760D02*
D03*
X281500Y98240D02*
D03*
Y90760D02*
D03*
X164500Y211500D02*
D03*
Y218980D02*
D03*
X155500Y218930D02*
D03*
Y211450D02*
D03*
X146500Y211500D02*
D03*
Y218980D02*
D03*
D49*
X70500Y167177D02*
D03*
Y164618D02*
D03*
Y162059D02*
D03*
Y159500D02*
D03*
Y156941D02*
D03*
Y154382D02*
D03*
Y151823D02*
D03*
Y149264D02*
D03*
X93065Y167177D02*
D03*
Y164618D02*
D03*
Y162059D02*
D03*
Y159500D02*
D03*
Y156941D02*
D03*
Y154382D02*
D03*
Y151823D02*
D03*
Y149264D02*
D03*
D50*
X19000Y81939D02*
D03*
X24000D02*
D03*
X29000D02*
D03*
X34000D02*
D03*
X19000Y103061D02*
D03*
X24000D02*
D03*
X29000D02*
D03*
X34000D02*
D03*
Y67061D02*
D03*
X29000D02*
D03*
X24000D02*
D03*
X19000D02*
D03*
X34000Y45939D02*
D03*
X29000D02*
D03*
X24000D02*
D03*
X19000D02*
D03*
X33000Y138061D02*
D03*
X28000D02*
D03*
X23000D02*
D03*
X18000D02*
D03*
X33000Y116939D02*
D03*
X28000D02*
D03*
X23000D02*
D03*
X18000D02*
D03*
D51*
X307500Y90736D02*
D03*
Y88177D02*
D03*
Y85618D02*
D03*
Y83059D02*
D03*
Y80500D02*
D03*
D52*
X101500Y11500D02*
D03*
X148500Y10500D02*
D03*
D53*
X46000Y31415D02*
D03*
X41000D02*
D03*
X36000D02*
D03*
X31000D02*
D03*
X46000Y9585D02*
D03*
X41000D02*
D03*
X36000D02*
D03*
X31000D02*
D03*
D54*
X56300Y126500D02*
D03*
D55*
X80700Y135555D02*
D03*
Y126500D02*
D03*
Y117445D02*
D03*
D56*
X155055Y248000D02*
D03*
X136945D02*
D03*
D57*
X320326Y145626D02*
D03*
Y149563D02*
D03*
Y153500D02*
D03*
Y157437D02*
D03*
Y161374D02*
D03*
X298673D02*
D03*
Y157437D02*
D03*
Y153500D02*
D03*
Y149563D02*
D03*
Y145626D02*
D03*
D58*
X309500Y153500D02*
D03*
D59*
X272500Y147248D02*
D03*
Y115752D02*
D03*
D60*
X28000Y155890D02*
D03*
Y174000D02*
D03*
D61*
X25940Y203967D02*
D03*
Y227432D02*
D03*
D62*
X11570Y198692D02*
D03*
Y232708D02*
D03*
D63*
X28027Y198692D02*
D03*
Y232708D02*
D03*
D64*
X281500Y29500D02*
D03*
D65*
Y19500D02*
D03*
X271500Y29500D02*
D03*
Y19500D02*
D03*
X261500Y29500D02*
D03*
Y19500D02*
D03*
X251500Y29500D02*
D03*
Y19500D02*
D03*
X241500Y29500D02*
D03*
Y19500D02*
D03*
X231500Y29500D02*
D03*
Y19500D02*
D03*
X221500Y29500D02*
D03*
Y19500D02*
D03*
X211500Y29500D02*
D03*
Y19500D02*
D03*
X201500Y29500D02*
D03*
Y19500D02*
D03*
X191500Y29500D02*
D03*
Y19500D02*
D03*
D66*
X319479Y99791D02*
D03*
Y71445D02*
D03*
D67*
X308967Y76071D02*
D03*
Y95165D02*
D03*
D68*
X312500Y269500D02*
D03*
D69*
Y259500D02*
D03*
X302500Y269500D02*
D03*
Y259500D02*
D03*
X292500Y269500D02*
D03*
Y259500D02*
D03*
X282500Y269500D02*
D03*
Y259500D02*
D03*
X272500Y269500D02*
D03*
Y259500D02*
D03*
X262500Y269500D02*
D03*
Y259500D02*
D03*
X252500Y269500D02*
D03*
Y259500D02*
D03*
X242500Y269500D02*
D03*
Y259500D02*
D03*
X232500Y269500D02*
D03*
Y259500D02*
D03*
X222500Y269500D02*
D03*
Y259500D02*
D03*
X212500Y269500D02*
D03*
Y259500D02*
D03*
X202500Y269500D02*
D03*
Y259500D02*
D03*
D70*
X41300Y231700D02*
D03*
X38400Y200100D02*
D03*
X37400Y207200D02*
D03*
X113240Y222500D02*
D03*
X40800Y224300D02*
D03*
X123500Y237240D02*
D03*
X162020Y196500D02*
D03*
X234100Y216500D02*
D03*
X227500Y175500D02*
D03*
X301200Y93900D02*
D03*
X187793Y167793D02*
D03*
X195600Y169500D02*
D03*
X66500Y221547D02*
D03*
X71200Y212100D02*
D03*
X115800Y231700D02*
D03*
X47900Y163400D02*
D03*
X47760Y154500D02*
D03*
X94500Y140240D02*
D03*
X113240Y145500D02*
D03*
X10760Y15500D02*
D03*
X36000Y9585D02*
D03*
Y31415D02*
D03*
X46000D02*
D03*
X49240Y45500D02*
D03*
X93500Y61240D02*
D03*
X84500Y85760D02*
D03*
X93500Y93240D02*
D03*
X80700Y117445D02*
D03*
X115240Y115500D02*
D03*
X196500Y92020D02*
D03*
X205500D02*
D03*
X214500D02*
D03*
X270980Y48500D02*
D03*
X214020D02*
D03*
X254500D02*
D03*
X230500D02*
D03*
X150500Y45980D02*
D03*
X160500D02*
D03*
Y12760D02*
D03*
X220500Y203500D02*
D03*
X320326Y153500D02*
D03*
X272500Y147248D02*
D03*
X286500Y116500D02*
D03*
X281500Y90760D02*
D03*
X223500Y92020D02*
D03*
X235500Y112500D02*
D03*
Y121500D02*
D03*
X170600Y117760D02*
D03*
X179700Y118020D02*
D03*
X206200Y135800D02*
D03*
X162020Y187500D02*
D03*
X146500Y218980D02*
D03*
X113500Y206500D02*
D03*
X85240Y192500D02*
D03*
X76000Y244000D02*
D03*
X74000Y264000D02*
D03*
X60000Y242000D02*
D03*
X62000Y266000D02*
D03*
X68000Y254000D02*
D03*
X109310Y266886D02*
D03*
Y253500D02*
D03*
X154000Y271740D02*
D03*
X142500Y272240D02*
D03*
X155265Y248557D02*
D03*
X34000Y81939D02*
D03*
X19000Y103061D02*
D03*
Y67061D02*
D03*
X33000Y116939D02*
D03*
X287240Y48500D02*
D03*
X271500Y90760D02*
D03*
X289480Y168118D02*
D03*
Y160638D02*
D03*
X220500Y196020D02*
D03*
X189300Y118100D02*
D03*
X179700Y125500D02*
D03*
X179200Y132000D02*
D03*
X216760Y123760D02*
D03*
X170000Y188000D02*
D03*
X123500Y229760D02*
D03*
X164500Y218980D02*
D03*
X155500Y218930D02*
D03*
X109310Y240114D02*
D03*
X48020Y207500D02*
D03*
X28043Y155965D02*
D03*
X160500Y38500D02*
D03*
X148500Y10500D02*
D03*
X150500Y38500D02*
D03*
X128999Y35240D02*
D03*
X129382Y27500D02*
D03*
X101500Y11500D02*
D03*
X41760Y45500D02*
D03*
X46000Y9585D02*
D03*
X18240Y15500D02*
D03*
X18000Y138061D02*
D03*
X80700Y126500D02*
D03*
X92500Y120500D02*
D03*
X138500Y68500D02*
D03*
X151500Y170500D02*
D03*
X167500Y173500D02*
D03*
X144500Y160500D02*
D03*
X151500Y161500D02*
D03*
X155500Y156500D02*
D03*
X132500Y202500D02*
D03*
X234500Y128500D02*
D03*
X239500Y131500D02*
D03*
X244500Y134500D02*
D03*
X229500Y135500D02*
D03*
X183500Y196500D02*
D03*
X204500Y39500D02*
D03*
X250417Y86013D02*
D03*
X209500Y161500D02*
D03*
X247500Y158500D02*
D03*
X222230Y151364D02*
D03*
X307500Y209500D02*
D03*
X252500Y146500D02*
D03*
X259500Y158500D02*
D03*
X229500Y168500D02*
D03*
X235500Y167500D02*
D03*
X200500Y224500D02*
D03*
X193500Y268500D02*
D03*
X180500Y261500D02*
D03*
X193500Y200500D02*
D03*
X210205Y172937D02*
D03*
X167500Y153500D02*
D03*
X164500Y147500D02*
D03*
X167500Y142500D02*
D03*
X172500Y139500D02*
D03*
X136500Y145086D02*
D03*
X170500Y203500D02*
D03*
X41500Y125500D02*
D03*
X74500Y72500D02*
D03*
X43359Y215922D02*
D03*
X117500Y215500D02*
D03*
X47500Y190500D02*
D03*
X37000Y185945D02*
D03*
X63500Y202500D02*
D03*
X60640Y161400D02*
D03*
X64142Y150635D02*
D03*
X72078Y189129D02*
D03*
X80500Y163500D02*
D03*
X76500Y145500D02*
D03*
X92500Y199500D02*
D03*
X22036Y218340D02*
D03*
X92500Y215500D02*
D03*
X121500Y150500D02*
D03*
X120838Y260871D02*
D03*
X110935Y45238D02*
D03*
X49500Y64500D02*
D03*
X28500Y145308D02*
D03*
X90500Y43500D02*
D03*
X11500Y38500D02*
D03*
X19500Y93500D02*
D03*
X41500Y92500D02*
D03*
M02*
