G04*
G04 #@! TF.GenerationSoftware,Altium Limited,Altium Designer,22.0.2 (36)*
G04*
G04 Layer_Color=255*
%FSLAX25Y25*%
%MOIN*%
G70*
G04*
G04 #@! TF.SameCoordinates,EEB94BB5-1E52-49F6-8271-472C1FCD53E5*
G04*
G04*
G04 #@! TF.FilePolarity,Positive*
G04*
G01*
G75*
%ADD17R,0.01575X0.05512*%
%ADD18O,0.07343X0.02480*%
%ADD19R,0.05906X0.05118*%
%ADD20R,0.06299X0.19685*%
%ADD21R,0.12284X0.13480*%
%ADD22C,0.04000*%
%ADD23R,0.05118X0.05906*%
%ADD24R,0.29610X0.41600*%
%ADD25R,0.12137X0.04016*%
%ADD26R,0.07874X0.07874*%
%ADD43O,0.05118X0.08661*%
%ADD44C,0.05118*%
%ADD45C,0.07087*%
D17*
X160118Y23490D02*
D03*
X157559D02*
D03*
X155000D02*
D03*
X152441D02*
D03*
X149882D02*
D03*
D18*
X151939Y107500D02*
D03*
Y102500D02*
D03*
Y97500D02*
D03*
Y92500D02*
D03*
X173061Y107500D02*
D03*
Y102500D02*
D03*
Y97500D02*
D03*
Y92500D02*
D03*
X128061Y38577D02*
D03*
Y43577D02*
D03*
Y48577D02*
D03*
Y53577D02*
D03*
X106939Y38577D02*
D03*
Y43577D02*
D03*
Y48577D02*
D03*
Y53577D02*
D03*
X199939Y53500D02*
D03*
Y48500D02*
D03*
Y43500D02*
D03*
Y38500D02*
D03*
X221061Y53500D02*
D03*
Y48500D02*
D03*
Y43500D02*
D03*
Y38500D02*
D03*
X116061Y96577D02*
D03*
Y101577D02*
D03*
Y106577D02*
D03*
Y111577D02*
D03*
X94939Y96577D02*
D03*
Y101577D02*
D03*
Y106577D02*
D03*
Y111577D02*
D03*
D19*
X97500Y88557D02*
D03*
Y81077D02*
D03*
X183500Y31907D02*
D03*
Y39387D02*
D03*
X146500Y49597D02*
D03*
Y57077D02*
D03*
X95500Y35867D02*
D03*
Y28387D02*
D03*
X82500Y28337D02*
D03*
Y35817D02*
D03*
X68500Y28337D02*
D03*
Y35817D02*
D03*
X130500Y110817D02*
D03*
Y103337D02*
D03*
X78500Y102337D02*
D03*
Y109817D02*
D03*
X171500Y49647D02*
D03*
Y57127D02*
D03*
X183500Y49647D02*
D03*
Y57127D02*
D03*
X159500Y49647D02*
D03*
Y57127D02*
D03*
X68500Y57077D02*
D03*
Y49597D02*
D03*
X81500Y145337D02*
D03*
Y152817D02*
D03*
X82500Y49647D02*
D03*
Y57127D02*
D03*
D20*
X30500Y14165D02*
D03*
Y59835D02*
D03*
X124500Y196912D02*
D03*
Y151243D02*
D03*
D21*
X27500Y119205D02*
D03*
Y80795D02*
D03*
D22*
X40500Y200077D02*
D03*
D23*
X120760Y65077D02*
D03*
X128240D02*
D03*
D24*
X18500Y166077D02*
D03*
D25*
X60310Y179463D02*
D03*
Y172770D02*
D03*
Y166077D02*
D03*
Y159384D02*
D03*
Y152691D02*
D03*
D26*
X62500Y118445D02*
D03*
Y136555D02*
D03*
D43*
X169173Y11511D02*
D03*
X140827D02*
D03*
D44*
X145453Y22023D02*
D03*
X164547D02*
D03*
D45*
X200000Y112815D02*
D03*
Y122658D02*
D03*
Y132500D02*
D03*
Y142343D02*
D03*
Y152185D02*
D03*
M02*
