G04*
G04 #@! TF.GenerationSoftware,Altium Limited,Altium Designer,22.0.2 (36)*
G04*
G04 Layer_Physical_Order=2*
G04 Layer_Color=16711680*
%FSLAX25Y25*%
%MOIN*%
G70*
G04*
G04 #@! TF.SameCoordinates,0D3B301A-5C7D-42CB-B649-B08759771362*
G04*
G04*
G04 #@! TF.FilePolarity,Positive*
G04*
G01*
G75*
%ADD11C,0.01000*%
%ADD37C,0.02000*%
%ADD38C,0.07087*%
%ADD39C,0.02362*%
%ADD40C,0.05000*%
G36*
X224951Y2549D02*
X2549D01*
Y207451D01*
X224951D01*
Y2549D01*
D02*
G37*
%LPC*%
G36*
X163985Y189729D02*
X84200D01*
X83615Y189613D01*
X83119Y189281D01*
X69119Y175281D01*
X68787Y174785D01*
X68671Y174200D01*
Y162543D01*
X68051Y162185D01*
X67399Y161533D01*
X66939Y160735D01*
X66700Y159845D01*
Y158923D01*
X66939Y158033D01*
X67399Y157235D01*
X68051Y156583D01*
X68849Y156123D01*
X69739Y155884D01*
X70661D01*
X71551Y156123D01*
X72349Y156583D01*
X73001Y157235D01*
X73462Y158033D01*
X73700Y158923D01*
Y159845D01*
X73462Y160735D01*
X73001Y161533D01*
X72349Y162185D01*
X71729Y162543D01*
Y173566D01*
X81400Y183237D01*
X81900Y183030D01*
Y182539D01*
X82139Y181649D01*
X82599Y180851D01*
X83251Y180199D01*
X84049Y179738D01*
X84939Y179500D01*
X85861D01*
X86751Y179738D01*
X87549Y180199D01*
X88201Y180851D01*
X88447Y181277D01*
X89006Y181331D01*
X140971Y129367D01*
Y116158D01*
X140351Y115801D01*
X139699Y115149D01*
X139239Y114351D01*
X139000Y113461D01*
Y112539D01*
X139239Y111649D01*
X139699Y110851D01*
X140351Y110199D01*
X141149Y109739D01*
X142039Y109500D01*
X142961D01*
X143851Y109739D01*
X144649Y110199D01*
X145301Y110851D01*
X145762Y111649D01*
X146000Y112539D01*
Y113461D01*
X145762Y114351D01*
X145301Y115149D01*
X144649Y115801D01*
X144029Y116158D01*
Y130000D01*
X143913Y130585D01*
X143581Y131081D01*
X90581Y184081D01*
X90085Y184413D01*
X89500Y184529D01*
X88559D01*
X88201Y185149D01*
X87549Y185801D01*
X86908Y186171D01*
X87042Y186671D01*
X163352D01*
X195882Y154140D01*
X195766Y153939D01*
X195457Y152783D01*
Y151587D01*
X195766Y150431D01*
X196364Y149395D01*
X197210Y148549D01*
X198246Y147951D01*
X199402Y147642D01*
X200598D01*
X201754Y147951D01*
X202790Y148549D01*
X203636Y149395D01*
X204234Y150431D01*
X204543Y151587D01*
Y152783D01*
X204234Y153939D01*
X203636Y154975D01*
X202790Y155821D01*
X201754Y156419D01*
X200598Y156728D01*
X199402D01*
X198246Y156419D01*
X198045Y156303D01*
X165066Y189281D01*
X164570Y189613D01*
X163985Y189729D01*
D02*
G37*
G36*
X82000Y147991D02*
Y146337D01*
X83654D01*
X83349Y147073D01*
X82736Y147686D01*
X82000Y147991D01*
D02*
G37*
G36*
X81000D02*
X80265Y147686D01*
X79651Y147073D01*
X79346Y146337D01*
X81000D01*
Y147991D01*
D02*
G37*
G36*
X83654Y145337D02*
X82000D01*
Y143683D01*
X82736Y143988D01*
X83349Y144602D01*
X83654Y145337D01*
D02*
G37*
G36*
X81000D02*
X79346D01*
X79651Y144602D01*
X80265Y143988D01*
X81000Y143683D01*
Y145337D01*
D02*
G37*
G36*
X200598Y146886D02*
X199402D01*
X198246Y146576D01*
X197210Y145978D01*
X196364Y145132D01*
X195766Y144096D01*
X195457Y142941D01*
Y141744D01*
X195766Y140589D01*
X196364Y139553D01*
X197210Y138707D01*
X198246Y138109D01*
X199402Y137799D01*
X200598D01*
X201754Y138109D01*
X202790Y138707D01*
X203636Y139553D01*
X204234Y140589D01*
X204543Y141744D01*
Y142941D01*
X204234Y144096D01*
X203636Y145132D01*
X202790Y145978D01*
X201754Y146576D01*
X200598Y146886D01*
D02*
G37*
G36*
Y137043D02*
X200500D01*
Y133000D01*
X204543D01*
Y133098D01*
X204234Y134254D01*
X203636Y135290D01*
X202790Y136135D01*
X201754Y136734D01*
X200598Y137043D01*
D02*
G37*
G36*
X199500D02*
X199402D01*
X198246Y136734D01*
X197210Y136135D01*
X196364Y135290D01*
X195766Y134254D01*
X195457Y133098D01*
Y133000D01*
X199500D01*
Y137043D01*
D02*
G37*
G36*
X204543Y132000D02*
X200500D01*
Y127957D01*
X200598D01*
X201754Y128266D01*
X202790Y128865D01*
X203636Y129710D01*
X204234Y130746D01*
X204543Y131902D01*
Y132000D01*
D02*
G37*
G36*
X199500D02*
X195457D01*
Y131902D01*
X195766Y130746D01*
X196364Y129710D01*
X197210Y128865D01*
X198246Y128266D01*
X199402Y127957D01*
X199500D01*
Y132000D01*
D02*
G37*
G36*
X200598Y127201D02*
X199402D01*
X198246Y126891D01*
X197210Y126293D01*
X196364Y125447D01*
X195766Y124411D01*
X195457Y123256D01*
Y122060D01*
X195766Y120904D01*
X196201Y120150D01*
X181546Y105496D01*
X181215Y104999D01*
X181098Y104414D01*
Y95761D01*
X180555D01*
X179665Y95523D01*
X178867Y95062D01*
X178216Y94410D01*
X177755Y93612D01*
X177516Y92722D01*
Y91800D01*
X177755Y90910D01*
X178216Y90112D01*
X178867Y89461D01*
X179665Y89000D01*
X180426Y88796D01*
X180644Y88307D01*
X165267Y72929D01*
X149658D01*
X149301Y73549D01*
X148649Y74201D01*
X147851Y74661D01*
X146961Y74900D01*
X146039D01*
X145149Y74661D01*
X144351Y74201D01*
X143699Y73549D01*
X143238Y72751D01*
X143000Y71861D01*
Y70939D01*
X143238Y70049D01*
X143699Y69251D01*
X144351Y68599D01*
X145149Y68138D01*
X146039Y67900D01*
X146961D01*
X147851Y68138D01*
X148649Y68599D01*
X149301Y69251D01*
X149658Y69871D01*
X165900D01*
X166485Y69987D01*
X166981Y70319D01*
X200173Y103510D01*
X200504Y104006D01*
X200621Y104591D01*
Y108278D01*
X201754Y108581D01*
X202790Y109179D01*
X203636Y110025D01*
X204234Y111061D01*
X204543Y112217D01*
Y113413D01*
X204234Y114569D01*
X203636Y115605D01*
X202790Y116451D01*
X201754Y117049D01*
X200598Y117358D01*
X199402D01*
X198246Y117049D01*
X197977Y116893D01*
X197670Y117293D01*
X198683Y118307D01*
X199402Y118114D01*
X200598D01*
X201754Y118424D01*
X202790Y119022D01*
X203636Y119868D01*
X204234Y120904D01*
X204543Y122060D01*
Y123256D01*
X204234Y124411D01*
X203636Y125447D01*
X202790Y126293D01*
X201754Y126891D01*
X200598Y127201D01*
D02*
G37*
G36*
X136861Y89700D02*
X135939D01*
X135049Y89461D01*
X134251Y89001D01*
X133599Y88349D01*
X133139Y87551D01*
X132900Y86661D01*
Y85739D01*
X133139Y84849D01*
X133599Y84051D01*
X134251Y83399D01*
X134361Y83336D01*
Y56441D01*
X134251Y56378D01*
X133599Y55726D01*
X133139Y54928D01*
X132900Y54038D01*
Y53116D01*
X133139Y52226D01*
X133599Y51428D01*
X134251Y50776D01*
X135049Y50316D01*
X135939Y50077D01*
X136861D01*
X137751Y50316D01*
X138549Y50776D01*
X139201Y51428D01*
X139662Y52226D01*
X139900Y53116D01*
Y54038D01*
X139662Y54928D01*
X139201Y55726D01*
X138549Y56378D01*
X138439Y56441D01*
Y83336D01*
X138549Y83399D01*
X139201Y84051D01*
X139662Y84849D01*
X139900Y85739D01*
Y86661D01*
X139662Y87551D01*
X139201Y88349D01*
X138549Y89001D01*
X137751Y89461D01*
X136861Y89700D01*
D02*
G37*
%LPD*%
D11*
X142500Y113000D02*
Y130000D01*
X89500Y183000D02*
X142500Y130000D01*
X181016Y93235D02*
X182628Y94847D01*
Y104414D01*
X181016Y92261D02*
Y93235D01*
X199091Y104591D02*
Y111906D01*
X146500Y71400D02*
X165900D01*
X199091Y104591D01*
Y111906D02*
X200000Y112815D01*
X182628Y104414D02*
X200000Y121786D01*
Y122658D01*
X85400Y183000D02*
X89500D01*
X163985Y188200D02*
X200000Y152185D01*
X84200Y188200D02*
X163985D01*
X70200Y174200D02*
X84200Y188200D01*
X70200Y159384D02*
Y174200D01*
D37*
X136400Y53577D02*
Y86200D01*
D38*
X200000Y112815D02*
D03*
Y122658D02*
D03*
Y132500D02*
D03*
Y142343D02*
D03*
Y152185D02*
D03*
D39*
X152500Y62000D02*
D03*
X49500Y166000D02*
D03*
X81500Y145837D02*
D03*
D40*
X142500Y113000D02*
D03*
X181016Y92261D02*
D03*
X136400Y53577D02*
D03*
Y86200D02*
D03*
X70200Y159384D02*
D03*
X146500Y71400D02*
D03*
X85400Y183000D02*
D03*
M02*
