G04*
G04 #@! TF.GenerationSoftware,Altium Limited,Altium Designer,22.0.2 (36)*
G04*
G04 Layer_Physical_Order=2*
G04 Layer_Color=16711680*
%FSLAX25Y25*%
%MOIN*%
G70*
G04*
G04 #@! TF.SameCoordinates,EEB94BB5-1E52-49F6-8271-472C1FCD53E5*
G04*
G04*
G04 #@! TF.FilePolarity,Positive*
G04*
G01*
G75*
%ADD11C,0.01000*%
%ADD42C,0.02000*%
%ADD43O,0.05118X0.08661*%
%ADD44C,0.05118*%
%ADD45C,0.07087*%
%ADD46C,0.02362*%
%ADD47C,0.05000*%
G36*
X224951Y2549D02*
X2049D01*
X2049Y207451D01*
X224951D01*
Y2549D01*
D02*
G37*
%LPC*%
G36*
X60500Y168154D02*
Y166500D01*
X62154D01*
X61849Y167236D01*
X61235Y167849D01*
X60500Y168154D01*
D02*
G37*
G36*
X59500D02*
X58764Y167849D01*
X58151Y167236D01*
X57846Y166500D01*
X59500D01*
Y168154D01*
D02*
G37*
G36*
X62154Y165500D02*
X60500D01*
Y163846D01*
X61235Y164151D01*
X61849Y164764D01*
X62154Y165500D01*
D02*
G37*
G36*
X59500D02*
X57846D01*
X58151Y164764D01*
X58764Y164151D01*
X59500Y163846D01*
Y165500D01*
D02*
G37*
G36*
X27500Y164154D02*
Y162500D01*
X29154D01*
X28849Y163235D01*
X28236Y163849D01*
X27500Y164154D01*
D02*
G37*
G36*
X26500D02*
X25765Y163849D01*
X25151Y163235D01*
X24846Y162500D01*
X26500D01*
Y164154D01*
D02*
G37*
G36*
X29154Y161500D02*
X27500D01*
Y159846D01*
X28236Y160151D01*
X28849Y160765D01*
X29154Y161500D01*
D02*
G37*
G36*
X26500D02*
X24846D01*
X25151Y160765D01*
X25765Y160151D01*
X26500Y159846D01*
Y161500D01*
D02*
G37*
G36*
X163985Y189729D02*
X84200D01*
X83615Y189613D01*
X83119Y189281D01*
X70919Y177081D01*
X70587Y176585D01*
X70471Y176000D01*
Y162659D01*
X69851Y162301D01*
X69199Y161649D01*
X68739Y160851D01*
X68500Y159961D01*
Y159039D01*
X68739Y158149D01*
X69199Y157351D01*
X69851Y156699D01*
X70649Y156238D01*
X71539Y156000D01*
X72461D01*
X73351Y156238D01*
X74149Y156699D01*
X74801Y157351D01*
X75261Y158149D01*
X75500Y159039D01*
Y159961D01*
X75261Y160851D01*
X74801Y161649D01*
X74149Y162301D01*
X73529Y162659D01*
Y175366D01*
X81400Y183237D01*
X81900Y183030D01*
Y182539D01*
X82139Y181649D01*
X82599Y180851D01*
X83251Y180199D01*
X84049Y179738D01*
X84939Y179500D01*
X85861D01*
X86751Y179738D01*
X87549Y180199D01*
X88201Y180851D01*
X88447Y181277D01*
X89006Y181331D01*
X140971Y129367D01*
Y116158D01*
X140351Y115801D01*
X139699Y115149D01*
X139239Y114351D01*
X139000Y113461D01*
Y112539D01*
X139239Y111649D01*
X139699Y110851D01*
X140351Y110199D01*
X141149Y109739D01*
X142039Y109500D01*
X142961D01*
X143851Y109739D01*
X144649Y110199D01*
X145301Y110851D01*
X145762Y111649D01*
X146000Y112539D01*
Y113461D01*
X145762Y114351D01*
X145301Y115149D01*
X144649Y115801D01*
X144029Y116158D01*
Y130000D01*
X143913Y130585D01*
X143581Y131081D01*
X90581Y184081D01*
X90085Y184413D01*
X89500Y184529D01*
X88559D01*
X88201Y185149D01*
X87549Y185801D01*
X86908Y186171D01*
X87042Y186671D01*
X163352D01*
X195882Y154140D01*
X195766Y153939D01*
X195457Y152783D01*
Y151587D01*
X195766Y150431D01*
X196364Y149395D01*
X197210Y148549D01*
X198246Y147951D01*
X199402Y147642D01*
X200598D01*
X201754Y147951D01*
X202790Y148549D01*
X203636Y149395D01*
X204234Y150431D01*
X204543Y151587D01*
Y152783D01*
X204234Y153939D01*
X203636Y154975D01*
X202790Y155821D01*
X201754Y156419D01*
X200598Y156728D01*
X199402D01*
X198246Y156419D01*
X198045Y156303D01*
X165066Y189281D01*
X164570Y189613D01*
X163985Y189729D01*
D02*
G37*
G36*
X82000Y147991D02*
Y146337D01*
X83654D01*
X83349Y147073D01*
X82736Y147686D01*
X82000Y147991D01*
D02*
G37*
G36*
X81000D02*
X80265Y147686D01*
X79651Y147073D01*
X79346Y146337D01*
X81000D01*
Y147991D01*
D02*
G37*
G36*
X83654Y145337D02*
X82000D01*
Y143683D01*
X82736Y143988D01*
X83349Y144602D01*
X83654Y145337D01*
D02*
G37*
G36*
X81000D02*
X79346D01*
X79651Y144602D01*
X80265Y143988D01*
X81000Y143683D01*
Y145337D01*
D02*
G37*
G36*
X200598Y146886D02*
X199402D01*
X198246Y146576D01*
X197210Y145978D01*
X196364Y145132D01*
X195766Y144096D01*
X195457Y142941D01*
Y141744D01*
X195766Y140589D01*
X196364Y139553D01*
X197210Y138707D01*
X198246Y138109D01*
X199402Y137799D01*
X200598D01*
X201754Y138109D01*
X202790Y138707D01*
X203636Y139553D01*
X204234Y140589D01*
X204543Y141744D01*
Y142941D01*
X204234Y144096D01*
X203636Y145132D01*
X202790Y145978D01*
X201754Y146576D01*
X200598Y146886D01*
D02*
G37*
G36*
Y137043D02*
X200500D01*
Y133000D01*
X204543D01*
Y133098D01*
X204234Y134254D01*
X203636Y135290D01*
X202790Y136135D01*
X201754Y136734D01*
X200598Y137043D01*
D02*
G37*
G36*
X199500D02*
X199402D01*
X198246Y136734D01*
X197210Y136135D01*
X196364Y135290D01*
X195766Y134254D01*
X195457Y133098D01*
Y133000D01*
X199500D01*
Y137043D01*
D02*
G37*
G36*
X204543Y132000D02*
X200500D01*
Y127957D01*
X200598D01*
X201754Y128266D01*
X202790Y128865D01*
X203636Y129710D01*
X204234Y130746D01*
X204543Y131902D01*
Y132000D01*
D02*
G37*
G36*
X199500D02*
X195457D01*
Y131902D01*
X195766Y130746D01*
X196364Y129710D01*
X197210Y128865D01*
X198246Y128266D01*
X199402Y127957D01*
X199500D01*
Y132000D01*
D02*
G37*
G36*
X200598Y127201D02*
X199402D01*
X198246Y126891D01*
X197210Y126293D01*
X196364Y125447D01*
X195766Y124411D01*
X195457Y123256D01*
Y122060D01*
X195766Y120904D01*
X196201Y120150D01*
X181546Y105496D01*
X181215Y104999D01*
X181098Y104414D01*
Y95761D01*
X180555D01*
X179665Y95523D01*
X178867Y95062D01*
X178216Y94410D01*
X177755Y93612D01*
X177516Y92722D01*
Y91800D01*
X177755Y90910D01*
X178216Y90112D01*
X178867Y89461D01*
X179665Y89000D01*
X180426Y88796D01*
X180644Y88307D01*
X165267Y72929D01*
X149658D01*
X149301Y73549D01*
X148649Y74201D01*
X147851Y74661D01*
X146961Y74900D01*
X146039D01*
X145149Y74661D01*
X144351Y74201D01*
X143699Y73549D01*
X143238Y72751D01*
X143000Y71861D01*
Y70939D01*
X143238Y70049D01*
X143699Y69251D01*
X144351Y68599D01*
X145149Y68138D01*
X146039Y67900D01*
X146961D01*
X147851Y68138D01*
X148649Y68599D01*
X149301Y69251D01*
X149658Y69871D01*
X165900D01*
X166485Y69987D01*
X166981Y70319D01*
X200173Y103510D01*
X200504Y104006D01*
X200621Y104591D01*
Y108278D01*
X201754Y108581D01*
X202790Y109179D01*
X203636Y110025D01*
X204234Y111061D01*
X204543Y112217D01*
Y113413D01*
X204234Y114569D01*
X203636Y115605D01*
X202790Y116451D01*
X201754Y117049D01*
X200598Y117358D01*
X199402D01*
X198246Y117049D01*
X197977Y116893D01*
X197670Y117293D01*
X198683Y118307D01*
X199402Y118114D01*
X200598D01*
X201754Y118424D01*
X202790Y119022D01*
X203636Y119868D01*
X204234Y120904D01*
X204543Y122060D01*
Y123256D01*
X204234Y124411D01*
X203636Y125447D01*
X202790Y126293D01*
X201754Y126891D01*
X200598Y127201D01*
D02*
G37*
G36*
X153000Y64154D02*
Y62500D01*
X154654D01*
X154349Y63235D01*
X153735Y63849D01*
X153000Y64154D01*
D02*
G37*
G36*
X152000D02*
X151265Y63849D01*
X150651Y63235D01*
X150346Y62500D01*
X152000D01*
Y64154D01*
D02*
G37*
G36*
X154654Y61500D02*
X153000D01*
Y59846D01*
X153735Y60151D01*
X154349Y60764D01*
X154654Y61500D01*
D02*
G37*
G36*
X152000D02*
X150346D01*
X150651Y60764D01*
X151265Y60151D01*
X152000Y59846D01*
Y61500D01*
D02*
G37*
G36*
X136861Y89700D02*
X135939D01*
X135049Y89461D01*
X134251Y89001D01*
X133599Y88349D01*
X133139Y87551D01*
X132900Y86661D01*
Y85739D01*
X133139Y84849D01*
X133599Y84051D01*
X134251Y83399D01*
X134361Y83336D01*
Y56441D01*
X134251Y56378D01*
X133599Y55726D01*
X133139Y54928D01*
X132900Y54038D01*
Y53116D01*
X133139Y52226D01*
X133599Y51428D01*
X134251Y50776D01*
X135049Y50316D01*
X135939Y50077D01*
X136861D01*
X137751Y50316D01*
X138549Y50776D01*
X139201Y51428D01*
X139662Y52226D01*
X139900Y53116D01*
Y54038D01*
X139662Y54928D01*
X139201Y55726D01*
X138549Y56378D01*
X138439Y56441D01*
Y83336D01*
X138549Y83399D01*
X139201Y84051D01*
X139662Y84849D01*
X139900Y85739D01*
Y86661D01*
X139662Y87551D01*
X139201Y88349D01*
X138549Y89001D01*
X137751Y89461D01*
X136861Y89700D01*
D02*
G37*
G36*
X165047Y25573D02*
Y22523D01*
X168098D01*
X167864Y23396D01*
X167395Y24208D01*
X166732Y24871D01*
X165921Y25339D01*
X165047Y25573D01*
D02*
G37*
G36*
X164047D02*
X163173Y25339D01*
X162362Y24871D01*
X161699Y24208D01*
X161231Y23396D01*
X160996Y22523D01*
X164047D01*
Y25573D01*
D02*
G37*
G36*
X97961Y47000D02*
X97039D01*
X96149Y46762D01*
X95351Y46301D01*
X94699Y45649D01*
X94239Y44851D01*
X94000Y43961D01*
Y43039D01*
X94239Y42149D01*
X94699Y41351D01*
X95351Y40699D01*
X96149Y40238D01*
X97039Y40000D01*
X97961D01*
X98652Y40185D01*
X111919Y26919D01*
X112415Y26587D01*
X113000Y26471D01*
X142630D01*
X142699Y26351D01*
X143351Y25699D01*
X143594Y25559D01*
X143594Y25059D01*
X143267Y24871D01*
X142605Y24208D01*
X142136Y23396D01*
X141902Y22523D01*
X149003D01*
X148769Y23396D01*
X148301Y24208D01*
X147638Y24871D01*
X147359Y25032D01*
X147359Y25532D01*
X147649Y25699D01*
X148301Y26351D01*
X148761Y27149D01*
X149000Y28039D01*
Y28961D01*
X148761Y29851D01*
X148301Y30649D01*
X147649Y31301D01*
X146851Y31762D01*
X145961Y32000D01*
X145039D01*
X144149Y31762D01*
X143351Y31301D01*
X142699Y30649D01*
X142238Y29851D01*
X142152Y29529D01*
X113634D01*
X100815Y42348D01*
X101000Y43039D01*
Y43961D01*
X100761Y44851D01*
X100301Y45649D01*
X99649Y46301D01*
X98851Y46762D01*
X97961Y47000D01*
D02*
G37*
G36*
X168098Y21523D02*
X165047D01*
Y18472D01*
X165921Y18706D01*
X166732Y19175D01*
X167395Y19837D01*
X167864Y20649D01*
X168098Y21523D01*
D02*
G37*
G36*
X164047D02*
X160996D01*
X161231Y20649D01*
X161699Y19837D01*
X162362Y19175D01*
X163173Y18706D01*
X164047Y18472D01*
Y21523D01*
D02*
G37*
G36*
X149003D02*
X145953D01*
Y18472D01*
X146826Y18706D01*
X147638Y19175D01*
X148301Y19837D01*
X148769Y20649D01*
X149003Y21523D01*
D02*
G37*
G36*
X144953D02*
X141902D01*
X142136Y20649D01*
X142605Y19837D01*
X143267Y19175D01*
X144079Y18706D01*
X144953Y18472D01*
Y21523D01*
D02*
G37*
G36*
X169673Y16806D02*
Y12011D01*
X172763D01*
Y13282D01*
X172640Y14211D01*
X172282Y15077D01*
X171711Y15821D01*
X170968Y16391D01*
X170102Y16750D01*
X169673Y16806D01*
D02*
G37*
G36*
X168673D02*
X168244Y16750D01*
X167378Y16391D01*
X166635Y15821D01*
X166064Y15077D01*
X165706Y14211D01*
X165583Y13282D01*
Y12011D01*
X168673D01*
Y16806D01*
D02*
G37*
G36*
X141327D02*
Y12011D01*
X144416D01*
Y13282D01*
X144294Y14211D01*
X143935Y15077D01*
X143365Y15821D01*
X142622Y16391D01*
X141756Y16750D01*
X141327Y16806D01*
D02*
G37*
G36*
X140327D02*
X139898Y16750D01*
X139032Y16391D01*
X138288Y15821D01*
X137718Y15077D01*
X137359Y14211D01*
X137237Y13282D01*
Y12011D01*
X140327D01*
Y16806D01*
D02*
G37*
G36*
X172763Y11011D02*
X169673D01*
Y6215D01*
X170102Y6272D01*
X170968Y6630D01*
X171711Y7201D01*
X172282Y7944D01*
X172640Y8810D01*
X172763Y9739D01*
Y11011D01*
D02*
G37*
G36*
X168673D02*
X165583D01*
Y9739D01*
X165706Y8810D01*
X166064Y7944D01*
X166635Y7201D01*
X167378Y6630D01*
X168244Y6272D01*
X168673Y6215D01*
Y11011D01*
D02*
G37*
G36*
X144416D02*
X141327D01*
Y6215D01*
X141756Y6272D01*
X142622Y6630D01*
X143365Y7201D01*
X143935Y7944D01*
X144294Y8810D01*
X144416Y9739D01*
Y11011D01*
D02*
G37*
G36*
X140327D02*
X137237D01*
Y9739D01*
X137359Y8810D01*
X137718Y7944D01*
X138288Y7201D01*
X139032Y6630D01*
X139898Y6272D01*
X140327Y6215D01*
Y11011D01*
D02*
G37*
%LPD*%
D11*
X72000Y176000D02*
X84200Y188200D01*
X72000Y159500D02*
Y176000D01*
X97500Y43500D02*
X113000Y28000D01*
X145000D01*
X145500Y28500D01*
X142500Y113000D02*
Y130000D01*
X89500Y183000D02*
X142500Y130000D01*
X181016Y93235D02*
X182628Y94847D01*
Y104414D01*
X181016Y92261D02*
Y93235D01*
X199091Y104591D02*
Y111906D01*
X146500Y71400D02*
X165900D01*
X199091Y104591D01*
Y111906D02*
X200000Y112815D01*
X182628Y104414D02*
X200000Y121786D01*
Y122658D01*
X85400Y183000D02*
X89500D01*
X163985Y188200D02*
X200000Y152185D01*
X84200Y188200D02*
X163985D01*
D42*
X136400Y53577D02*
Y86200D01*
D43*
X169173Y11511D02*
D03*
X140827D02*
D03*
D44*
X145453Y22023D02*
D03*
X164547D02*
D03*
D45*
X200000Y112815D02*
D03*
Y122658D02*
D03*
Y132500D02*
D03*
Y142343D02*
D03*
Y152185D02*
D03*
D46*
X27000Y162000D02*
D03*
X152500Y62000D02*
D03*
X60000Y166000D02*
D03*
X81500Y145837D02*
D03*
D47*
X72000Y159500D02*
D03*
X97500Y43500D02*
D03*
X145500Y28500D02*
D03*
X142500Y113000D02*
D03*
X181016Y92261D02*
D03*
X136400Y53577D02*
D03*
Y86200D02*
D03*
X146500Y71400D02*
D03*
X85400Y183000D02*
D03*
M02*
