G04*
G04 #@! TF.GenerationSoftware,Altium Limited,Altium Designer,22.0.2 (36)*
G04*
G04 Layer_Physical_Order=1*
G04 Layer_Color=255*
%FSLAX25Y25*%
%MOIN*%
G70*
G04*
G04 #@! TF.SameCoordinates,0D3B301A-5C7D-42CB-B649-B08759771362*
G04*
G04*
G04 #@! TF.FilePolarity,Positive*
G04*
G01*
G75*
%ADD11C,0.01000*%
%ADD16O,0.07343X0.02480*%
%ADD17R,0.05906X0.05118*%
%ADD18R,0.06299X0.19685*%
%ADD19R,0.12284X0.13480*%
%ADD20C,0.04000*%
%ADD21R,0.05118X0.05906*%
%ADD22R,0.29610X0.41600*%
%ADD23R,0.12137X0.04016*%
%ADD24R,0.07874X0.07874*%
%ADD37C,0.02000*%
%ADD38C,0.07087*%
%ADD39C,0.02362*%
%ADD40C,0.05000*%
G36*
X224951Y2549D02*
X2549D01*
Y143838D01*
X2695Y144277D01*
X3049Y144277D01*
X18000D01*
Y166077D01*
Y187877D01*
X3049D01*
X2695Y187877D01*
X2549Y188317D01*
Y207451D01*
X120350D01*
Y197412D01*
X124500D01*
X128650D01*
Y207451D01*
X224951D01*
Y2549D01*
D02*
G37*
%LPC*%
G36*
X128650Y196412D02*
X125000D01*
Y186069D01*
X128650D01*
Y196412D01*
D02*
G37*
G36*
X124000D02*
X120350D01*
Y186069D01*
X124000D01*
Y196412D01*
D02*
G37*
G36*
X40895Y203077D02*
X40105D01*
X39342Y202873D01*
X38658Y202478D01*
X38099Y201919D01*
X37704Y201235D01*
X37500Y200472D01*
Y199682D01*
X37704Y198919D01*
X38099Y198235D01*
X38658Y197677D01*
X39342Y197282D01*
X40105Y197077D01*
X40895D01*
X41658Y197282D01*
X42342Y197677D01*
X42704Y198038D01*
X81878D01*
X87861Y192055D01*
Y186153D01*
X87361Y185909D01*
X86751Y186261D01*
X85861Y186500D01*
X84939D01*
X84049Y186261D01*
X83251Y185801D01*
X82599Y185149D01*
X82241Y184529D01*
X52700D01*
X52115Y184413D01*
X51619Y184081D01*
X51287Y183585D01*
X51171Y183000D01*
Y174000D01*
X51287Y173415D01*
X51619Y172919D01*
X52849Y171689D01*
X53242Y171426D01*
Y169762D01*
X67379D01*
Y175778D01*
X54229D01*
Y176455D01*
X59810D01*
Y179463D01*
X60310D01*
Y179963D01*
X67379D01*
Y181471D01*
X82241D01*
X82599Y180851D01*
X83251Y180199D01*
X84049Y179738D01*
X84939Y179500D01*
X85861D01*
X86751Y179738D01*
X87361Y180091D01*
X87861Y179847D01*
Y168645D01*
X80058Y160842D01*
X79616Y160180D01*
X79461Y159400D01*
Y156376D01*
X77547D01*
Y154731D01*
X67379D01*
Y155699D01*
X53242D01*
Y149683D01*
X66586D01*
X67387Y148883D01*
X67387Y148883D01*
X67961Y148309D01*
Y100077D01*
X68116Y99297D01*
X68558Y98635D01*
X72058Y95135D01*
X72720Y94693D01*
X73500Y94538D01*
X91528D01*
X91634Y94467D01*
X92508Y94293D01*
X92900D01*
Y93761D01*
X93055Y92981D01*
X93352Y92536D01*
X93547Y92116D01*
Y85136D01*
X93547Y84998D01*
X93547D01*
Y84636D01*
X93547D01*
Y81577D01*
X97500D01*
Y81077D01*
X98000D01*
Y77518D01*
X100461D01*
Y66545D01*
X97058Y63142D01*
X96616Y62480D01*
X96461Y61700D01*
Y42577D01*
X96616Y41797D01*
X97058Y41135D01*
X98305Y39888D01*
X98114Y39426D01*
X91547D01*
Y32308D01*
X91547D01*
Y31946D01*
X91547D01*
Y29916D01*
X88950D01*
X88699Y29866D01*
X86453D01*
Y31758D01*
X86453Y31896D01*
Y32258D01*
X86453Y32396D01*
Y39376D01*
X84029D01*
Y46088D01*
X86453D01*
Y53068D01*
X86453Y53206D01*
Y53568D01*
X86453Y53706D01*
Y60686D01*
X78547D01*
Y58656D01*
X75450D01*
X75199Y58607D01*
X72453D01*
Y60636D01*
X64547D01*
Y58607D01*
X34650D01*
Y70677D01*
X29029D01*
Y73055D01*
X34642D01*
Y88536D01*
X20358D01*
Y73055D01*
X25971D01*
Y60335D01*
X26087Y59749D01*
X26350Y59355D01*
Y48992D01*
X34650D01*
Y55548D01*
X64547D01*
Y53656D01*
X64547Y53518D01*
Y53156D01*
X64547Y53018D01*
Y46038D01*
X68471D01*
Y39376D01*
X64547D01*
Y32396D01*
X64547Y32258D01*
Y31896D01*
X64547Y31758D01*
Y28837D01*
X68500D01*
X72453D01*
Y31758D01*
X72453Y31896D01*
Y32258D01*
X72453Y32396D01*
Y33471D01*
X78547D01*
Y32396D01*
X78547Y32258D01*
Y31896D01*
X78547Y31758D01*
Y24778D01*
X86453D01*
Y26808D01*
X88900D01*
X89151Y26858D01*
X91547D01*
Y24828D01*
X99453D01*
Y26858D01*
X127087D01*
X127672Y26974D01*
X128168Y27306D01*
X134381Y33519D01*
X134713Y34015D01*
X134829Y34600D01*
Y41700D01*
X134713Y42285D01*
X134381Y42781D01*
X132788Y44375D01*
X132545Y44538D01*
X132107Y45192D01*
X131366Y45687D01*
X130688Y45822D01*
Y46332D01*
X131366Y46467D01*
X132107Y46962D01*
X132164Y47048D01*
X141077D01*
X141663Y47164D01*
X142047Y47421D01*
X142547Y47246D01*
Y46038D01*
X150453D01*
Y48067D01*
X152900D01*
X153151Y48117D01*
X155547D01*
Y46088D01*
X163453D01*
Y51216D01*
X163808Y51370D01*
X163953Y51384D01*
X166552Y48785D01*
X167048Y48454D01*
X167547Y48355D01*
Y46088D01*
X175453D01*
Y48117D01*
X176214D01*
X176799Y48234D01*
X176971Y48348D01*
X177471Y48081D01*
Y40887D01*
X177587Y40302D01*
X177919Y39806D01*
X179419Y38306D01*
X179547Y38220D01*
Y35966D01*
X179547Y35828D01*
Y35466D01*
X179547Y35328D01*
Y32407D01*
X183500D01*
X187453D01*
Y35328D01*
X187453Y35466D01*
Y35828D01*
X187453Y35966D01*
Y38231D01*
X187915Y38422D01*
X193419Y32919D01*
X193915Y32587D01*
X194500Y32471D01*
X205500D01*
X206085Y32587D01*
X206581Y32919D01*
X212211Y38548D01*
X212543Y39044D01*
X212659Y39630D01*
Y76870D01*
X212543Y77456D01*
X212211Y77952D01*
X192081Y98081D01*
X191585Y98413D01*
X191000Y98529D01*
X176498D01*
X176107Y99115D01*
X175366Y99610D01*
X174688Y99745D01*
Y100255D01*
X175366Y100390D01*
X176107Y100885D01*
X176602Y101626D01*
X176776Y102500D01*
X176602Y103374D01*
X176107Y104115D01*
X175366Y104610D01*
X174688Y104745D01*
Y105255D01*
X175366Y105390D01*
X175588Y105538D01*
X190078D01*
X216061Y79555D01*
Y55671D01*
X215756Y55610D01*
X215015Y55115D01*
X214520Y54374D01*
X214346Y53500D01*
X214520Y52626D01*
X215015Y51885D01*
X215756Y51390D01*
X216434Y51255D01*
Y50745D01*
X215756Y50610D01*
X215015Y50115D01*
X214520Y49374D01*
X214346Y48500D01*
X214520Y47626D01*
X215015Y46885D01*
X215756Y46390D01*
X216434Y46255D01*
Y45745D01*
X215756Y45610D01*
X215015Y45115D01*
X214520Y44374D01*
X214346Y43500D01*
X214520Y42626D01*
X215015Y41885D01*
X215756Y41390D01*
X216434Y41255D01*
Y40745D01*
X215756Y40610D01*
X215015Y40115D01*
X214520Y39374D01*
X214346Y38500D01*
X214520Y37626D01*
X215015Y36885D01*
X215756Y36390D01*
X216630Y36216D01*
X221492D01*
X222366Y36390D01*
X223107Y36885D01*
X223602Y37626D01*
X223776Y38500D01*
X223602Y39374D01*
X223107Y40115D01*
X222366Y40610D01*
X221688Y40745D01*
Y41255D01*
X222366Y41390D01*
X223107Y41885D01*
X223602Y42626D01*
X223776Y43500D01*
X223602Y44374D01*
X223107Y45115D01*
X222366Y45610D01*
X221688Y45745D01*
Y46255D01*
X222366Y46390D01*
X223107Y46885D01*
X223602Y47626D01*
X223776Y48500D01*
X223602Y49374D01*
X223107Y50115D01*
X222366Y50610D01*
X221688Y50745D01*
Y51255D01*
X222366Y51390D01*
X223107Y51885D01*
X223602Y52626D01*
X223776Y53500D01*
X223602Y54374D01*
X223107Y55115D01*
X222366Y55610D01*
X221492Y55784D01*
X220139D01*
Y80400D01*
X219984Y81180D01*
X219542Y81842D01*
X219542Y81842D01*
X192365Y109019D01*
X191703Y109461D01*
X190923Y109616D01*
X175335D01*
X174492Y109784D01*
X172039D01*
Y111498D01*
X195727Y135186D01*
X196127Y134879D01*
X195766Y134254D01*
X195457Y133098D01*
Y133000D01*
X199500D01*
Y137043D01*
X199402D01*
X198246Y136734D01*
X197621Y136373D01*
X197314Y136773D01*
X198565Y138024D01*
X199402Y137799D01*
X200598D01*
X201754Y138109D01*
X202790Y138707D01*
X203636Y139553D01*
X204234Y140589D01*
X204543Y141744D01*
Y142941D01*
X204234Y144096D01*
X203636Y145132D01*
X202790Y145978D01*
X201754Y146576D01*
X200598Y146886D01*
X199402D01*
X198246Y146576D01*
X197210Y145978D01*
X196364Y145132D01*
X195931Y144382D01*
X189302D01*
X170242Y163442D01*
X169580Y163884D01*
X168800Y164039D01*
X124500D01*
X123720Y163884D01*
X123058Y163442D01*
X122616Y162780D01*
X122478Y162085D01*
X120350D01*
Y154856D01*
X85453D01*
Y156376D01*
X83539D01*
Y158555D01*
X91342Y166358D01*
X91784Y167020D01*
X91939Y167800D01*
Y192900D01*
X91784Y193680D01*
X91342Y194342D01*
X84165Y201519D01*
X83503Y201961D01*
X82723Y202116D01*
X42704D01*
X42342Y202478D01*
X41658Y202873D01*
X40895Y203077D01*
D02*
G37*
G36*
X67379Y178963D02*
X60810D01*
Y176455D01*
X67379D01*
Y178963D01*
D02*
G37*
G36*
Y169085D02*
X60810D01*
Y166577D01*
X67379D01*
Y169085D01*
D02*
G37*
G36*
X59810D02*
X53242D01*
Y166577D01*
X59810D01*
Y169085D01*
D02*
G37*
G36*
X19000Y187877D02*
Y166577D01*
X34305D01*
Y187877D01*
X19000D01*
D02*
G37*
G36*
X50000Y168154D02*
Y166500D01*
X51654D01*
X51349Y167236D01*
X50735Y167849D01*
X50000Y168154D01*
D02*
G37*
G36*
X49000D02*
X48265Y167849D01*
X47651Y167236D01*
X47346Y166500D01*
X49000D01*
Y168154D01*
D02*
G37*
G36*
X51654Y165500D02*
X50000D01*
Y163846D01*
X50735Y164151D01*
X51349Y164764D01*
X51654Y165500D01*
D02*
G37*
G36*
X49000D02*
X47346D01*
X47651Y164764D01*
X48265Y164151D01*
X49000Y163846D01*
Y165500D01*
D02*
G37*
G36*
X67379Y165577D02*
X60810D01*
Y163069D01*
X67379D01*
Y165577D01*
D02*
G37*
G36*
X59810D02*
X53242D01*
Y163069D01*
X59810D01*
Y165577D01*
D02*
G37*
G36*
X70661Y162884D02*
X69739D01*
X68849Y162646D01*
X68051Y162185D01*
X67879Y162013D01*
X67379Y162220D01*
Y162392D01*
X53242D01*
Y160862D01*
X52915Y160797D01*
X52419Y160466D01*
X48919Y156966D01*
X48587Y156470D01*
X48471Y155884D01*
Y140000D01*
X48587Y139415D01*
X48919Y138919D01*
X52364Y135474D01*
X52860Y135142D01*
X53445Y135026D01*
X57563D01*
Y133781D01*
X44516Y120734D01*
X34642D01*
Y126945D01*
X20358D01*
Y111465D01*
X34642D01*
Y117675D01*
X45150D01*
X45735Y117792D01*
X46231Y118123D01*
X59726Y131618D01*
X67437D01*
Y141492D01*
X57563D01*
Y138084D01*
X54079D01*
X51529Y140633D01*
Y155251D01*
X52827Y156548D01*
X53242Y156376D01*
Y156376D01*
X67379D01*
Y156548D01*
X67879Y156755D01*
X68051Y156583D01*
X68849Y156123D01*
X69739Y155884D01*
X70661D01*
X71551Y156123D01*
X72349Y156583D01*
X73001Y157235D01*
X73462Y158033D01*
X73700Y158923D01*
Y159845D01*
X73462Y160735D01*
X73001Y161533D01*
X72349Y162185D01*
X71551Y162646D01*
X70661Y162884D01*
D02*
G37*
G36*
X200598Y156728D02*
X199402D01*
X198246Y156419D01*
X197210Y155821D01*
X196364Y154975D01*
X195766Y153939D01*
X195457Y152783D01*
Y151587D01*
X195766Y150431D01*
X196364Y149395D01*
X197210Y148549D01*
X198246Y147951D01*
X199402Y147642D01*
X200598D01*
X201754Y147951D01*
X202790Y148549D01*
X203636Y149395D01*
X204234Y150431D01*
X204543Y151587D01*
Y152783D01*
X204234Y153939D01*
X203636Y154975D01*
X202790Y155821D01*
X201754Y156419D01*
X200598Y156728D01*
D02*
G37*
G36*
X34305Y165577D02*
X19000D01*
Y144277D01*
X34305D01*
Y165577D01*
D02*
G37*
G36*
X200598Y137043D02*
X200500D01*
Y133000D01*
X204543D01*
Y133098D01*
X204234Y134254D01*
X203636Y135290D01*
X202790Y136135D01*
X201754Y136734D01*
X200598Y137043D01*
D02*
G37*
G36*
X204543Y132000D02*
X200500D01*
Y127957D01*
X200598D01*
X201754Y128266D01*
X202790Y128865D01*
X203636Y129710D01*
X204234Y130746D01*
X204543Y131902D01*
Y132000D01*
D02*
G37*
G36*
X199500D02*
X195457D01*
Y131902D01*
X195766Y130746D01*
X196364Y129710D01*
X197210Y128865D01*
X198246Y128266D01*
X199402Y127957D01*
X199500D01*
Y132000D01*
D02*
G37*
G36*
X67437Y123382D02*
X63000D01*
Y118945D01*
X67437D01*
Y123382D01*
D02*
G37*
G36*
X62000D02*
X57563D01*
Y118945D01*
X62000D01*
Y123382D01*
D02*
G37*
G36*
X200598Y127201D02*
X199402D01*
X198246Y126891D01*
X197210Y126293D01*
X196364Y125447D01*
X195766Y124411D01*
X195457Y123256D01*
Y122060D01*
X195766Y120904D01*
X196364Y119868D01*
X197210Y119022D01*
X198246Y118424D01*
X199402Y118114D01*
X200598D01*
X201754Y118424D01*
X202790Y119022D01*
X203636Y119868D01*
X204234Y120904D01*
X204543Y122060D01*
Y123256D01*
X204234Y124411D01*
X203636Y125447D01*
X202790Y126293D01*
X201754Y126891D01*
X200598Y127201D01*
D02*
G37*
G36*
X67437Y117945D02*
X63000D01*
Y113508D01*
X67437D01*
Y117945D01*
D02*
G37*
G36*
X62000D02*
X57563D01*
Y113508D01*
X62000D01*
Y117945D01*
D02*
G37*
G36*
X200598Y117358D02*
X199402D01*
X198246Y117049D01*
X197210Y116451D01*
X196364Y115605D01*
X195766Y114569D01*
X195457Y113413D01*
Y112217D01*
X195766Y111061D01*
X196364Y110025D01*
X197210Y109179D01*
X198246Y108581D01*
X199402Y108272D01*
X200598D01*
X201754Y108581D01*
X202790Y109179D01*
X203636Y110025D01*
X204234Y111061D01*
X204543Y112217D01*
Y113413D01*
X204234Y114569D01*
X203636Y115605D01*
X202790Y116451D01*
X201754Y117049D01*
X200598Y117358D01*
D02*
G37*
G36*
X97000Y80577D02*
X93547D01*
Y77518D01*
X97000D01*
Y80577D01*
D02*
G37*
G36*
X187453Y31407D02*
X184000D01*
Y28348D01*
X187453D01*
Y31407D01*
D02*
G37*
G36*
X183000D02*
X179547D01*
Y28348D01*
X183000D01*
Y31407D01*
D02*
G37*
G36*
X72453Y27837D02*
X69000D01*
Y24778D01*
X72453D01*
Y27837D01*
D02*
G37*
G36*
X68000D02*
X64547D01*
Y24778D01*
X68000D01*
Y27837D01*
D02*
G37*
G36*
X34650Y25008D02*
X31000D01*
Y14665D01*
X34650D01*
Y25008D01*
D02*
G37*
G36*
X30000D02*
X26350D01*
Y14665D01*
X30000D01*
Y25008D01*
D02*
G37*
G36*
X34650Y13666D02*
X31000D01*
Y3323D01*
X34650D01*
Y13666D01*
D02*
G37*
G36*
X30000D02*
X26350D01*
Y3323D01*
X30000D01*
Y13666D01*
D02*
G37*
%LPD*%
G36*
X187015Y140901D02*
X187677Y140459D01*
X188457Y140303D01*
X194424D01*
X194615Y139841D01*
X168558Y113785D01*
X168116Y113123D01*
X167961Y112343D01*
Y109034D01*
X167520Y108374D01*
X167346Y107500D01*
X167520Y106626D01*
X168015Y105885D01*
X168756Y105390D01*
X169434Y105255D01*
Y104745D01*
X168756Y104610D01*
X168015Y104115D01*
X167520Y103374D01*
X167346Y102500D01*
X167520Y101626D01*
X168015Y100885D01*
X168756Y100390D01*
X169434Y100255D01*
Y99745D01*
X168756Y99610D01*
X168015Y99115D01*
X167520Y98374D01*
X167346Y97500D01*
X167520Y96626D01*
X168015Y95885D01*
X168756Y95390D01*
X169434Y95255D01*
Y94745D01*
X168756Y94610D01*
X168015Y94115D01*
X167520Y93374D01*
X167346Y92500D01*
X167520Y91626D01*
X168015Y90885D01*
X168756Y90390D01*
X169630Y90216D01*
X174492D01*
X175366Y90390D01*
X175878Y90732D01*
X177858D01*
X178216Y90112D01*
X178867Y89461D01*
X179665Y89000D01*
X180555Y88761D01*
X181477D01*
X182367Y89000D01*
X183165Y89461D01*
X183817Y90112D01*
X184278Y90910D01*
X184516Y91800D01*
Y92722D01*
X184278Y93612D01*
X183817Y94410D01*
X183256Y94971D01*
X183386Y95471D01*
X190366D01*
X209600Y76237D01*
Y40263D01*
X204867Y35529D01*
X195166D01*
X194907Y35855D01*
X195136Y36290D01*
X195508Y36216D01*
X200370D01*
X201244Y36390D01*
X201350Y36461D01*
X203000D01*
X203780Y36616D01*
X204442Y37058D01*
X206942Y39558D01*
X207384Y40220D01*
X207539Y41000D01*
Y74000D01*
X207384Y74780D01*
X206942Y75442D01*
X198642Y83742D01*
X197980Y84184D01*
X197200Y84339D01*
X170345D01*
X166039Y88645D01*
Y116828D01*
X165884Y117609D01*
X165442Y118270D01*
X165442Y118270D01*
X164270Y119442D01*
X163609Y119884D01*
X162828Y120039D01*
X139172D01*
X138391Y119884D01*
X137730Y119442D01*
X137730Y119442D01*
X136558Y118270D01*
X136116Y117609D01*
X135961Y116828D01*
Y99277D01*
X136116Y98497D01*
X136558Y97835D01*
X139315Y95078D01*
X139124Y94616D01*
X120421D01*
X120210Y95116D01*
X120602Y95703D01*
X120776Y96577D01*
X120602Y97451D01*
X120107Y98192D01*
X119366Y98687D01*
X118688Y98822D01*
Y99332D01*
X119366Y99467D01*
X120107Y99962D01*
X120164Y100048D01*
X122400D01*
X122985Y100164D01*
X123481Y100496D01*
X124793Y101808D01*
X126547D01*
Y99778D01*
X134453D01*
Y106758D01*
X134453Y106896D01*
Y107258D01*
X134453Y107396D01*
Y114376D01*
X126547D01*
Y112347D01*
X124293D01*
X123981Y112659D01*
X123485Y112990D01*
X122900Y113107D01*
X120164D01*
X120107Y113192D01*
X119366Y113687D01*
X118492Y113861D01*
X113630D01*
X112756Y113687D01*
X112015Y113192D01*
X111520Y112451D01*
X111346Y111577D01*
X111520Y110703D01*
X112015Y109962D01*
X112756Y109467D01*
X113434Y109332D01*
Y108822D01*
X112756Y108687D01*
X112015Y108192D01*
X111520Y107451D01*
X111445Y107077D01*
X116061D01*
X120677D01*
X120602Y107451D01*
X120107Y108192D01*
X119366Y108687D01*
X118688Y108822D01*
Y109332D01*
X119366Y109467D01*
X120107Y109962D01*
X120164Y110048D01*
X122266D01*
X122579Y109736D01*
X123075Y109404D01*
X123660Y109288D01*
X126547D01*
Y107396D01*
X126547Y107258D01*
Y106896D01*
X126547Y106758D01*
Y104866D01*
X124160D01*
X123574Y104750D01*
X123078Y104418D01*
X121766Y103107D01*
X120164D01*
X120107Y103192D01*
X119366Y103687D01*
X118688Y103822D01*
Y104332D01*
X119366Y104467D01*
X120107Y104962D01*
X120602Y105703D01*
X120677Y106077D01*
X116061D01*
X111445D01*
X111520Y105703D01*
X112015Y104962D01*
X112756Y104467D01*
X113434Y104332D01*
Y103822D01*
X112756Y103687D01*
X112015Y103192D01*
X111520Y102451D01*
X111346Y101577D01*
X111520Y100703D01*
X112015Y99962D01*
X112756Y99467D01*
X113434Y99332D01*
Y98822D01*
X112756Y98687D01*
X112015Y98192D01*
X111520Y97451D01*
X111346Y96577D01*
X111520Y95703D01*
X111912Y95116D01*
X111701Y94616D01*
X110345D01*
X106162Y98799D01*
Y112677D01*
X106162Y112677D01*
X106007Y113458D01*
X105565Y114119D01*
X99442Y120242D01*
X98780Y120684D01*
X98000Y120839D01*
X77900D01*
X77120Y120684D01*
X76458Y120242D01*
X72539Y116323D01*
X72039Y116530D01*
Y149153D01*
X71884Y149934D01*
X71738Y150152D01*
X71774Y150301D01*
X72005Y150652D01*
X77547D01*
Y149396D01*
X77547Y149258D01*
Y148896D01*
X77547Y148758D01*
Y145837D01*
X81500D01*
X85453D01*
Y148758D01*
X85453Y148896D01*
Y149258D01*
X85453Y149396D01*
Y150778D01*
X120350D01*
Y140400D01*
X128650D01*
Y159961D01*
X167955D01*
X187015Y140901D01*
D02*
G37*
G36*
X163471Y62266D02*
Y61179D01*
X163453Y60686D01*
X162971Y60686D01*
X160000D01*
Y57127D01*
X159500D01*
Y56627D01*
X155547D01*
Y53706D01*
X155547Y53568D01*
Y53206D01*
X155547Y53068D01*
Y51176D01*
X152950D01*
X152699Y51126D01*
X150453D01*
Y53018D01*
X150453Y53156D01*
Y53518D01*
X150453Y53656D01*
Y60256D01*
X150953Y60463D01*
X151265Y60151D01*
X152000Y59846D01*
Y61500D01*
X150346D01*
X150506Y61114D01*
X150163Y60636D01*
X148029D01*
Y68242D01*
X148649Y68599D01*
X149301Y69251D01*
X149761Y70049D01*
X150000Y70939D01*
Y71861D01*
X149761Y72751D01*
X149301Y73549D01*
X148979Y73871D01*
X149186Y74371D01*
X151366D01*
X163471Y62266D01*
D02*
G37*
%LPC*%
G36*
X85453Y144837D02*
X82000D01*
Y141778D01*
X85453D01*
Y144837D01*
D02*
G37*
G36*
X81000D02*
X77547D01*
Y141778D01*
X81000D01*
Y144837D01*
D02*
G37*
G36*
X153000Y64154D02*
Y62500D01*
X154654D01*
X154349Y63235D01*
X153735Y63849D01*
X153000Y64154D01*
D02*
G37*
G36*
X152000D02*
X151265Y63849D01*
X150651Y63235D01*
X150346Y62500D01*
X152000D01*
Y64154D01*
D02*
G37*
G36*
X154654Y61500D02*
X153000D01*
Y59846D01*
X153735Y60151D01*
X154349Y60764D01*
X154654Y61500D01*
D02*
G37*
G36*
X159000Y60686D02*
X155547D01*
Y57627D01*
X159000D01*
Y60686D01*
D02*
G37*
%LPD*%
D11*
X191000Y97000D02*
X211130Y76870D01*
X205500Y34000D02*
X211130Y39630D01*
Y76870D01*
X185327Y46174D02*
X188500Y43000D01*
Y40000D02*
X194500Y34000D01*
X188500Y40000D02*
Y43000D01*
X194500Y34000D02*
X205500D01*
X183500Y49647D02*
X185327Y47820D01*
Y46174D02*
Y47820D01*
X142500Y113000D02*
X142614Y112886D01*
Y109586D02*
Y112886D01*
Y109586D02*
X144623Y107577D01*
X172300Y92261D02*
X181016D01*
X172061Y92500D02*
X172300Y92261D01*
X172061Y97500D02*
Y102500D01*
X173036Y97217D02*
X175601D01*
X175818Y97000D02*
X191000D01*
X172819D02*
X173036Y97217D01*
X175601D02*
X175818Y97000D01*
X118400Y38577D02*
Y49100D01*
X114500Y53000D02*
X118400Y49100D01*
X110348Y53000D02*
X114500D01*
X106939Y53577D02*
X109771D01*
X110348Y53000D01*
X103462Y49222D02*
X104107Y48577D01*
X106939D01*
X103278Y49222D02*
X103462D01*
X101500Y51000D02*
X103278Y49222D01*
X101500Y51000D02*
Y58000D01*
X108577Y65077D01*
X120760D01*
X106939Y43577D02*
Y48577D01*
X114823Y35000D02*
X118400Y38577D01*
X82500Y35817D02*
Y49647D01*
X148939Y102577D02*
X149316D01*
X144623Y107577D02*
X149316D01*
Y102577D02*
X150000Y103261D01*
X149316Y107577D02*
X150000Y106893D01*
Y103261D02*
Y106893D01*
X27500Y60335D02*
X30757Y57077D01*
X68500D01*
X27500Y60335D02*
Y80795D01*
X81683Y35000D02*
X82500Y35817D01*
X69317Y35000D02*
X81683D01*
X68500Y35817D02*
X69317Y35000D01*
X68500Y35817D02*
X70000Y37317D01*
X68500Y49597D02*
X70000Y48097D01*
Y37317D02*
Y48097D01*
X95500Y35867D02*
X96367Y35000D01*
X114823D01*
X128344Y43294D02*
X131706D01*
X133300Y41700D01*
Y34600D02*
Y41700D01*
X128061Y43577D02*
X128344Y43294D01*
X142097Y49597D02*
X152900D01*
X141077Y48577D02*
X142097Y49597D01*
X128061Y48577D02*
X141077D01*
X171280Y49867D02*
X171500Y49647D01*
X165000Y52500D02*
X167633Y49867D01*
X165000Y52500D02*
Y62900D01*
X167633Y49867D02*
X171280D01*
X152000Y75900D02*
X165000Y62900D01*
X171894Y49647D02*
X176214D01*
X176800Y50233D01*
Y58500D01*
X50000Y155884D02*
X53500Y159384D01*
X50000Y140000D02*
X53445Y136555D01*
X50000Y140000D02*
Y155884D01*
X53445Y136555D02*
X62500D01*
X193100Y53577D02*
Y68000D01*
X165100Y73900D02*
X177400D01*
X27500Y119205D02*
X45150D01*
X62500Y136555D01*
X60310Y159384D02*
X70200D01*
X146500Y57077D02*
Y71400D01*
X148939Y97577D02*
X155523D01*
X161100Y92000D01*
Y77900D02*
Y92000D01*
Y77900D02*
X165100Y73900D01*
X187200D02*
X193100Y68000D01*
X128240Y65077D02*
Y70000D01*
X134140Y75900D01*
X152000D01*
X176800Y58500D02*
X179500Y61200D01*
X187500D01*
X190000Y58700D01*
Y50600D02*
Y58700D01*
Y50600D02*
X192023Y48577D01*
X196939D01*
X87560Y111577D02*
X94939D01*
X85800Y109817D02*
X87560Y111577D01*
X78500Y109817D02*
X85800D01*
X183500Y57127D02*
X184626D01*
X187953Y53800D01*
Y48924D02*
Y53800D01*
Y48924D02*
X193300Y43577D01*
X196939D01*
X95500Y28387D02*
X127087D01*
X133300Y34600D01*
X52700Y183000D02*
X85400D01*
X52700Y174000D02*
Y183000D01*
Y174000D02*
X53930Y172770D01*
X60310D01*
X180127Y57127D02*
X183500D01*
X179000Y56000D02*
X180127Y57127D01*
X179000Y40887D02*
Y56000D01*
Y40887D02*
X180500Y39387D01*
X183500D01*
X171500Y57127D02*
Y68000D01*
X177400Y73900D01*
X187200D01*
X193100Y53577D02*
X196939D01*
X53500Y159384D02*
X60310D01*
X75450Y57127D02*
X82500D01*
X75400Y57077D02*
X75450Y57127D01*
X68500Y57077D02*
X75400D01*
X118400Y38577D02*
X128061D01*
X88950Y28387D02*
X95500D01*
X88900Y28337D02*
X88950Y28387D01*
X82500Y28337D02*
X88900D01*
X124160Y103337D02*
X130500D01*
X122400Y101577D02*
X124160Y103337D01*
X116061Y101577D02*
X122400D01*
X123660Y110817D02*
X130500D01*
X122900Y111577D02*
X123660Y110817D01*
X116061Y111577D02*
X122900D01*
X152950Y49647D02*
X159500D01*
X152900Y49597D02*
X152950Y49647D01*
D16*
X150939Y107500D02*
D03*
Y102500D02*
D03*
Y97500D02*
D03*
Y92500D02*
D03*
X172061Y107500D02*
D03*
Y102500D02*
D03*
Y97500D02*
D03*
Y92500D02*
D03*
X128061Y38577D02*
D03*
Y43577D02*
D03*
Y48577D02*
D03*
Y53577D02*
D03*
X106939Y38577D02*
D03*
Y43577D02*
D03*
Y48577D02*
D03*
Y53577D02*
D03*
X197939Y53500D02*
D03*
Y48500D02*
D03*
Y43500D02*
D03*
Y38500D02*
D03*
X219061Y53500D02*
D03*
Y48500D02*
D03*
Y43500D02*
D03*
Y38500D02*
D03*
X116061Y96577D02*
D03*
Y101577D02*
D03*
Y106577D02*
D03*
Y111577D02*
D03*
X94939Y96577D02*
D03*
Y101577D02*
D03*
Y106577D02*
D03*
Y111577D02*
D03*
D17*
X97500Y88557D02*
D03*
Y81077D02*
D03*
X183500Y31907D02*
D03*
Y39387D02*
D03*
X146500Y49597D02*
D03*
Y57077D02*
D03*
X95500Y35867D02*
D03*
Y28387D02*
D03*
X82500Y28337D02*
D03*
Y35817D02*
D03*
X68500Y28337D02*
D03*
Y35817D02*
D03*
X130500Y110817D02*
D03*
Y103337D02*
D03*
X78500Y102337D02*
D03*
Y109817D02*
D03*
X171500Y49647D02*
D03*
Y57127D02*
D03*
X183500Y49647D02*
D03*
Y57127D02*
D03*
X159500Y49647D02*
D03*
Y57127D02*
D03*
X68500Y57077D02*
D03*
Y49597D02*
D03*
X81500Y145337D02*
D03*
Y152817D02*
D03*
X82500Y49647D02*
D03*
Y57127D02*
D03*
D18*
X30500Y14165D02*
D03*
Y59835D02*
D03*
X124500Y196912D02*
D03*
Y151243D02*
D03*
D19*
X27500Y119205D02*
D03*
Y80795D02*
D03*
D20*
X40500Y200077D02*
D03*
D21*
X120760Y65077D02*
D03*
X128240D02*
D03*
D22*
X18500Y166077D02*
D03*
D23*
X60310Y179463D02*
D03*
Y172770D02*
D03*
Y166077D02*
D03*
Y159384D02*
D03*
Y152691D02*
D03*
D24*
X62500Y118445D02*
D03*
Y136555D02*
D03*
D37*
X203000Y38500D02*
X205500Y41000D01*
X197939Y38500D02*
X203000D01*
X169500Y82300D02*
X197200D01*
X205500Y74000D01*
Y41000D02*
Y74000D01*
X138000Y116828D02*
X139172Y118000D01*
X162828D01*
X138000Y99277D02*
Y116828D01*
X164000Y87800D02*
Y116828D01*
X162828Y118000D02*
X164000Y116828D01*
X98500Y42577D02*
X102500Y38577D01*
X98500Y61700D02*
X102500Y65700D01*
X98500Y42577D02*
Y61700D01*
X99059Y86998D02*
X101328D01*
X102500Y65700D02*
Y85827D01*
X97500Y88557D02*
X99059Y86998D01*
X101328D02*
X102500Y85827D01*
X82723Y200077D02*
X89900Y192900D01*
X40500Y200077D02*
X82723D01*
X138000Y99277D02*
X143739Y93539D01*
X60310Y152691D02*
X81374D01*
X64371D02*
X65317Y151745D01*
X67408D01*
X68828Y150325D01*
X81500Y152817D02*
X122925D01*
X124500Y151243D01*
X68828Y150325D02*
X68828D01*
X70000Y149153D01*
Y100077D02*
Y149153D01*
Y100077D02*
X73500Y96577D01*
X142777Y92577D02*
X143739Y93539D01*
X136400Y86200D02*
X142777Y92577D01*
X143739Y93539D02*
X144700Y92577D01*
X148939D01*
X109500D02*
X142777D01*
X124500Y162000D02*
X168800D01*
X170000Y107577D02*
Y112343D01*
X218100Y53577D02*
Y80400D01*
X76740Y102337D02*
X78500D01*
X73500Y105577D02*
X76740Y102337D01*
X73500Y105577D02*
Y114400D01*
X77900Y118800D01*
X98000D01*
X104123Y112677D01*
Y97954D02*
Y112677D01*
Y97954D02*
X109500Y92577D01*
X128061Y53577D02*
X136400D01*
X73500Y96577D02*
X94939D01*
X188457Y142343D02*
X200000D01*
X168800Y162000D02*
X188457Y142343D01*
X124500Y151243D02*
Y162000D01*
X102500Y38577D02*
X106939D01*
X218061Y53577D02*
X218100D01*
X190923Y107577D02*
X218100Y80400D01*
X170061Y107577D02*
X190923D01*
X164000Y87800D02*
X169500Y82300D01*
X89900Y167800D02*
Y192900D01*
X81500Y159400D02*
X89900Y167800D01*
X81500Y152817D02*
Y159400D01*
X170000Y107577D02*
X170061D01*
X170000Y112343D02*
X200000Y142343D01*
X94939Y93761D02*
Y96577D01*
Y93761D02*
X97500Y91200D01*
Y88557D02*
Y91200D01*
D38*
X200000Y112815D02*
D03*
Y122658D02*
D03*
Y132500D02*
D03*
Y142343D02*
D03*
Y152185D02*
D03*
D39*
X152500Y62000D02*
D03*
X49500Y166000D02*
D03*
X81500Y145837D02*
D03*
D40*
X142500Y113000D02*
D03*
X181016Y92261D02*
D03*
X136400Y53577D02*
D03*
Y86200D02*
D03*
X70200Y159384D02*
D03*
X146500Y71400D02*
D03*
X85400Y183000D02*
D03*
M02*
