G04*
G04 #@! TF.GenerationSoftware,Altium Limited,Altium Designer,22.0.2 (36)*
G04*
G04 Layer_Color=65535*
%FSLAX25Y25*%
%MOIN*%
G70*
G04*
G04 #@! TF.SameCoordinates,0D3B301A-5C7D-42CB-B649-B08759771362*
G04*
G04*
G04 #@! TF.FilePolarity,Positive*
G04*
G01*
G75*
%ADD10C,0.01181*%
%ADD11C,0.01000*%
%ADD12C,0.00600*%
%ADD13C,0.00787*%
%ADD14C,0.00591*%
%ADD15C,0.00500*%
G36*
X53807Y30819D02*
X6996Y30740D01*
X7980Y28142D01*
X8886Y25543D01*
X10185Y23536D01*
X11287Y22236D01*
X12587Y20307D01*
X14201Y18811D01*
X16484Y17039D01*
X18610Y16134D01*
X20185Y15032D01*
X21996Y14520D01*
X23650Y13811D01*
X24909Y13378D01*
X25933Y13220D01*
X26130D01*
X26091Y25386D01*
X30697Y25386D01*
X35342Y25386D01*
X35421Y13378D01*
X37705Y13969D01*
X40146Y14795D01*
X42823Y16173D01*
X45067Y17512D01*
X46720Y19008D01*
X48020Y20189D01*
X49476Y21882D01*
X51169Y24559D01*
X53138Y28536D01*
X53925Y30779D01*
X53807Y30819D01*
D02*
G37*
G36*
X101193Y180258D02*
X148004Y180337D01*
X147020Y182935D01*
X146114Y185534D01*
X144815Y187542D01*
X143713Y188841D01*
X142413Y190770D01*
X140799Y192266D01*
X138516Y194038D01*
X136390Y194943D01*
X134815Y196046D01*
X133004Y196557D01*
X131350Y197266D01*
X130090Y197699D01*
X129067Y197857D01*
X128870D01*
X128909Y185691D01*
X124303Y185691D01*
X119658Y185691D01*
X119579Y197699D01*
X117295Y197109D01*
X114854Y196282D01*
X112177Y194904D01*
X109933Y193565D01*
X108280Y192069D01*
X106980Y190888D01*
X105524Y189195D01*
X103831Y186518D01*
X101862Y182542D01*
X101075Y180298D01*
X101193Y180258D01*
D02*
G37*
D10*
X159063Y107500D02*
G03*
X159063Y107500I-591J0D01*
G01*
X151530Y110521D02*
G03*
X151530Y110521I-591J0D01*
G01*
X121119Y38577D02*
G03*
X121119Y38577I-591J0D01*
G01*
X128652Y35556D02*
G03*
X128652Y35556I-591J0D01*
G01*
X206063Y53500D02*
G03*
X206063Y53500I-591J0D01*
G01*
X198530Y56521D02*
G03*
X198530Y56521I-591J0D01*
G01*
X109119Y96577D02*
G03*
X109119Y96577I-591J0D01*
G01*
X116652Y93556D02*
G03*
X116652Y93556I-591J0D01*
G01*
D11*
X26248Y60858D02*
G03*
X25813Y13206I4521J-23869D01*
G01*
X35539Y13378D02*
G03*
X34752Y60740I-5564J23595D01*
G01*
X43500Y200077D02*
G03*
X43500Y200077I-3000J0D01*
G01*
X128752Y150219D02*
G03*
X129187Y197871I-4521J23869D01*
G01*
X119461Y197699D02*
G03*
X120248Y150337I5564J-23595D01*
G01*
X3925Y54716D02*
X12784Y63575D01*
X48217D02*
X57075Y54716D01*
X12784Y63575D02*
X26440D01*
X34560D02*
X48217D01*
X3925Y10425D02*
X26440D01*
X34560D02*
X57075D01*
Y54716D01*
X3925Y10425D02*
Y54716D01*
X142217Y147502D02*
X151075Y156361D01*
X97925D02*
X106784Y147502D01*
X128560D02*
X142217D01*
X106784D02*
X120440D01*
X128560Y200652D02*
X151075D01*
X97925D02*
X120440D01*
X97925Y156361D02*
Y200652D01*
X151075Y156361D02*
Y200652D01*
X190551Y102973D02*
Y162028D01*
X214567D01*
X190551Y102973D02*
X214567D01*
Y162028D01*
X197050Y162031D02*
X209560D01*
X197050Y160061D02*
Y162031D01*
Y160061D02*
X209560D01*
X212800D01*
Y104941D02*
Y160061D01*
X209840Y104941D02*
X212800D01*
X198520D02*
X209840D01*
X198520Y102971D02*
Y104941D01*
Y102971D02*
X209840D01*
X195540Y102973D02*
X206640Y102971D01*
X195540Y102973D02*
X195570Y104941D01*
X192620D02*
X195570D01*
X192620D02*
Y110501D01*
X190850D02*
X192620D01*
X195124Y162028D02*
X206230Y162031D01*
X195080Y160061D02*
X195124Y162028D01*
X192610Y160061D02*
X195080D01*
X192610Y154491D02*
Y160061D01*
X192614Y141529D02*
X192618Y141359D01*
X192614Y114193D02*
Y141529D01*
X190843Y114193D02*
X192614D01*
X190847Y154495D02*
X192614D01*
X190847Y150804D02*
X192618D01*
Y141529D02*
Y150804D01*
X56988Y131000D02*
X68012D01*
Y118445D02*
Y136555D01*
X56988Y118445D02*
X56988Y136555D01*
X67347D02*
X68012D01*
X56988D02*
X57653D01*
X67347Y118445D02*
X68012D01*
X56988D02*
X57653D01*
X18500Y198999D02*
X22499D01*
X20499Y200998D02*
Y197000D01*
X28497Y201998D02*
X24498D01*
Y198999D01*
X26497Y199999D01*
X27497D01*
X28497Y198999D01*
Y197000D01*
X27497Y196000D01*
X25498D01*
X24498Y197000D01*
X30496Y201998D02*
Y197999D01*
X32495Y196000D01*
X34495Y197999D01*
Y201998D01*
X156000Y189833D02*
X157333D01*
X156666D01*
Y193832D01*
X156000Y193165D01*
X159332D02*
X159999Y193832D01*
X161332D01*
X161998Y193165D01*
Y192499D01*
X161332Y191832D01*
X160665D01*
X161332D01*
X161998Y191166D01*
Y190499D01*
X161332Y189833D01*
X159999D01*
X159332Y190499D01*
X167330Y189833D02*
Y192499D01*
X168663Y193832D01*
X169995Y192499D01*
Y189833D01*
Y191832D01*
X167330D01*
X171328Y188500D02*
Y192499D01*
X173328D01*
X173994Y191832D01*
Y190499D01*
X173328Y189833D01*
X171328D01*
X175327Y192499D02*
Y189833D01*
Y191166D01*
X175994Y191832D01*
X176660Y192499D01*
X177326D01*
X179992Y189166D02*
X180659Y189833D01*
Y190499D01*
X179992D01*
Y189833D01*
X180659D01*
X179992Y189166D01*
X179326Y188500D01*
X189989Y189833D02*
X187323D01*
X189989Y192499D01*
Y193165D01*
X189323Y193832D01*
X187990D01*
X187323Y193165D01*
X191322D02*
X191988Y193832D01*
X193321D01*
X193988Y193165D01*
Y190499D01*
X193321Y189833D01*
X191988D01*
X191322Y190499D01*
Y193165D01*
X197986Y189833D02*
X195321D01*
X197986Y192499D01*
Y193165D01*
X197320Y193832D01*
X195987D01*
X195321Y193165D01*
X201985Y189833D02*
X199319D01*
X201985Y192499D01*
Y193165D01*
X201319Y193832D01*
X199986D01*
X199319Y193165D01*
X158666Y201332D02*
X156000D01*
Y199332D01*
X157333D01*
X156000D01*
Y197333D01*
X161998D02*
X160665D01*
X159999Y197999D01*
Y199332D01*
X160665Y199999D01*
X161998D01*
X162664Y199332D01*
Y198666D01*
X159999D01*
X163997Y197333D02*
Y199999D01*
X165997D01*
X166663Y199332D01*
Y197333D01*
X169329Y196000D02*
X169995D01*
X170662Y196667D01*
Y199999D01*
X168663D01*
X167996Y199332D01*
Y197999D01*
X168663Y197333D01*
X170662D01*
X171995Y199999D02*
X174661Y197333D01*
X173328Y198666D01*
X174661Y199999D01*
X171995Y197333D01*
X175994Y199999D02*
Y197999D01*
X176660Y197333D01*
X178659D01*
Y199999D01*
X181992Y197333D02*
X180659D01*
X179992Y197999D01*
Y199332D01*
X180659Y199999D01*
X181992D01*
X182658Y199332D01*
Y198666D01*
X179992D01*
X187990Y201332D02*
X190656D01*
Y200665D01*
X187990Y197999D01*
Y197333D01*
X190656D01*
X191988Y201332D02*
Y197333D01*
Y199332D01*
X192655Y199999D01*
X193988D01*
X194654Y199332D01*
Y197333D01*
X196653Y199999D02*
X197986D01*
X198653Y199332D01*
Y197333D01*
X196653D01*
X195987Y197999D01*
X196653Y198666D01*
X198653D01*
X199986Y197333D02*
Y199999D01*
X201985D01*
X202652Y199332D01*
Y197333D01*
X205317Y196000D02*
X205984D01*
X206650Y196667D01*
Y199999D01*
X204651D01*
X203984Y199332D01*
Y197999D01*
X204651Y197333D01*
X206650D01*
X156000Y206499D02*
Y203500D01*
X157500D01*
X157999Y204000D01*
Y204500D01*
X157500Y204999D01*
X156000D01*
X157500D01*
X157999Y205499D01*
Y205999D01*
X157500Y206499D01*
X156000D01*
X158999Y205499D02*
Y204000D01*
X159499Y203500D01*
X160998D01*
Y205499D01*
X163997D02*
X162498D01*
X161998Y204999D01*
Y204000D01*
X162498Y203500D01*
X163997D01*
X164997D02*
Y206499D01*
Y204500D02*
X166497Y205499D01*
X164997Y204500D02*
X166497Y203500D01*
X172994Y205499D02*
X171495D01*
X170995Y204999D01*
Y204000D01*
X171495Y203500D01*
X172994D01*
X174494D02*
X175494D01*
X175994Y204000D01*
Y204999D01*
X175494Y205499D01*
X174494D01*
X173994Y204999D01*
Y204000D01*
X174494Y203500D01*
X176993D02*
Y205499D01*
X178493D01*
X178993Y204999D01*
Y203500D01*
X179992Y205499D02*
X180992Y203500D01*
X181992Y205499D01*
X184491Y203500D02*
X183491D01*
X182991Y204000D01*
Y204999D01*
X183491Y205499D01*
X184491D01*
X184991Y204999D01*
Y204500D01*
X182991D01*
X185990Y205499D02*
Y203500D01*
Y204500D01*
X186490Y204999D01*
X186990Y205499D01*
X187490D01*
X189489Y205999D02*
Y205499D01*
X188989D01*
X189989D01*
X189489D01*
Y204000D01*
X189989Y203500D01*
X192988D02*
X191988D01*
X191489Y204000D01*
Y204999D01*
X191988Y205499D01*
X192988D01*
X193488Y204999D01*
Y204500D01*
X191489D01*
X194488Y205499D02*
Y203500D01*
Y204500D01*
X194987Y204999D01*
X195487Y205499D01*
X195987D01*
X200985Y205999D02*
Y205499D01*
X200486D01*
X201485D01*
X200985D01*
Y204000D01*
X201485Y203500D01*
X204484D02*
X203485D01*
X202985Y204000D01*
Y204999D01*
X203485Y205499D01*
X204484D01*
X204984Y204999D01*
Y204500D01*
X202985D01*
X205984Y203500D02*
X207483D01*
X207983Y204000D01*
X207483Y204500D01*
X206484D01*
X205984Y204999D01*
X206484Y205499D01*
X207983D01*
X209483Y205999D02*
Y205499D01*
X208983D01*
X209982D01*
X209483D01*
Y204000D01*
X209982Y203500D01*
X212982D02*
X211982D01*
X211482Y204000D01*
Y204999D01*
X211982Y205499D01*
X212982D01*
X213481Y204999D01*
Y204500D01*
X211482D01*
X214481Y205499D02*
Y203500D01*
Y204500D01*
X214981Y204999D01*
X215481Y205499D01*
X215981D01*
X194900Y66698D02*
Y61700D01*
X195900Y60700D01*
X197899D01*
X198899Y61700D01*
Y66698D01*
X203897Y60700D02*
Y66698D01*
X200898Y63699D01*
X204897D01*
X147900Y120698D02*
Y115700D01*
X148900Y114700D01*
X150899D01*
X151899Y115700D01*
Y120698D01*
X153898Y119698D02*
X154898Y120698D01*
X156897D01*
X157897Y119698D01*
Y118699D01*
X156897Y117699D01*
X155897D01*
X156897D01*
X157897Y116699D01*
Y115700D01*
X156897Y114700D01*
X154898D01*
X153898Y115700D01*
X103900Y65498D02*
Y60500D01*
X104900Y59500D01*
X106899D01*
X107899Y60500D01*
Y65498D01*
X113897Y59500D02*
X109898D01*
X113897Y63499D01*
Y64498D01*
X112897Y65498D01*
X110898D01*
X109898Y64498D01*
X195099Y170498D02*
X194099Y171498D01*
X192100D01*
X191100Y170498D01*
Y166500D01*
X192100Y165500D01*
X194099D01*
X195099Y166500D01*
X197098Y165500D02*
Y171498D01*
X201097Y165500D01*
Y171498D01*
X203096Y165500D02*
X205096D01*
X204096D01*
Y171498D01*
X203096Y170498D01*
X91900Y123475D02*
Y118477D01*
X92900Y117477D01*
X94899D01*
X95899Y118477D01*
Y123475D01*
X101897D02*
X97898D01*
Y120476D01*
X99897Y121476D01*
X100897D01*
X101897Y120476D01*
Y118477D01*
X100897Y117477D01*
X98898D01*
X97898Y118477D01*
X139002Y64338D02*
Y70336D01*
X142001D01*
X143001Y69336D01*
Y67337D01*
X142001Y66337D01*
X139002D01*
X141002D02*
X143001Y64338D01*
X145001D02*
X147000D01*
X146000D01*
Y70336D01*
X145001Y69336D01*
X149999D02*
X150998Y70336D01*
X152998D01*
X153998Y69336D01*
Y65338D01*
X152998Y64338D01*
X150998D01*
X149999Y65338D01*
Y69336D01*
X178502Y19648D02*
Y25646D01*
X181501D01*
X182500Y24646D01*
Y22647D01*
X181501Y21647D01*
X178502D01*
X180501D02*
X182500Y19648D01*
X184500Y20647D02*
X185499Y19648D01*
X187499D01*
X188498Y20647D01*
Y24646D01*
X187499Y25646D01*
X185499D01*
X184500Y24646D01*
Y23647D01*
X185499Y22647D01*
X188498D01*
X156100Y64177D02*
Y70175D01*
X159099D01*
X160099Y69175D01*
Y67176D01*
X159099Y66176D01*
X156100D01*
X158099D02*
X160099Y64177D01*
X162098Y69175D02*
X163098Y70175D01*
X165097D01*
X166097Y69175D01*
Y68176D01*
X165097Y67176D01*
X166097Y66176D01*
Y65177D01*
X165097Y64177D01*
X163098D01*
X162098Y65177D01*
Y66176D01*
X163098Y67176D01*
X162098Y68176D01*
Y69175D01*
X163098Y67176D02*
X165097D01*
X180100Y64177D02*
Y70175D01*
X183099D01*
X184099Y69175D01*
Y67176D01*
X183099Y66176D01*
X180100D01*
X182099D02*
X184099Y64177D01*
X186098Y70175D02*
X190097D01*
Y69175D01*
X186098Y65177D01*
Y64177D01*
X117700Y72477D02*
Y78475D01*
X120699D01*
X121699Y77476D01*
Y75476D01*
X120699Y74476D01*
X117700D01*
X119699D02*
X121699Y72477D01*
X127697Y78475D02*
X125697Y77476D01*
X123698Y75476D01*
Y73477D01*
X124698Y72477D01*
X126697D01*
X127697Y73477D01*
Y74476D01*
X126697Y75476D01*
X123698D01*
X77502Y16001D02*
Y21999D01*
X80501D01*
X81500Y20999D01*
Y19000D01*
X80501Y18000D01*
X77502D01*
X79501D02*
X81500Y16001D01*
X87498Y21999D02*
X83500D01*
Y19000D01*
X85499Y20000D01*
X86499D01*
X87498Y19000D01*
Y17001D01*
X86499Y16001D01*
X84499D01*
X83500Y17001D01*
X63502Y16001D02*
Y21999D01*
X66501D01*
X67500Y20999D01*
Y19000D01*
X66501Y18000D01*
X63502D01*
X65501D02*
X67500Y16001D01*
X72499D02*
Y21999D01*
X69500Y19000D01*
X73498D01*
X168100Y64177D02*
Y70175D01*
X171099D01*
X172099Y69175D01*
Y67176D01*
X171099Y66176D01*
X168100D01*
X170099D02*
X172099Y64177D01*
X178097D02*
X174098D01*
X178097Y68176D01*
Y69175D01*
X177097Y70175D01*
X175098D01*
X174098Y69175D01*
X92501Y16001D02*
Y21999D01*
X95500D01*
X96500Y20999D01*
Y19000D01*
X95500Y18000D01*
X92501D01*
X94501D02*
X96500Y16001D01*
X98499D02*
X100499D01*
X99499D01*
Y21999D01*
X98499Y20999D01*
X79099Y121775D02*
X78099Y122775D01*
X76100D01*
X75100Y121775D01*
Y117777D01*
X76100Y116777D01*
X78099D01*
X79099Y117777D01*
X81098Y122775D02*
X85097D01*
Y121775D01*
X81098Y117777D01*
Y116777D01*
X131099Y122875D02*
X130099Y123875D01*
X128100D01*
X127100Y122875D01*
Y118877D01*
X128100Y117877D01*
X130099D01*
X131099Y118877D01*
X137097Y123875D02*
X135097Y122875D01*
X133098Y120876D01*
Y118877D01*
X134098Y117877D01*
X136097D01*
X137097Y118877D01*
Y119876D01*
X136097Y120876D01*
X133098D01*
X84000Y86999D02*
X83001Y87999D01*
X81001D01*
X80002Y86999D01*
Y83001D01*
X81001Y82001D01*
X83001D01*
X84000Y83001D01*
X89998Y87999D02*
X86000D01*
Y85000D01*
X87999Y86000D01*
X88999D01*
X89998Y85000D01*
Y83001D01*
X88999Y82001D01*
X86999D01*
X86000Y83001D01*
X65100Y64177D02*
Y70175D01*
X68099D01*
X69099Y69175D01*
Y67176D01*
X68099Y66176D01*
X65100D01*
X67099D02*
X69099Y64177D01*
X71098Y69175D02*
X72098Y70175D01*
X74097D01*
X75097Y69175D01*
Y68176D01*
X74097Y67176D01*
X73097D01*
X74097D01*
X75097Y66176D01*
Y65177D01*
X74097Y64177D01*
X72098D01*
X71098Y65177D01*
X4300Y196275D02*
Y191277D01*
X5300Y190277D01*
X7299D01*
X8299Y191277D01*
Y196275D01*
X10298Y190277D02*
X12297D01*
X11298D01*
Y196275D01*
X10298Y195275D01*
X50502Y199076D02*
X54501D01*
X52502D01*
Y193078D01*
X56500D02*
Y199076D01*
X59499D01*
X60499Y198076D01*
Y196077D01*
X59499Y195077D01*
X56500D01*
X62498Y193078D02*
X64498D01*
X63498D01*
Y199076D01*
X62498Y198076D01*
X7200Y135298D02*
Y129300D01*
X11199D01*
X13198D02*
X15197D01*
X14198D01*
Y135298D01*
X13198Y134298D01*
X57500Y149898D02*
Y143900D01*
X60499D01*
X61499Y144900D01*
Y148898D01*
X60499Y149898D01*
X57500D01*
X63498Y143900D02*
X65497D01*
X64498D01*
Y149898D01*
X63498Y148898D01*
X9500Y73999D02*
X8501Y74999D01*
X6501D01*
X5502Y73999D01*
Y70001D01*
X6501Y69001D01*
X8501D01*
X9500Y70001D01*
X14499Y69001D02*
Y74999D01*
X11500Y72000D01*
X15498D01*
X83099Y69175D02*
X82099Y70175D01*
X80100D01*
X79100Y69175D01*
Y65177D01*
X80100Y64177D01*
X82099D01*
X83099Y65177D01*
X85098Y69175D02*
X86098Y70175D01*
X88097D01*
X89097Y69175D01*
Y68176D01*
X88097Y67176D01*
X87097D01*
X88097D01*
X89097Y66176D01*
Y65177D01*
X88097Y64177D01*
X86098D01*
X85098Y65177D01*
X82099Y164776D02*
X81099Y165775D01*
X79100D01*
X78100Y164776D01*
Y160777D01*
X79100Y159777D01*
X81099D01*
X82099Y160777D01*
X88097Y159777D02*
X84098D01*
X88097Y163776D01*
Y164776D01*
X87097Y165775D01*
X85098D01*
X84098Y164776D01*
X86500Y193076D02*
X85500Y194076D01*
X83501D01*
X82501Y193076D01*
Y189078D01*
X83501Y188078D01*
X85500D01*
X86500Y189078D01*
X88499Y188078D02*
X90499D01*
X89499D01*
Y194076D01*
X88499Y193076D01*
D12*
X155510Y110143D02*
X167490D01*
Y89858D02*
Y110143D01*
X155510Y89858D02*
X167490D01*
X155510D02*
Y110143D01*
X111510Y35935D02*
X123490D01*
X111510D02*
Y56220D01*
X123490D01*
Y35935D02*
Y56220D01*
X202510Y56142D02*
X214490D01*
Y35857D02*
Y56142D01*
X202510Y35857D02*
X214490D01*
X202510D02*
Y56142D01*
X6531Y77062D02*
X20758D01*
X6531D02*
Y122938D01*
X20758D01*
X34242Y77062D02*
X48469D01*
Y122938D01*
X34242D02*
X48469D01*
X99510Y93935D02*
X111490D01*
X99510D02*
Y114220D01*
X111490D01*
Y93935D02*
Y114220D01*
X33905Y186377D02*
X44058D01*
X33905Y145777D02*
X44058D01*
X45905D02*
Y186377D01*
D13*
X101500Y86786D02*
Y92117D01*
X93500Y86786D02*
Y92117D01*
X93563Y92167D02*
X101437D01*
X93563Y77417D02*
X101437D01*
X101500D02*
Y82849D01*
X93500Y77417D02*
Y82849D01*
X179500Y28347D02*
Y33678D01*
X187500Y28347D02*
Y33678D01*
X179563Y28297D02*
X187437D01*
X179563Y43047D02*
X187437D01*
X179500Y37615D02*
Y43047D01*
X187500Y37615D02*
Y43047D01*
X142500Y46037D02*
Y51368D01*
X150500Y46037D02*
Y51368D01*
X142563Y45987D02*
X150437D01*
X142563Y60737D02*
X150437D01*
X142500Y55305D02*
Y60737D01*
X150500Y55305D02*
Y60737D01*
X99500Y34096D02*
Y39427D01*
X91500Y34096D02*
Y39427D01*
X91563Y39477D02*
X99437D01*
X91563Y24727D02*
X99437D01*
X99500D02*
Y30159D01*
X91500Y24727D02*
Y30159D01*
X78500Y24777D02*
Y30109D01*
X86500Y24777D02*
Y30109D01*
X78563Y24727D02*
X86437D01*
X78563Y39477D02*
X86437D01*
X78500Y34046D02*
Y39477D01*
X86500Y34046D02*
Y39477D01*
X64500Y24777D02*
Y30109D01*
X72500Y24777D02*
Y30109D01*
X64563Y24727D02*
X72437D01*
X64563Y39477D02*
X72437D01*
X64500Y34046D02*
Y39477D01*
X72500Y34046D02*
Y39477D01*
X134500Y109046D02*
Y114477D01*
X126500Y109046D02*
Y114477D01*
X126563D02*
X134437D01*
X126563Y99727D02*
X134437D01*
X134500Y99777D02*
Y105109D01*
X126500Y99777D02*
Y105109D01*
X74500Y98677D02*
Y104109D01*
X82500Y98677D02*
Y104109D01*
X74563Y98677D02*
X82437D01*
X74563Y113427D02*
X82437D01*
X74500Y108046D02*
Y113377D01*
X82500Y108046D02*
Y113377D01*
X167500Y45987D02*
Y51418D01*
X175500Y45987D02*
Y51418D01*
X167563Y45987D02*
X175437D01*
X167563Y60737D02*
X175437D01*
X167500Y55355D02*
Y60687D01*
X175500Y55355D02*
Y60687D01*
X117100Y69077D02*
X122532D01*
X117100Y61077D02*
X122532D01*
X117100Y61140D02*
Y69014D01*
X131850Y61140D02*
Y69014D01*
X126469Y69077D02*
X131800D01*
X126469Y61077D02*
X131800D01*
X179500Y45987D02*
Y51418D01*
X187500Y45987D02*
Y51418D01*
X179563Y45987D02*
X187437D01*
X179563Y60737D02*
X187437D01*
X179500Y55355D02*
Y60687D01*
X187500Y55355D02*
Y60687D01*
X155500Y45987D02*
Y51418D01*
X163500Y45987D02*
Y51418D01*
X155563Y45987D02*
X163437D01*
X155563Y60737D02*
X163437D01*
X155500Y55355D02*
Y60687D01*
X163500Y55355D02*
Y60687D01*
X72500Y55305D02*
Y60737D01*
X64500Y55305D02*
Y60737D01*
X64563D02*
X72437D01*
X64563Y45987D02*
X72437D01*
X72500Y46037D02*
Y51368D01*
X64500Y46037D02*
Y51368D01*
X77500Y141677D02*
Y147109D01*
X85500Y141677D02*
Y147109D01*
X77563Y141677D02*
X85437D01*
X77563Y156427D02*
X85437D01*
X77500Y151046D02*
Y156377D01*
X85500Y151046D02*
Y156377D01*
X78500Y45987D02*
Y51418D01*
X86500Y45987D02*
Y51418D01*
X78563Y45987D02*
X86437D01*
X78563Y60737D02*
X86437D01*
X78500Y55355D02*
Y60687D01*
X86500Y55355D02*
Y60687D01*
D14*
X44058Y145777D02*
X45905D01*
X44058Y186377D02*
X45905D01*
D15*
X62500Y125000D02*
Y130000D01*
Y129000D02*
X64000Y126000D01*
X61000Y129000D02*
X62500D01*
X61000Y126000D02*
X62500Y129000D01*
X61000Y126000D02*
X62500D01*
Y129000D02*
X64000D01*
X62500Y126000D02*
X64000D01*
M02*
