G04*
G04 #@! TF.GenerationSoftware,Altium Limited,Altium Designer,22.0.2 (36)*
G04*
G04 Layer_Color=8388736*
%FSLAX25Y25*%
%MOIN*%
G70*
G04*
G04 #@! TF.SameCoordinates,C1BBFEDD-02B3-4BB0-B8EE-F48E88225D29*
G04*
G04*
G04 #@! TF.FilePolarity,Negative*
G04*
G01*
G75*
%ADD27R,0.05918X0.06706*%
%ADD28R,0.06509X0.03162*%
%ADD29R,0.06509X0.01981*%
%ADD30O,0.07617X0.02150*%
%ADD31C,0.04800*%
%ADD32R,0.03162X0.03162*%
%ADD33R,0.06706X0.05918*%
%ADD34R,0.09461X0.14580*%
%ADD35R,0.09461X0.05131*%
%ADD36R,0.08674X0.08674*%
%ADD37C,0.03556*%
%ADD38O,0.07099X0.04737*%
%ADD39O,0.09068X0.04737*%
%ADD40C,0.07887*%
%ADD41C,0.05800*%
D27*
X86240Y96000D02*
D03*
X78760D02*
D03*
X121740Y53000D02*
D03*
X114260D02*
D03*
X121740Y33000D02*
D03*
X114260D02*
D03*
X114310Y13000D02*
D03*
X121790D02*
D03*
X114310Y43000D02*
D03*
X121790D02*
D03*
X114260Y23000D02*
D03*
X121740D02*
D03*
X88740Y15000D02*
D03*
X81260D02*
D03*
X88950Y33000D02*
D03*
X81470D02*
D03*
X81520Y24000D02*
D03*
X89000D02*
D03*
X61260Y117000D02*
D03*
X68740D02*
D03*
Y96000D02*
D03*
X61260D02*
D03*
X61480Y11000D02*
D03*
X54000D02*
D03*
X53740Y80000D02*
D03*
X46260D02*
D03*
X53740Y70000D02*
D03*
X46260D02*
D03*
X38760Y37500D02*
D03*
X46240D02*
D03*
Y57500D02*
D03*
X38760D02*
D03*
X46240Y47500D02*
D03*
X38760D02*
D03*
X61260Y106000D02*
D03*
X68740D02*
D03*
D28*
X30530Y89823D02*
D03*
Y92855D02*
D03*
Y112146D02*
D03*
Y115197D02*
D03*
D29*
Y95610D02*
D03*
Y97579D02*
D03*
Y99547D02*
D03*
Y101516D02*
D03*
Y103485D02*
D03*
Y105453D02*
D03*
X30528Y107421D02*
D03*
X30530Y109390D02*
D03*
D30*
X67435Y60177D02*
D03*
Y57618D02*
D03*
Y55059D02*
D03*
Y52500D02*
D03*
Y49941D02*
D03*
Y47382D02*
D03*
Y44823D02*
D03*
Y42264D02*
D03*
X90000Y60177D02*
D03*
Y57618D02*
D03*
Y55059D02*
D03*
Y52500D02*
D03*
Y49941D02*
D03*
Y47382D02*
D03*
Y44823D02*
D03*
Y42264D02*
D03*
D31*
X96000Y5000D02*
D03*
D32*
X17500Y59094D02*
D03*
Y65000D02*
D03*
X7500Y59547D02*
D03*
Y65453D02*
D03*
D33*
Y38760D02*
D03*
Y46240D02*
D03*
X17500Y38760D02*
D03*
Y46240D02*
D03*
D34*
X10300Y17500D02*
D03*
D35*
X34700Y26555D02*
D03*
Y17500D02*
D03*
Y8445D02*
D03*
D36*
X58000Y21000D02*
D03*
Y39110D02*
D03*
D37*
X24841Y90768D02*
D03*
Y114233D02*
D03*
D38*
X10471Y85492D02*
D03*
Y119508D02*
D03*
D39*
X26928Y85492D02*
D03*
Y119508D02*
D03*
D40*
X113000Y72315D02*
D03*
Y82158D02*
D03*
Y92000D02*
D03*
Y101843D02*
D03*
Y111685D02*
D03*
D41*
X5000Y44819D02*
D03*
X77000Y104000D02*
D03*
X50000Y111000D02*
D03*
X27000Y43000D02*
D03*
X81585Y72315D02*
D03*
X41000Y74200D02*
D03*
X27600Y31000D02*
D03*
X52200Y32000D02*
D03*
M02*
