M48
;Layer_Color=9474304
;FILE_FORMAT=2:5
INCH,LZ
;TYPE=PLATED
T1F00S00C0.01181
T3F00S00C0.02756
T5F00S00C0.04134
T6F00S00C0.04724
;TYPE=NON_PLATED
T7F00S00C0.02756
%
T01
X001076Y00155
X001824
X0036Y0009585
X0046
Y0031415
X0036
X004176Y00455
X004924
X00495Y00645
X0034Y0081939
X00415Y00925
X00195Y00935
X0019Y0103061
X0033Y0116939
X00415Y01255
X00285Y0145308
X0028043Y0155965
X004776Y01545
X0064142Y0150635
X00765Y01455
X00807Y01265
Y0117445
X00925Y01205
X00945Y014024
X011324Y01455
X01215Y01505
X01365Y0145086
X011524Y01155
X00935Y009324
X00845Y008576
X00745Y00725
X00935Y006124
X00905Y00435
X0110935Y0045238
X0128999Y003524
X0129382Y00275
X01505Y00385
Y004598
X01385Y00685
X01485Y00105
X01015Y00115
X00115Y00385
X0019Y0067061
X0018Y0138061
X01675Y01425
X01645Y01475
X01675Y01535
X01725Y01395
X01792Y0132
X01797Y01255
Y011802
X01706Y011776
X01893Y01181
X021676Y012376
X02355Y01215
X02345Y01285
X02395Y01315
X02445Y01345
X02295Y01355
X022223Y0151364
X02062Y01358
X02055Y009202
X01965
X02145
X02235
X02355Y01125
X0250417Y0086013
X02715Y009076
X02815
X03012Y00939
X02865Y01165
X02725Y0147248
X02525Y01465
X02545Y00485
X027098
X028724
X02305
X021402
X02045Y00395
X01605Y00385
Y004598
Y001276
X0320326Y01535
X028948Y0160638
Y0168118
X02595Y01585
X02475
X02355Y01675
X02295Y01685
X02275Y01755
X0210205Y0172937
X02095Y01615
X01956Y01695
X0187793Y0167793
X01675Y01735
X017Y0188
X016202Y01875
Y01965
X01705Y02035
X01835Y01965
X01935Y02005
X02205Y02035
Y019602
X02341Y02165
X02005Y02245
X01645Y021898
X01805Y02615
X01935Y02685
X03075Y02095
X01555Y021893
X01465Y021898
X01325Y02025
X01135Y02065
X01175Y02155
X011324Y02225
X01158Y02317
X01235Y022976
Y023724
X010931Y0240114
Y02535
Y0266886
X0120838Y0260871
X01425Y027224
X0154Y027174
X0155265Y0248557
X01515Y01705
Y01615
X01445Y01605
X01555Y01565
X00805Y01635
X006064Y01614
X00479Y01634
X00475Y01905
X0037Y0185945
X00384Y02001
X00374Y02072
X004802Y02075
X0043359Y0215922
X00408Y02243
X00413Y02317
X006Y0242
X0076Y0244
X0068Y0254
X0074Y0264
X0062Y0266
X00665Y0221547
X00712Y02121
X00635Y02025
X0072078Y0189129
X008524Y01925
X00925Y01995
Y02155
X0022036Y021834
T03
X0308967Y0076071
Y0095165
T05
X03125Y02595
Y02695
X03025
Y02595
X02925
Y02695
X02825
Y02595
X02725
Y02695
X02625
Y02595
X02525
Y02695
X02425
Y02595
X02325
Y02695
X02225
Y02595
X02125
Y02695
X02025
Y02595
T06
X01915Y00195
X02015
X02115
X02215
X02315
X02415
X02515
X02615
X02715
X02815
Y00295
X02715
X02615
X02515
X02415
X02315
X02215
X02115
X02015
X01915
T07
X002594Y0203967
Y0227432
M30
