M48
;Layer_Color=9474304
;FILE_FORMAT=2:5
INCH,LZ
;TYPE=PLATED
T1F00S00C0.01181
T2F00S00C0.02756
T4F00S00C0.02800
T5F00S00C0.04331
%
T01
X01525Y0062
X00815Y0145837
X006Y0166
X0027Y0162
T02
X0145453Y0022023
X0164547
T04
X00975Y00435
X01364Y0053577
X01465Y00714
X01364Y00862
X01425Y0113
X01455Y00285
X0181016Y0092261
X0072Y01595
X00854Y0183
T05
X02Y0112815
Y0122658
Y01325
Y0142343
Y0152185
M30
